<?xml version="1.0" standalone="no"?>
<!DOCTYPE svg PUBLIC "-//W3C//DTD SVG 1.1//EN" "http://www.w3.org/Graphics/SVG/1.1/DTD/svg11.dtd" >
<svg xmlns="http://www.w3.org/2000/svg" xmlns:xlink="http://www.w3.org/1999/xlink" version="1.1">
<metadata>
Created by FontForge 20161116 at Mon Oct 22 17:18:17 2007
 By Jimmy Wärting
Copyright (c) Dalton Maag Ltd &#38; BMW Group, 2007. All rights reserved.
</metadata>
<defs>
<font id="BMWTypeV2Light" horiz-adv-x="518" vert-adv-y="2048" >
  <font-face 
    font-family="BMWType V2 Light"
    font-weight="400"
    font-stretch="normal"
    units-per-em="2048"
    panose-1="0 0 0 0 0 0 0 0 0 0"
    ascent="1638"
    descent="-410"
    x-height="1081"
    cap-height="1544"
    bbox="-285 -965 6690 1950"
    underline-thickness="0"
    underline-position="0"
    unicode-range="U+0020-FEFF"
  />
<missing-glyph vert-adv-y="1433" 
d="M52 0v1544h414v-1544h-414zM414 52v1440h-310v-1440h310z" />
    <glyph glyph-name="uniE815" unicode="&#x651;&#x64b;" vert-adv-y="1433" 
 />
    <glyph glyph-name="uniFC5E" unicode="&#x651;&#x64c;" vert-adv-y="1433" arabic-form="isolated" 
 />
    <glyph glyph-name="uniFC5F" unicode="&#x651;&#x64d;" vert-adv-y="1433" arabic-form="isolated" 
 />
    <glyph glyph-name="uniFC60" unicode="&#x651;&#x64e;" vert-adv-y="1433" arabic-form="isolated" 
 />
    <glyph glyph-name="uniFC61" unicode="&#x651;&#x64f;" vert-adv-y="1433" arabic-form="isolated" 
 />
    <glyph glyph-name="uniFC62" unicode="&#x651;&#x650;" vert-adv-y="1433" arabic-form="isolated" 
 />
    <glyph glyph-name="uniFDF2" unicode="&#xfedf;&#xfee0;&#x6c1;" vert-adv-y="1433" arabic-form="isolated" 
 />
    <glyph glyph-name="uniFEF5" unicode="&#xfedf;&#xfe82;" vert-adv-y="1433" arabic-form="isolated" 
 />
    <glyph glyph-name="uniFEF6" unicode="&#xfee0;&#xfe82;" vert-adv-y="1433" arabic-form="final" 
 />
    <glyph glyph-name="uniFEF7" unicode="&#xfedf;&#xfe84;" vert-adv-y="1433" arabic-form="isolated" 
 />
    <glyph glyph-name="uniFEF8" unicode="&#xfee0;&#xfe84;" vert-adv-y="1433" arabic-form="final" 
 />
    <glyph glyph-name="uniFEF9" unicode="&#xfedf;&#xfe88;" vert-adv-y="1433" arabic-form="isolated" 
 />
    <glyph glyph-name="uniFEFA" unicode="&#xfee0;&#xfe88;" vert-adv-y="1433" arabic-form="final" 
 />
    <glyph glyph-name="uniFEFB" unicode="&#xfedf;&#xfe8e;" vert-adv-y="1433" arabic-form="isolated" 
 />
    <glyph glyph-name="uniFEFC" unicode="&#xfee0;&#xfe8e;" vert-adv-y="1433" arabic-form="final" 
 />
    <glyph glyph-name="uniFB50" unicode="&#x671;" vert-adv-y="1433" arabic-form="isolated" 
 />
    <glyph glyph-name="uniFB51" unicode="&#x671;" vert-adv-y="1433" arabic-form="final" 
 />
    <glyph glyph-name="uniFB52" unicode="&#x67b;" vert-adv-y="1433" arabic-form="isolated" 
 />
    <glyph glyph-name="uniFB53" unicode="&#x67b;" vert-adv-y="1433" arabic-form="final" 
 />
    <glyph glyph-name="uniFB54" unicode="&#x67b;" vert-adv-y="1433" arabic-form="initial" 
 />
    <glyph glyph-name="uniFB55" unicode="&#x67b;" vert-adv-y="1433" arabic-form="medial" 
 />
    <glyph glyph-name="uniFB56" unicode="&#x67e;" vert-adv-y="1433" arabic-form="isolated" 
 />
    <glyph glyph-name="uniFB57" unicode="&#x67e;" vert-adv-y="1433" arabic-form="final" 
 />
    <glyph glyph-name="uniFB58" unicode="&#x67e;" vert-adv-y="1433" arabic-form="initial" 
 />
    <glyph glyph-name="uniFB59" unicode="&#x67e;" vert-adv-y="1433" arabic-form="medial" 
 />
    <glyph glyph-name="uniFB5A" unicode="&#x680;" vert-adv-y="1433" arabic-form="isolated" 
 />
    <glyph glyph-name="uniFB5B" unicode="&#x680;" vert-adv-y="1433" arabic-form="final" 
 />
    <glyph glyph-name="uniFB5C" unicode="&#x680;" vert-adv-y="1433" arabic-form="initial" 
 />
    <glyph glyph-name="uniFB5D" unicode="&#x680;" vert-adv-y="1433" arabic-form="medial" 
 />
    <glyph glyph-name="uniFB5E" unicode="&#x67a;" vert-adv-y="1433" arabic-form="isolated" 
 />
    <glyph glyph-name="uniFB5F" unicode="&#x67a;" vert-adv-y="1433" arabic-form="final" 
 />
    <glyph glyph-name="uniFB60" unicode="&#x67a;" vert-adv-y="1433" arabic-form="initial" 
 />
    <glyph glyph-name="uniFB61" unicode="&#x67a;" vert-adv-y="1433" arabic-form="medial" 
 />
    <glyph glyph-name="uniFB62" unicode="&#x67f;" vert-adv-y="1433" arabic-form="isolated" 
 />
    <glyph glyph-name="uniFB63" unicode="&#x67f;" vert-adv-y="1433" arabic-form="final" 
 />
    <glyph glyph-name="uniFB64" unicode="&#x67f;" vert-adv-y="1433" arabic-form="initial" 
 />
    <glyph glyph-name="uniFB65" unicode="&#x67f;" vert-adv-y="1433" arabic-form="medial" 
 />
    <glyph glyph-name="uniFB66" unicode="&#x679;" vert-adv-y="1433" arabic-form="isolated" 
 />
    <glyph glyph-name="uniFB67" unicode="&#x679;" vert-adv-y="1433" arabic-form="final" 
 />
    <glyph glyph-name="uniFB68" unicode="&#x679;" vert-adv-y="1433" arabic-form="initial" 
 />
    <glyph glyph-name="uniFB69" unicode="&#x679;" vert-adv-y="1433" arabic-form="medial" 
 />
    <glyph glyph-name="uniFB6A" unicode="&#x6a4;" vert-adv-y="1433" arabic-form="isolated" 
 />
    <glyph glyph-name="uniFB6B" unicode="&#x6a4;" vert-adv-y="1433" arabic-form="final" 
 />
    <glyph glyph-name="uniFB6C" unicode="&#x6a4;" vert-adv-y="1433" arabic-form="initial" 
 />
    <glyph glyph-name="uniFB6D" unicode="&#x6a4;" vert-adv-y="1433" arabic-form="medial" 
 />
    <glyph glyph-name="uniFB6E" unicode="&#x6a6;" vert-adv-y="1433" arabic-form="isolated" 
 />
    <glyph glyph-name="uniFB6F" unicode="&#x6a6;" vert-adv-y="1433" arabic-form="final" 
 />
    <glyph glyph-name="uniFB70" unicode="&#x6a6;" vert-adv-y="1433" arabic-form="initial" 
 />
    <glyph glyph-name="uniFB71" unicode="&#x6a6;" vert-adv-y="1433" arabic-form="medial" 
 />
    <glyph glyph-name="uniFB72" unicode="&#x684;" vert-adv-y="1433" arabic-form="isolated" 
 />
    <glyph glyph-name="uniFB73" unicode="&#x684;" vert-adv-y="1433" arabic-form="final" 
 />
    <glyph glyph-name="uniFB74" unicode="&#x684;" vert-adv-y="1433" arabic-form="initial" 
 />
    <glyph glyph-name="uniFB75" unicode="&#x684;" vert-adv-y="1433" arabic-form="medial" 
 />
    <glyph glyph-name="uniFB76" unicode="&#x683;" vert-adv-y="1433" arabic-form="isolated" 
 />
    <glyph glyph-name="uniFB77" unicode="&#x683;" vert-adv-y="1433" arabic-form="final" 
 />
    <glyph glyph-name="uniFB78" unicode="&#x683;" vert-adv-y="1433" arabic-form="initial" 
 />
    <glyph glyph-name="uniFB79" unicode="&#x683;" vert-adv-y="1433" arabic-form="medial" 
 />
    <glyph glyph-name="uniFB7A" unicode="&#x686;" vert-adv-y="1433" arabic-form="isolated" 
 />
    <glyph glyph-name="uniFB7B" unicode="&#x686;" vert-adv-y="1433" arabic-form="final" 
 />
    <glyph glyph-name="uniFB7C" unicode="&#x686;" vert-adv-y="1433" arabic-form="initial" 
 />
    <glyph glyph-name="uniFB7D" unicode="&#x686;" vert-adv-y="1433" arabic-form="medial" 
 />
    <glyph glyph-name="uniFB7E" unicode="&#x687;" vert-adv-y="1433" arabic-form="isolated" 
 />
    <glyph glyph-name="uniFB7F" unicode="&#x687;" vert-adv-y="1433" arabic-form="final" 
 />
    <glyph glyph-name="uniFB80" unicode="&#x687;" vert-adv-y="1433" arabic-form="initial" 
 />
    <glyph glyph-name="uniFB81" unicode="&#x687;" vert-adv-y="1433" arabic-form="medial" 
 />
    <glyph glyph-name="uniFB82" unicode="&#x68d;" vert-adv-y="1433" arabic-form="isolated" 
 />
    <glyph glyph-name="uniFB83" unicode="&#x68d;" vert-adv-y="1433" arabic-form="final" 
 />
    <glyph glyph-name="uniFB84" unicode="&#x68c;" vert-adv-y="1433" arabic-form="isolated" 
 />
    <glyph glyph-name="uniFB85" unicode="&#x68c;" vert-adv-y="1433" arabic-form="final" 
 />
    <glyph glyph-name="uniFB86" unicode="&#x68e;" vert-adv-y="1433" arabic-form="isolated" 
 />
    <glyph glyph-name="uniFB87" unicode="&#x68e;" vert-adv-y="1433" arabic-form="final" 
 />
    <glyph glyph-name="uniFB88" unicode="&#x688;" vert-adv-y="1433" arabic-form="isolated" 
 />
    <glyph glyph-name="uniFB89" unicode="&#x688;" vert-adv-y="1433" arabic-form="final" 
 />
    <glyph glyph-name="uniFB8A" unicode="&#x698;" vert-adv-y="1433" arabic-form="isolated" 
 />
    <glyph glyph-name="uniFB8B" unicode="&#x698;" vert-adv-y="1433" arabic-form="final" 
 />
    <glyph glyph-name="uniFB8C" unicode="&#x691;" vert-adv-y="1433" arabic-form="isolated" 
 />
    <glyph glyph-name="uniFB8D" unicode="&#x691;" vert-adv-y="1433" arabic-form="final" 
 />
    <glyph glyph-name="uniFB8E" unicode="&#x6a9;" vert-adv-y="1433" arabic-form="isolated" 
 />
    <glyph glyph-name="uniFB8F" unicode="&#x6a9;" vert-adv-y="1433" arabic-form="final" 
 />
    <glyph glyph-name="uniFB90" unicode="&#x6a9;" vert-adv-y="1433" arabic-form="initial" 
 />
    <glyph glyph-name="uniFB91" unicode="&#x6a9;" vert-adv-y="1433" arabic-form="medial" 
 />
    <glyph glyph-name="uniFB92" unicode="&#x6af;" vert-adv-y="1433" arabic-form="isolated" 
 />
    <glyph glyph-name="uniFB93" unicode="&#x6af;" vert-adv-y="1433" arabic-form="final" 
 />
    <glyph glyph-name="uniFB94" unicode="&#x6af;" vert-adv-y="1433" arabic-form="initial" 
 />
    <glyph glyph-name="uniFB95" unicode="&#x6af;" vert-adv-y="1433" arabic-form="medial" 
 />
    <glyph glyph-name="uniFB96" unicode="&#x6b3;" vert-adv-y="1433" arabic-form="isolated" 
 />
    <glyph glyph-name="uniFB97" unicode="&#x6b3;" vert-adv-y="1433" arabic-form="final" 
 />
    <glyph glyph-name="uniFB98" unicode="&#x6b3;" vert-adv-y="1433" arabic-form="initial" 
 />
    <glyph glyph-name="uniFB99" unicode="&#x6b3;" vert-adv-y="1433" arabic-form="medial" 
 />
    <glyph glyph-name="uniFB9A" unicode="&#x6b1;" vert-adv-y="1433" arabic-form="isolated" 
 />
    <glyph glyph-name="uniFB9B" unicode="&#x6b1;" vert-adv-y="1433" arabic-form="final" 
 />
    <glyph glyph-name="uniFB9C" unicode="&#x6b1;" vert-adv-y="1433" arabic-form="initial" 
 />
    <glyph glyph-name="uniFB9D" unicode="&#x6b1;" vert-adv-y="1433" arabic-form="medial" 
 />
    <glyph glyph-name="uniFB9E" unicode="&#x6ba;" vert-adv-y="1433" arabic-form="isolated" 
 />
    <glyph glyph-name="uniFB9F" unicode="&#x6ba;" vert-adv-y="1433" arabic-form="final" 
 />
    <glyph glyph-name="uniFBA0" unicode="&#x6bb;" vert-adv-y="1433" arabic-form="isolated" 
 />
    <glyph glyph-name="uniFBA1" unicode="&#x6bb;" vert-adv-y="1433" arabic-form="final" 
 />
    <glyph glyph-name="uniFBA2" unicode="&#x6bb;" vert-adv-y="1433" arabic-form="initial" 
 />
    <glyph glyph-name="uniFBA3" unicode="&#x6bb;" vert-adv-y="1433" arabic-form="medial" 
 />
    <glyph glyph-name="uniFBA4" unicode="&#x6c0;" vert-adv-y="1433" arabic-form="isolated" 
 />
    <glyph glyph-name="uniFBA5" unicode="&#x6c0;" vert-adv-y="1433" arabic-form="final" 
 />
    <glyph glyph-name="uniFBA6" unicode="&#x6c1;" vert-adv-y="1433" arabic-form="isolated" 
 />
    <glyph glyph-name="uniFBA7" unicode="&#x6c1;" vert-adv-y="1433" arabic-form="final" 
 />
    <glyph glyph-name="uniFBA8" unicode="&#x6c1;" vert-adv-y="1433" arabic-form="initial" 
 />
    <glyph glyph-name="uniFBA9" unicode="&#x6c1;" vert-adv-y="1433" arabic-form="medial" 
 />
    <glyph glyph-name="uniFBAA" unicode="&#x6be;" vert-adv-y="1433" arabic-form="isolated" 
 />
    <glyph glyph-name="uniFBAB" unicode="&#x6be;" vert-adv-y="1433" arabic-form="final" 
 />
    <glyph glyph-name="uniFBAC" unicode="&#x6be;" vert-adv-y="1433" arabic-form="initial" 
 />
    <glyph glyph-name="uniFBAD" unicode="&#x6be;" vert-adv-y="1433" arabic-form="medial" 
 />
    <glyph glyph-name="uniFBAE" unicode="&#x6d2;" vert-adv-y="1433" arabic-form="isolated" 
 />
    <glyph glyph-name="uniFBAF" unicode="&#x6d2;" vert-adv-y="1433" arabic-form="final" 
 />
    <glyph glyph-name="uniFBB0" unicode="&#x6d3;" vert-adv-y="1433" arabic-form="isolated" 
 />
    <glyph glyph-name="uniFBB1" unicode="&#x6d3;" vert-adv-y="1433" arabic-form="final" 
 />
    <glyph glyph-name="uniFBD3" unicode="&#x6ad;" vert-adv-y="1433" arabic-form="isolated" 
 />
    <glyph glyph-name="uniFBD4" unicode="&#x6ad;" vert-adv-y="1433" arabic-form="final" 
 />
    <glyph glyph-name="uniFBD5" unicode="&#x6ad;" vert-adv-y="1433" arabic-form="initial" 
 />
    <glyph glyph-name="uniFBD6" unicode="&#x6ad;" vert-adv-y="1433" arabic-form="medial" 
 />
    <glyph glyph-name="uniFBD7" unicode="&#x6c7;" vert-adv-y="1433" arabic-form="isolated" 
 />
    <glyph glyph-name="uniFBD8" unicode="&#x6c7;" vert-adv-y="1433" arabic-form="final" 
 />
    <glyph glyph-name="uniFBD9" unicode="&#x6c6;" vert-adv-y="1433" arabic-form="isolated" 
 />
    <glyph glyph-name="uniFBDA" unicode="&#x6c6;" vert-adv-y="1433" arabic-form="final" 
 />
    <glyph glyph-name="uniFBDB" unicode="&#x6c8;" vert-adv-y="1433" arabic-form="isolated" 
 />
    <glyph glyph-name="uniFBDC" unicode="&#x6c8;" vert-adv-y="1433" arabic-form="final" 
 />
    <glyph glyph-name="uniFBDD" unicode="&#x677;" vert-adv-y="1433" arabic-form="isolated" 
 />
    <glyph glyph-name="uniFBDE" unicode="&#x6cb;" vert-adv-y="1433" arabic-form="isolated" 
 />
    <glyph glyph-name="uniFBDF" unicode="&#x6cb;" vert-adv-y="1433" arabic-form="final" 
 />
    <glyph glyph-name="uniFBE0" unicode="&#x6c5;" vert-adv-y="1433" arabic-form="isolated" 
 />
    <glyph glyph-name="uniFBE1" unicode="&#x6c5;" vert-adv-y="1433" arabic-form="final" 
 />
    <glyph glyph-name="uniFBE2" unicode="&#x6c9;" vert-adv-y="1433" arabic-form="isolated" 
 />
    <glyph glyph-name="uniFBE3" unicode="&#x6c9;" vert-adv-y="1433" arabic-form="final" 
 />
    <glyph glyph-name="uniFBE4" unicode="&#x6d0;" vert-adv-y="1433" arabic-form="isolated" 
 />
    <glyph glyph-name="uniFBE5" unicode="&#x6d0;" vert-adv-y="1433" arabic-form="final" 
 />
    <glyph glyph-name="uniFBE6" unicode="&#x6d0;" vert-adv-y="1433" arabic-form="initial" 
 />
    <glyph glyph-name="uniFBE7" unicode="&#x6d0;" vert-adv-y="1433" arabic-form="medial" 
 />
    <glyph glyph-name="uniFBE8" unicode="&#x649;" vert-adv-y="1433" arabic-form="initial" 
 />
    <glyph glyph-name="uniFBE9" unicode="&#x649;" vert-adv-y="1433" arabic-form="medial" 
 />
    <glyph glyph-name="uniFBEA" unicode="&#xfbea;" vert-adv-y="1433" arabic-form="isolated" 
 />
    <glyph glyph-name="uniFBEB" unicode="&#xfbeb;" vert-adv-y="1433" arabic-form="final" 
 />
    <glyph glyph-name="uniFBEC" unicode="&#xfbec;" vert-adv-y="1433" arabic-form="isolated" 
 />
    <glyph glyph-name="uniFBED" unicode="&#xfbed;" vert-adv-y="1433" arabic-form="final" 
 />
    <glyph glyph-name="uniFBEE" unicode="&#xfbee;" vert-adv-y="1433" arabic-form="isolated" 
 />
    <glyph glyph-name="uniFBEF" unicode="&#xfbef;" vert-adv-y="1433" arabic-form="final" 
 />
    <glyph glyph-name="uniFBF0" unicode="&#xfbf0;" vert-adv-y="1433" arabic-form="isolated" 
 />
    <glyph glyph-name="uniFBF1" unicode="&#xfbf1;" vert-adv-y="1433" arabic-form="final" 
 />
    <glyph glyph-name="uniFBF2" unicode="&#xfbf2;" vert-adv-y="1433" arabic-form="isolated" 
 />
    <glyph glyph-name="uniFBF3" unicode="&#xfbf3;" vert-adv-y="1433" arabic-form="final" 
 />
    <glyph glyph-name="uniFBF4" unicode="&#xfbf4;" vert-adv-y="1433" arabic-form="isolated" 
 />
    <glyph glyph-name="uniFBF5" unicode="&#xfbf5;" vert-adv-y="1433" arabic-form="final" 
 />
    <glyph glyph-name="uniFBF6" unicode="&#xfbf6;" vert-adv-y="1433" arabic-form="isolated" 
 />
    <glyph glyph-name="uniFBF7" unicode="&#xfbf7;" vert-adv-y="1433" arabic-form="final" 
 />
    <glyph glyph-name="uniFBF8" unicode="&#xfbf8;" vert-adv-y="1433" arabic-form="initial" 
 />
    <glyph glyph-name="uniFBF9" unicode="&#xfbf9;" vert-adv-y="1433" arabic-form="isolated" 
 />
    <glyph glyph-name="uniFBFA" unicode="&#xfbfa;" vert-adv-y="1433" arabic-form="final" 
 />
    <glyph glyph-name="uniFBFB" unicode="&#xfbfb;" vert-adv-y="1433" arabic-form="initial" 
 />
    <glyph glyph-name="uniFBFC" unicode="&#x6cc;" vert-adv-y="1433" arabic-form="isolated" 
 />
    <glyph glyph-name="uniFBFD" unicode="&#x6cc;" vert-adv-y="1433" arabic-form="final" 
 />
    <glyph glyph-name="uniFBFE" unicode="&#x6cc;" vert-adv-y="1433" arabic-form="initial" 
 />
    <glyph glyph-name="uniFBFF" unicode="&#x6cc;" vert-adv-y="1433" arabic-form="medial" 
 />
    <glyph glyph-name="uniFE70" unicode="&#xfe70;" vert-adv-y="1433" arabic-form="isolated" 
 />
    <glyph glyph-name="uniFE72" unicode="&#xfe72;" vert-adv-y="1433" arabic-form="isolated" 
 />
    <glyph glyph-name="uniFE74" unicode="&#xfe74;" vert-adv-y="1433" arabic-form="isolated" 
 />
    <glyph glyph-name="uniFE76" unicode="&#xfe76;" vert-adv-y="1433" arabic-form="isolated" 
 />
    <glyph glyph-name="uniFE78" unicode="&#xfe78;" vert-adv-y="1433" arabic-form="isolated" 
 />
    <glyph glyph-name="uniFE7A" unicode="&#xfe7a;" vert-adv-y="1433" arabic-form="isolated" 
 />
    <glyph glyph-name="uniFE7B" unicode="&#xfe7b;" vert-adv-y="1433" arabic-form="medial" 
 />
    <glyph glyph-name="uniFE7C" unicode="&#xfe7c;" vert-adv-y="1433" arabic-form="isolated" 
 />
    <glyph glyph-name="uniFE7D" unicode="&#xfe7d;" vert-adv-y="1433" arabic-form="medial" 
 />
    <glyph glyph-name="uniFE7E" unicode="&#xfe7e;" vert-adv-y="1433" arabic-form="isolated" 
 />
    <glyph glyph-name="uniFE7F" unicode="&#xfe7f;" vert-adv-y="1433" arabic-form="medial" 
 />
    <glyph glyph-name="uniFE80" unicode="&#x621;" vert-adv-y="1433" arabic-form="isolated" 
 />
    <glyph glyph-name="uniFE81" unicode="&#x622;" vert-adv-y="1433" arabic-form="isolated" 
 />
    <glyph glyph-name="uniFE82" unicode="&#x622;" vert-adv-y="1433" arabic-form="final" 
 />
    <glyph glyph-name="uniFE83" unicode="&#x623;" vert-adv-y="1433" arabic-form="isolated" 
 />
    <glyph glyph-name="uniFE84" unicode="&#x623;" vert-adv-y="1433" arabic-form="final" 
 />
    <glyph glyph-name="uniFE85" unicode="&#x624;" vert-adv-y="1433" arabic-form="isolated" 
 />
    <glyph glyph-name="uniFE86" unicode="&#x624;" vert-adv-y="1433" arabic-form="final" 
 />
    <glyph glyph-name="uniFE87" unicode="&#x625;" vert-adv-y="1433" arabic-form="isolated" 
 />
    <glyph glyph-name="uniFE88" unicode="&#x625;" vert-adv-y="1433" arabic-form="final" 
 />
    <glyph glyph-name="uniFE89" unicode="&#x626;" vert-adv-y="1433" arabic-form="isolated" 
 />
    <glyph glyph-name="uniFE8A" unicode="&#x626;" vert-adv-y="1433" arabic-form="final" 
 />
    <glyph glyph-name="uniFE8B" unicode="&#x626;" vert-adv-y="1433" arabic-form="initial" 
 />
    <glyph glyph-name="uniFE8C" unicode="&#x626;" vert-adv-y="1433" arabic-form="medial" 
 />
    <glyph glyph-name="uniFE8D" unicode="&#x627;" vert-adv-y="1433" arabic-form="isolated" 
 />
    <glyph glyph-name="uniFE8E" unicode="&#x627;" vert-adv-y="1433" arabic-form="final" 
 />
    <glyph glyph-name="uniFE8F" unicode="&#x628;" vert-adv-y="1433" arabic-form="isolated" 
 />
    <glyph glyph-name="uniFE90" unicode="&#x628;" vert-adv-y="1433" arabic-form="final" 
 />
    <glyph glyph-name="uniFE91" unicode="&#x628;" vert-adv-y="1433" arabic-form="initial" 
 />
    <glyph glyph-name="uniFE92" unicode="&#x628;" vert-adv-y="1433" arabic-form="medial" 
 />
    <glyph glyph-name="uniFE93" unicode="&#x629;" vert-adv-y="1433" arabic-form="isolated" 
 />
    <glyph glyph-name="uniFE94" unicode="&#x629;" vert-adv-y="1433" arabic-form="final" 
 />
    <glyph glyph-name="uniFE95" unicode="&#x62a;" vert-adv-y="1433" arabic-form="isolated" 
 />
    <glyph glyph-name="uniFE96" unicode="&#x62a;" vert-adv-y="1433" arabic-form="final" 
 />
    <glyph glyph-name="uniFE97" unicode="&#x62a;" vert-adv-y="1433" arabic-form="initial" 
 />
    <glyph glyph-name="uniFE98" unicode="&#x62a;" vert-adv-y="1433" arabic-form="medial" 
 />
    <glyph glyph-name="uniFE99" unicode="&#x62b;" vert-adv-y="1433" arabic-form="isolated" 
 />
    <glyph glyph-name="uniFE9A" unicode="&#x62b;" vert-adv-y="1433" arabic-form="final" 
 />
    <glyph glyph-name="uniFE9B" unicode="&#x62b;" vert-adv-y="1433" arabic-form="initial" 
 />
    <glyph glyph-name="uniFE9C" unicode="&#x62b;" vert-adv-y="1433" arabic-form="medial" 
 />
    <glyph glyph-name="uniFE9D" unicode="&#x62c;" vert-adv-y="1433" arabic-form="isolated" 
 />
    <glyph glyph-name="uniFE9E" unicode="&#x62c;" vert-adv-y="1433" arabic-form="final" 
 />
    <glyph glyph-name="uniFE9F" unicode="&#x62c;" vert-adv-y="1433" arabic-form="initial" 
 />
    <glyph glyph-name="uniFEA0" unicode="&#x62c;" vert-adv-y="1433" arabic-form="medial" 
 />
    <glyph glyph-name="uniFEA1" unicode="&#x62d;" vert-adv-y="1433" arabic-form="isolated" 
 />
    <glyph glyph-name="uniFEA2" unicode="&#x62d;" vert-adv-y="1433" arabic-form="final" 
 />
    <glyph glyph-name="uniFEA3" unicode="&#x62d;" vert-adv-y="1433" arabic-form="initial" 
 />
    <glyph glyph-name="uniFEA4" unicode="&#x62d;" vert-adv-y="1433" arabic-form="medial" 
 />
    <glyph glyph-name="uniFEA5" unicode="&#x62e;" vert-adv-y="1433" arabic-form="isolated" 
 />
    <glyph glyph-name="uniFEA6" unicode="&#x62e;" vert-adv-y="1433" arabic-form="final" 
 />
    <glyph glyph-name="uniFEA7" unicode="&#x62e;" vert-adv-y="1433" arabic-form="initial" 
 />
    <glyph glyph-name="uniFEA8" unicode="&#x62e;" vert-adv-y="1433" arabic-form="medial" 
 />
    <glyph glyph-name="uniFEA9" unicode="&#x62f;" vert-adv-y="1433" arabic-form="isolated" 
 />
    <glyph glyph-name="uniFEAA" unicode="&#x62f;" vert-adv-y="1433" arabic-form="final" 
 />
    <glyph glyph-name="uniFEAB" unicode="&#x630;" vert-adv-y="1433" arabic-form="isolated" 
 />
    <glyph glyph-name="uniFEAC" unicode="&#x630;" vert-adv-y="1433" arabic-form="final" 
 />
    <glyph glyph-name="uniFEAD" unicode="&#x631;" vert-adv-y="1433" arabic-form="isolated" 
 />
    <glyph glyph-name="uniFEAE" unicode="&#x631;" vert-adv-y="1433" arabic-form="final" 
 />
    <glyph glyph-name="uniFEAF" unicode="&#x632;" vert-adv-y="1433" arabic-form="isolated" 
 />
    <glyph glyph-name="uniFEB0" unicode="&#x632;" vert-adv-y="1433" arabic-form="final" 
 />
    <glyph glyph-name="uniFEB1" unicode="&#x633;" vert-adv-y="1433" arabic-form="isolated" 
 />
    <glyph glyph-name="uniFEB2" unicode="&#x633;" vert-adv-y="1433" arabic-form="final" 
 />
    <glyph glyph-name="uniFEB3" unicode="&#x633;" vert-adv-y="1433" arabic-form="initial" 
 />
    <glyph glyph-name="uniFEB4" unicode="&#x633;" vert-adv-y="1433" arabic-form="medial" 
 />
    <glyph glyph-name="uniFEB5" unicode="&#x634;" vert-adv-y="1433" arabic-form="isolated" 
 />
    <glyph glyph-name="uniFEB6" unicode="&#x634;" vert-adv-y="1433" arabic-form="final" 
 />
    <glyph glyph-name="uniFEB7" unicode="&#x634;" vert-adv-y="1433" arabic-form="initial" 
 />
    <glyph glyph-name="uniFEB8" unicode="&#x634;" vert-adv-y="1433" arabic-form="medial" 
 />
    <glyph glyph-name="uniFEB9" unicode="&#x635;" vert-adv-y="1433" arabic-form="isolated" 
 />
    <glyph glyph-name="uniFEBA" unicode="&#x635;" vert-adv-y="1433" arabic-form="final" 
 />
    <glyph glyph-name="uniFEBB" unicode="&#x635;" vert-adv-y="1433" arabic-form="initial" 
 />
    <glyph glyph-name="uniFEBC" unicode="&#x635;" vert-adv-y="1433" arabic-form="medial" 
 />
    <glyph glyph-name="uniFEBD" unicode="&#x636;" vert-adv-y="1433" arabic-form="isolated" 
 />
    <glyph glyph-name="uniFEBE" unicode="&#x636;" vert-adv-y="1433" arabic-form="final" 
 />
    <glyph glyph-name="uniFEBF" unicode="&#x636;" vert-adv-y="1433" arabic-form="initial" 
 />
    <glyph glyph-name="uniFEC0" unicode="&#x636;" vert-adv-y="1433" arabic-form="medial" 
 />
    <glyph glyph-name="uniFEC1" unicode="&#x637;" vert-adv-y="1433" arabic-form="isolated" 
 />
    <glyph glyph-name="uniFEC2" unicode="&#x637;" vert-adv-y="1433" arabic-form="final" 
 />
    <glyph glyph-name="uniFEC3" unicode="&#x637;" vert-adv-y="1433" arabic-form="initial" 
 />
    <glyph glyph-name="uniFEC4" unicode="&#x637;" vert-adv-y="1433" arabic-form="medial" 
 />
    <glyph glyph-name="uniFEC5" unicode="&#x638;" vert-adv-y="1433" arabic-form="isolated" 
 />
    <glyph glyph-name="uniFEC6" unicode="&#x638;" vert-adv-y="1433" arabic-form="final" 
 />
    <glyph glyph-name="uniFEC7" unicode="&#x638;" vert-adv-y="1433" arabic-form="initial" 
 />
    <glyph glyph-name="uniFEC8" unicode="&#x638;" vert-adv-y="1433" arabic-form="medial" 
 />
    <glyph glyph-name="uniFEC9" unicode="&#x639;" vert-adv-y="1433" arabic-form="isolated" 
 />
    <glyph glyph-name="uniFECA" unicode="&#x639;" vert-adv-y="1433" arabic-form="final" 
 />
    <glyph glyph-name="uniFECB" unicode="&#x639;" vert-adv-y="1433" arabic-form="initial" 
 />
    <glyph glyph-name="uniFECC" unicode="&#x639;" vert-adv-y="1433" arabic-form="medial" 
 />
    <glyph glyph-name="uniFECD" unicode="&#x63a;" vert-adv-y="1433" arabic-form="isolated" 
 />
    <glyph glyph-name="uniFECE" unicode="&#x63a;" vert-adv-y="1433" arabic-form="final" 
 />
    <glyph glyph-name="uniFECF" unicode="&#x63a;" vert-adv-y="1433" arabic-form="initial" 
 />
    <glyph glyph-name="uniFED0" unicode="&#x63a;" vert-adv-y="1433" arabic-form="medial" 
 />
    <glyph glyph-name="uniFED1" unicode="&#x641;" vert-adv-y="1433" arabic-form="isolated" 
 />
    <glyph glyph-name="uniFED2" unicode="&#x641;" vert-adv-y="1433" arabic-form="final" 
 />
    <glyph glyph-name="uniFED3" unicode="&#x641;" vert-adv-y="1433" arabic-form="initial" 
 />
    <glyph glyph-name="uniFED4" unicode="&#x641;" vert-adv-y="1433" arabic-form="medial" 
 />
    <glyph glyph-name="uniFED5" unicode="&#x642;" vert-adv-y="1433" arabic-form="isolated" 
 />
    <glyph glyph-name="uniFED6" unicode="&#x642;" vert-adv-y="1433" arabic-form="final" 
 />
    <glyph glyph-name="uniFED7" unicode="&#x642;" vert-adv-y="1433" arabic-form="initial" 
 />
    <glyph glyph-name="uniFED8" unicode="&#x642;" vert-adv-y="1433" arabic-form="medial" 
 />
    <glyph glyph-name="uniFED9" unicode="&#x643;" vert-adv-y="1433" arabic-form="isolated" 
 />
    <glyph glyph-name="uniFEDA" unicode="&#x643;" vert-adv-y="1433" arabic-form="final" 
 />
    <glyph glyph-name="uniFEDB" unicode="&#x643;" vert-adv-y="1433" arabic-form="initial" 
 />
    <glyph glyph-name="uniFEDC" unicode="&#x643;" vert-adv-y="1433" arabic-form="medial" 
 />
    <glyph glyph-name="uniFEDD" unicode="&#x644;" vert-adv-y="1433" arabic-form="isolated" 
 />
    <glyph glyph-name="uniFEDE" unicode="&#x644;" vert-adv-y="1433" arabic-form="final" 
 />
    <glyph glyph-name="uniFEDF" unicode="&#x644;" vert-adv-y="1433" arabic-form="initial" 
 />
    <glyph glyph-name="uniFEE0" unicode="&#x644;" vert-adv-y="1433" arabic-form="medial" 
 />
    <glyph glyph-name="uniFEE1" unicode="&#x645;" vert-adv-y="1433" arabic-form="isolated" 
 />
    <glyph glyph-name="uniFEE2" unicode="&#x645;" vert-adv-y="1433" arabic-form="final" 
 />
    <glyph glyph-name="uniFEE3" unicode="&#x645;" vert-adv-y="1433" arabic-form="initial" 
 />
    <glyph glyph-name="uniFEE4" unicode="&#x645;" vert-adv-y="1433" arabic-form="medial" 
 />
    <glyph glyph-name="uniFEE5" unicode="&#x646;" vert-adv-y="1433" arabic-form="isolated" 
 />
    <glyph glyph-name="uniFEE6" unicode="&#x646;" vert-adv-y="1433" arabic-form="final" 
 />
    <glyph glyph-name="uniFEE7" unicode="&#x646;" vert-adv-y="1433" arabic-form="initial" 
 />
    <glyph glyph-name="uniFEE8" unicode="&#x646;" vert-adv-y="1433" arabic-form="medial" 
 />
    <glyph glyph-name="uniFEE9" unicode="&#x647;" vert-adv-y="1433" arabic-form="isolated" 
 />
    <glyph glyph-name="uniFEEA" unicode="&#x647;" vert-adv-y="1433" arabic-form="final" 
 />
    <glyph glyph-name="uniFEEB" unicode="&#x647;" vert-adv-y="1433" arabic-form="initial" 
 />
    <glyph glyph-name="uniFEEC" unicode="&#x647;" vert-adv-y="1433" arabic-form="medial" 
 />
    <glyph glyph-name="uniFEED" unicode="&#x648;" vert-adv-y="1433" arabic-form="isolated" 
 />
    <glyph glyph-name="uniFEEE" unicode="&#x648;" vert-adv-y="1433" arabic-form="final" 
 />
    <glyph glyph-name="uniFEEF" unicode="&#x649;" vert-adv-y="1433" arabic-form="isolated" 
 />
    <glyph glyph-name="uniFEF0" unicode="&#x649;" vert-adv-y="1433" arabic-form="final" 
 />
    <glyph glyph-name="uniFEF1" unicode="&#x64a;" vert-adv-y="1433" arabic-form="isolated" 
 />
    <glyph glyph-name="uniFEF2" unicode="&#x64a;" vert-adv-y="1433" arabic-form="final" 
 />
    <glyph glyph-name="uniFEF3" unicode="&#x64a;" vert-adv-y="1433" arabic-form="initial" 
 />
    <glyph glyph-name="uniFEF4" unicode="&#x64a;" vert-adv-y="1433" arabic-form="medial" 
 />
    <glyph glyph-name="uniFE77" unicode="&#xfe77;" vert-adv-y="1433" arabic-form="medial" 
 />
    <glyph glyph-name="uniFE79" unicode="&#xfe79;" vert-adv-y="1433" arabic-form="medial" 
 />
    <glyph glyph-name="space" unicode="&#xfe71;" vert-adv-y="1433" arabic-form="medial" 
 />
    <glyph glyph-name=".notdef" vert-adv-y="1433" 
d="M52 0v1544h414v-1544h-414zM414 52v1440h-310v-1440h310z" />
    <glyph glyph-name="glyph1" horiz-adv-x="0" vert-adv-y="0" 
 />
    <glyph glyph-name="glyph2" vert-adv-y="1433" 
 />
    <glyph glyph-name="space" unicode=" " vert-adv-y="1433" 
 />
    <glyph glyph-name="exclam" unicode="!" horiz-adv-x="555" vert-adv-y="1433" 
d="M188 0v250h179v-250h-179zM219 512l-26 748v284h169v-284l-26 -748h-117z" />
    <glyph glyph-name="quotedbl" unicode="&#x22;" horiz-adv-x="829" vert-adv-y="1433" 
d="M186 952l-36 428v164h169v-164l-34 -428h-99zM547 952l-37 428v164h170v-164l-35 -428h-98z" />
    <glyph glyph-name="numbersign" unicode="#" horiz-adv-x="1446" vert-adv-y="1433" 
d="M272 0l90 389h-219v117h246l105 450h-218v117h244l90 387h115l-90 -387h336l90 387h115l-91 -387h215v-117h-241l-105 -450h213v-117h-239l-90 -389h-115l90 389h-336l-90 -389h-115zM504 506h336l104 450h-336z" />
    <glyph glyph-name="dollar" unicode="$" horiz-adv-x="1339" vert-adv-y="1433" 
d="M610 -190v155q-239 13 -371 135q-109 102 -159 308l135 32q42 -159 110 -235q99 -109 285 -123v647l-94 19q-401 82 -401 411q0 208 161 324q124 88 334 98v121h115v-125q217 -19 333 -127q94 -88 142 -254l-127 -45q-57 163 -143 233q-76 62 -205 80v-620l121 -25
q196 -41 288 -145q93 -104 93 -275q0 -212 -151 -325q-127 -94 -351 -109v-155h-115zM725 82q354 29 354 302q0 135 -80 211q-68 65 -217 99l-57 13v-625zM610 866v602q-160 -8 -251 -76q-105 -78 -105 -222q0 -117 74 -191q71 -71 227 -102z" />
    <glyph glyph-name="percent" unicode="%" horiz-adv-x="1956" vert-adv-y="1433" 
d="M563 -37l703 1534h123l-703 -1534h-123zM1529 883q345 0 345 -459q0 -461 -340 -461q-150 0 -231 80q-113 113 -113 379q0 461 339 461zM1530 782q-221 0 -221 -358q0 -361 219 -361q227 0 227 366q0 353 -225 353zM421 1497q345 0 345 -459q0 -460 -340 -460
q-150 0 -231 79q-113 112 -113 378q0 462 339 462zM422 1397q-221 0 -221 -359q0 -360 219 -360q227 0 227 363q0 356 -225 356z" />
    <glyph glyph-name="ampersand" unicode="&#x26;" horiz-adv-x="1401" vert-adv-y="1433" 
d="M457 895q-73 82 -107 133q-65 98 -65 206q0 164 123 254q101 73 268 73q117 0 210 -49q161 -84 161 -266q0 -161 -151 -270q-86 -61 -237 -120l418 -489q107 139 205 325l107 -55q-100 -203 -234 -365l236 -272h-183l-147 174q-90 -81 -179 -131q-141 -80 -303 -80
q-189 0 -324 102q-167 127 -167 342q0 177 103 301q89 107 266 187zM987 262l-457 545q-155 -71 -230 -161q-81 -98 -81 -235q0 -144 104 -240q103 -95 257 -95q118 0 217 47q93 44 190 139zM584 940q156 58 238 120q100 78 100 186q0 104 -90 166q-70 48 -166 48
q-111 0 -181 -62q-67 -60 -67 -159q0 -65 35 -127q31 -54 98 -133z" />
    <glyph glyph-name="quotesingle" unicode="'" horiz-adv-x="465" vert-adv-y="1433" 
d="M184 952l-37 428v164h170v-164l-34 -428h-99z" />
    <glyph glyph-name="parenleft" unicode="(" horiz-adv-x="551" vert-adv-y="1433" 
d="M395 -387q-313 411 -313 965q0 553 313 964l103 -55q-267 -415 -267 -912q0 -229 70 -476q64 -223 197 -431z" />
    <glyph glyph-name="parenright" unicode=")" horiz-adv-x="551" vert-adv-y="1433" 
d="M156 -387l-103 55q266 422 266 918q0 481 -266 901l103 55q313 -412 313 -962q0 -555 -313 -967z" />
    <glyph glyph-name="asterisk" unicode="*" horiz-adv-x="985" vert-adv-y="1433" 
d="M430 741l8 310l-266 -160l-57 100l266 152l-266 151l57 101l266 -160l-8 309h125l-8 -309l266 160l57 -101l-266 -151l266 -152l-57 -100l-266 160l8 -310h-125z" />
    <glyph glyph-name="plus" unicode="+" horiz-adv-x="1194" vert-adv-y="1433" 
d="M537 178v498h-486v110h486v498h118v-498h486v-110h-486v-498h-118z" />
    <glyph glyph-name="comma" unicode="," horiz-adv-x="465" vert-adv-y="1433" 
d="M154 -369l-66 64q133 142 133 280v25h-78v250h179v-240q0 -207 -168 -379z" />
    <glyph glyph-name="hyphen" unicode="-" horiz-adv-x="782" vert-adv-y="1433" 
d="M123 469v143h536v-143h-536z" />
    <glyph glyph-name="period" unicode="." horiz-adv-x="465" vert-adv-y="1433" 
d="M143 0v250h179v-250h-179z" />
    <glyph glyph-name="slash" unicode="/" horiz-adv-x="481" vert-adv-y="1433" 
d="M0 0l362 1544h119l-362 -1544h-119z" />
    <glyph glyph-name="zero" unicode="0" horiz-adv-x="1194" vert-adv-y="1433" 
d="M596 1544q516 0 516 -790q0 -791 -514 -791q-516 0 -516 791q0 790 514 790zM596 1425q-369 0 -369 -671q0 -672 367 -672q183 0 279 163q94 159 94 518q0 662 -371 662z" />
    <glyph glyph-name="one" unicode="1" horiz-adv-x="1194" vert-adv-y="1433" 
d="M641 0v1354q-180 -138 -352 -238l-57 98q229 140 401 293h139v-1507h-131z" />
    <glyph glyph-name="two" unicode="2" horiz-adv-x="1194" vert-adv-y="1433" 
d="M105 0v63q0 216 214 407q77 68 228 168q196 129 263 199q117 124 117 283q0 142 -87 223q-90 84 -242 84q-170 0 -264 -113q-58 -70 -96 -208l-129 29q109 409 497 409q234 0 361 -135q105 -112 105 -295q0 -205 -157 -358q-73 -71 -212 -164q-199 -133 -266 -189
q-163 -136 -180 -278h831v-125h-983z" />
    <glyph glyph-name="three" unicode="3" horiz-adv-x="1194" vert-adv-y="1433" 
d="M91 387l135 21q17 -149 84 -227q88 -101 268 -101q164 0 260 69q113 81 113 240q0 205 -165 280q-93 42 -253 44v123q161 7 268 78q121 80 121 239q0 137 -85 209q-81 70 -239 70q-201 0 -287 -142q-37 -60 -56 -153l-131 20q70 387 485 387q233 0 354 -115
q103 -98 103 -268q0 -180 -122 -282q-69 -58 -181 -99q169 -23 257 -131q76 -92 76 -249q0 -190 -116 -306q-131 -131 -395 -131q-237 0 -361 116q-109 101 -133 308z" />
    <glyph glyph-name="four" unicode="4" horiz-adv-x="1194" vert-adv-y="1433" 
d="M784 0v338h-700v117l702 1052h131v-1052h172v-117h-170v-338h-135zM225 455h557v854z" />
    <glyph glyph-name="five" unicode="5" horiz-adv-x="1194" vert-adv-y="1433" 
d="M130 289l131 35q30 -106 86 -160q88 -86 240 -86q200 0 289 141q63 100 63 278q0 162 -78 270q-84 116 -261 116q-111 0 -195 -45q-58 -32 -115 -103l-121 17l123 755h744v-123h-646l-77 -487q73 53 132 74q83 30 189 30q174 0 294 -101q157 -131 157 -401
q0 -248 -129 -391q-131 -145 -366 -145q-372 0 -460 326z" />
    <glyph glyph-name="six" unicode="6" horiz-adv-x="1194" vert-adv-y="1433" 
d="M1062 1284l-120 -55q-89 201 -309 201q-227 0 -325 -234q-66 -156 -81 -455q56 108 160 169t242 61q181 0 302 -96q160 -129 160 -405q0 -212 -115 -348q-136 -159 -385 -159q-277 0 -401 202q-109 177 -109 535q0 417 150 637q140 207 407 207q316 0 424 -260zM610 852
q-175 0 -274 -120q-87 -107 -87 -276q0 -162 84 -266q93 -116 254 -116q151 0 246 89q113 107 113 309q0 181 -87 279q-89 101 -249 101z" />
    <glyph glyph-name="seven" unicode="7" horiz-adv-x="1194" vert-adv-y="1433" 
d="M340 0q96 448 243 770q129 284 368 612h-809v125h948v-141q-240 -334 -360 -597q-144 -313 -238 -769h-152z" />
    <glyph glyph-name="eight" unicode="8" horiz-adv-x="1194" vert-adv-y="1433" 
d="M332 782q-100 52 -150 120q-71 96 -71 235q0 202 146 313q126 94 347 94q166 0 286 -67q191 -107 191 -346q0 -235 -221 -349q275 -109 275 -387q0 -190 -132 -306q-144 -126 -405 -126q-241 0 -383 105q-158 117 -158 332q0 276 275 382zM591 723q-194 0 -297 -94
q-93 -84 -93 -230q0 -147 92 -231q103 -94 299 -94q185 0 288 78q111 85 111 248q0 161 -115 248q-99 75 -285 75zM596 1438q-174 0 -265 -89q-81 -79 -81 -215q0 -137 80 -216q92 -89 265 -89q159 0 250 74q97 79 97 232q0 136 -81 214q-91 89 -265 89z" />
    <glyph glyph-name="nine" unicode="9" horiz-adv-x="1194" vert-adv-y="1433" 
d="M141 201l116 59q81 -178 311 -178q229 0 326 231q67 160 76 453q-54 -104 -149 -163q-109 -66 -251 -66q-242 0 -366 159q-98 126 -98 337q0 232 133 372q131 139 368 139q309 0 428 -259q81 -175 81 -476q0 -419 -147 -638q-139 -208 -401 -208q-319 0 -427 238z
M602 1434q-163 0 -258 -109q-93 -107 -93 -290q0 -179 86 -279q87 -101 243 -101q170 0 271 112q95 106 95 292q0 183 -111 289q-89 86 -233 86z" />
    <glyph glyph-name="colon" unicode=":" horiz-adv-x="465" vert-adv-y="1433" 
d="M143 0v250h179v-250h-179zM143 831v250h179v-250h-179z" />
    <glyph glyph-name="semicolon" unicode=";" horiz-adv-x="465" vert-adv-y="1433" 
d="M154 -369l-66 64q133 142 133 280v25h-78v250h179v-240q0 -207 -168 -379zM143 831v250h179v-250h-179z" />
    <glyph glyph-name="less" unicode="&#x3c;" horiz-adv-x="1194" vert-adv-y="1433" 
d="M1141 178l-1090 496v114l1090 496v-123l-944 -430l944 -430v-123z" />
    <glyph glyph-name="equal" unicode="=" horiz-adv-x="1194" vert-adv-y="1433" 
d="M51 434v115h1090v-115h-1090zM51 913v115h1090v-115h-1090z" />
    <glyph glyph-name="greater" unicode="&#x3e;" horiz-adv-x="1194" vert-adv-y="1433" 
d="M51 178v123l944 430l-944 430v123l1090 -496v-114z" />
    <glyph glyph-name="question" unicode="?" horiz-adv-x="1049" vert-adv-y="1433" 
d="M379 0v250h178v-250h-178zM401 506v153q0 87 50 138q26 27 77 60l29 19q133 88 172 130q78 86 78 200q0 262 -296 262q-163 0 -247 -100q-46 -54 -76 -158l-127 21q86 350 471 350q148 0 253 -62q161 -95 161 -304q0 -181 -158 -322q-58 -53 -143 -106q-65 -41 -83 -67
q-27 -38 -27 -102v-112h-134z" />
    <glyph glyph-name="at" unicode="@" horiz-adv-x="1882" vert-adv-y="1433" 
d="M1100 475q-53 -64 -112 -96q-83 -47 -205 -47q-154 0 -238 92q-80 86 -80 239q0 135 59 267q64 143 177 227q119 88 266 88q120 0 189 -56q43 -36 75 -93l24 118h129l-131 -587q-20 -89 -20 -112q0 -73 102 -73q123 0 209 86q119 119 119 336q0 307 -279 497
q-184 126 -445 126q-302 0 -507 -195q-213 -202 -213 -527q0 -388 284 -585q176 -123 482 -123q203 0 363 66l41 -105q-163 -71 -406 -71q-259 0 -425 73q-217 95 -339 294q-121 197 -121 456q0 300 190 530q244 297 662 297q326 0 556 -183q148 -118 225 -288
q53 -118 53 -265q0 -258 -148 -402q-130 -127 -324 -127q-118 0 -168 49q-34 33 -44 94zM966 1137q-173 0 -279 -182q-81 -139 -81 -302q0 -211 203 -211q188 0 288 173q39 68 65 168q16 61 16 110q0 126 -63 190q-52 54 -149 54z" />
    <glyph glyph-name="A" unicode="A" horiz-adv-x="1358" vert-adv-y="1433" 
d="M0 0l588 1544h184l586 -1544h-156l-153 412h-756l-156 -412h-137zM340 535h661l-327 878z" />
    <glyph glyph-name="B" unicode="B" horiz-adv-x="1386" vert-adv-y="1433" 
d="M154 0v1544h591q474 0 474 -369q0 -150 -76 -240q-44 -52 -121 -95q125 -40 190 -109q93 -100 93 -284q0 -447 -562 -447h-589zM297 125h426q202 0 305 68q121 81 121 257q0 181 -126 258q-90 56 -265 56h-461v-639zM297 889h405q363 0 363 266q0 150 -92 210
q-81 54 -250 54h-426v-530z" />
    <glyph glyph-name="C" unicode="C" horiz-adv-x="1464" vert-adv-y="1433" 
d="M1368 1128l-143 -38q-42 153 -120 238q-117 128 -329 128q-266 0 -403 -211q-119 -182 -119 -491q0 -297 126 -473q138 -191 389 -191q246 0 375 171q76 101 103 261l148 -22q-113 -537 -631 -537q-270 0 -442 162q-224 211 -224 633q0 388 182 607q180 216 494 216
q257 0 411 -128q137 -115 183 -325z" />
    <glyph glyph-name="D" unicode="D" horiz-adv-x="1462" vert-adv-y="1433" 
d="M154 0v1544h464q746 0 746 -760q0 -394 -190 -589q-189 -195 -556 -195h-464zM297 129h332q304 0 452 187q129 162 129 462q0 637 -581 637h-332v-1286z" />
    <glyph glyph-name="E" unicode="E" horiz-adv-x="1305" vert-adv-y="1433" 
d="M154 0v1544h1036v-129h-893v-563h848v-129h-848v-594h926v-129h-1069z" />
    <glyph glyph-name="F" unicode="F" horiz-adv-x="1247" vert-adv-y="1433" 
d="M154 0v1544h1040v-129h-897v-549h809v-129h-809v-737h-143z" />
    <glyph glyph-name="G" unicode="G" horiz-adv-x="1481" vert-adv-y="1433" 
d="M1362 1159l-143 -39q-53 170 -161 255q-104 81 -287 81q-261 0 -398 -211q-119 -182 -119 -492q0 -302 124 -474q135 -189 384 -189q194 0 322 94q139 103 139 273v170h-250v127h393v-754h-92l-41 164q-187 -201 -473 -201q-270 0 -441 162q-221 210 -221 632
q0 389 182 608q180 216 495 216q253 0 408 -125q129 -105 179 -297z" />
    <glyph glyph-name="H" unicode="H" horiz-adv-x="1487" vert-adv-y="1433" 
d="M154 0v1544h143v-659h893v659h143v-1544h-143v756h-893v-756h-143z" />
    <glyph glyph-name="I" unicode="I" horiz-adv-x="451" vert-adv-y="1433" 
d="M154 0v1544h143v-1544h-143z" />
    <glyph glyph-name="J" unicode="J" horiz-adv-x="1143" vert-adv-y="1433" 
d="M61 430l140 19q14 -156 78 -244q85 -117 245 -117q332 0 332 373v1083h143v-1073q0 -261 -134 -392q-119 -116 -330 -116q-228 0 -355 149q-98 116 -119 318z" />
    <glyph glyph-name="K" unicode="K" horiz-adv-x="1360" vert-adv-y="1433" 
d="M154 0v1544h143v-770l795 770h174l-607 -598l701 -946h-184l-619 844l-260 -250v-594h-143z" />
    <glyph glyph-name="L" unicode="L" horiz-adv-x="1190" vert-adv-y="1433" 
d="M154 0v1544h143v-1415h852v-129h-995z" />
    <glyph glyph-name="M" unicode="M" horiz-adv-x="1817" vert-adv-y="1433" 
d="M154 0v1544h249l496 -1390l531 1390h233v-1544h-139v1421l-541 -1421h-182l-508 1436v-1436h-139z" />
    <glyph glyph-name="N" unicode="N" horiz-adv-x="1473" vert-adv-y="1433" 
d="M154 0v1544h190l832 -1360v1360h143v-1544h-189l-833 1362v-1362h-143z" />
    <glyph glyph-name="O" unicode="O" horiz-adv-x="1608" vert-adv-y="1433" 
d="M803 1581q329 0 515 -211q191 -216 191 -598q0 -381 -191 -597q-187 -212 -510 -212q-298 0 -482 173q-228 216 -228 636q0 383 190 598q188 211 515 211zM803 1454q-260 0 -410 -200q-139 -184 -139 -482q0 -297 139 -483q150 -199 406 -199q239 0 386 164
q169 188 169 518q0 299 -140 482q-151 200 -411 200z" />
    <glyph glyph-name="P" unicode="P" horiz-adv-x="1305" vert-adv-y="1433" 
d="M154 0v1544h622q223 0 347 -123q120 -119 120 -333q0 -213 -134 -336q-137 -125 -374 -125h-438v-627h-143zM297 750h451q171 0 264 104q80 89 80 239q0 177 -118 264q-84 62 -220 62h-457v-669z" />
    <glyph glyph-name="Q" unicode="Q" horiz-adv-x="1608" vert-adv-y="1433" 
d="M1272 -236l-162 259q-145 -60 -306 -60q-328 0 -516 212q-190 216 -190 597q0 382 190 598q187 211 515 211q329 0 515 -211q191 -216 191 -598q0 -466 -284 -682l159 -254zM1036 141l-184 295l113 72l182 -293q207 194 207 556q0 299 -140 483q-150 200 -411 200
q-260 0 -410 -200q-139 -185 -139 -482t139 -483q150 -199 407 -199q125 0 236 51z" />
    <glyph glyph-name="R" unicode="R" horiz-adv-x="1382" vert-adv-y="1433" 
d="M154 0v1544h626q242 0 367 -117q121 -113 121 -321q0 -159 -89 -281q-72 -100 -202 -147l336 -678h-168l-309 651q-16 -2 -27 -2h-15h-16h-481v-649h-143zM297 774h467q184 0 274 95q78 84 78 236q0 177 -117 256q-87 58 -235 58h-467v-645z" />
    <glyph glyph-name="S" unicode="S" horiz-adv-x="1339" vert-adv-y="1433" 
d="M61 410l142 34q43 -153 105 -222q115 -130 352 -130q427 0 427 296q0 130 -78 203q-72 68 -223 97l-262 51q-418 82 -418 420q0 188 131 300q142 122 404 122q269 0 412 -117q112 -92 164 -272l-134 -43q-50 142 -126 209q-109 98 -316 98q-194 0 -295 -81
q-92 -73 -92 -208q0 -119 73 -188q73 -68 226 -98l299 -58q203 -39 297 -145q96 -107 96 -280q0 -197 -134 -308q-151 -127 -445 -127q-278 0 -428 128q-121 103 -177 319z" />
    <glyph glyph-name="T" unicode="T" horiz-adv-x="1368" vert-adv-y="1433" 
d="M612 0v1415h-561v129h1266v-129h-561v-1415h-144z" />
    <glyph glyph-name="U" unicode="U" horiz-adv-x="1440" vert-adv-y="1433" 
d="M143 1544h144v-952q0 -271 119 -393q105 -109 316 -109q209 0 314 109q117 122 117 393v952h143v-964q0 -617 -572 -617q-581 0 -581 617v964z" />
    <glyph glyph-name="V" unicode="V" horiz-adv-x="1276" vert-adv-y="1433" 
d="M547 0l-547 1544h152l491 -1415l490 1415h143l-553 -1544h-176z" />
    <glyph glyph-name="W" unicode="W" horiz-adv-x="1907" vert-adv-y="1433" 
d="M387 0l-387 1544h152l344 -1440l366 1440h172l359 -1429l364 1429h150l-408 -1544h-196l-355 1356l-366 -1356h-195z" />
    <glyph glyph-name="X" unicode="X" horiz-adv-x="1221" vert-adv-y="1433" 
d="M0 0l532 797l-495 747h164l411 -631l418 631h148l-492 -735l535 -809h-162l-455 692l-457 -692h-147z" />
    <glyph glyph-name="Y" unicode="Y" horiz-adv-x="1223" vert-adv-y="1433" 
d="M539 0v592l-539 952h158l458 -815l455 815h152l-541 -952v-592h-143z" />
    <glyph glyph-name="Z" unicode="Z" horiz-adv-x="1253" vert-adv-y="1433" 
d="M76 0v131l932 1284h-902v129h1061v-131l-931 -1284h948v-129h-1108z" />
    <glyph glyph-name="bracketleft" unicode="[" horiz-adv-x="604" vert-adv-y="1433" 
d="M154 -393v1937h383v-106h-242v-1725h242v-106h-383z" />
    <glyph glyph-name="backslash" unicode="\" horiz-adv-x="481" vert-adv-y="1433" 
d="M362 0l-362 1544h119l362 -1544h-119z" />
    <glyph glyph-name="bracketright" unicode="]" horiz-adv-x="604" vert-adv-y="1433" 
d="M68 -393v106h241v1725h-241v106h383v-1937h-383z" />
    <glyph glyph-name="asciicircum" unicode="^" horiz-adv-x="1188" vert-adv-y="1433" 
d="M123 797l414 747h114l414 -747h-131l-340 626l-340 -626h-131z" />
    <glyph glyph-name="underscore" unicode="_" horiz-adv-x="1024" vert-adv-y="1433" 
d="M0 -266v123h1024v-123h-1024z" />
    <glyph glyph-name="grave" unicode="`" horiz-adv-x="811" vert-adv-y="1433" 
d="M438 1272l-194 272h153l164 -272h-123z" />
    <glyph glyph-name="a" unicode="a" horiz-adv-x="1020" vert-adv-y="1433" 
d="M782 686v88q0 234 -262 234q-142 0 -215 -71q-50 -48 -82 -142l-117 30q89 293 422 293q203 0 301 -99q84 -85 84 -237v-598q0 -75 29 -184h-129q-1 2 -3 11q-1 3 -4 11q-15 39 -15 132q-91 -114 -184 -157q-71 -34 -205 -34q-140 0 -229 77q-99 86 -99 234
q0 177 115 269q84 68 247 92zM782 573l-350 -55q-223 -35 -223 -239q0 -104 63 -157q55 -46 152 -46q128 0 222 62q136 90 136 257v178z" />
    <glyph glyph-name="b" unicode="b" horiz-adv-x="1159" vert-adv-y="1433" 
d="M264 152v-152h-131v1544h131v-639q130 213 377 213q210 0 327 -160q109 -148 109 -405q0 -264 -112 -418q-124 -172 -359 -172q-118 0 -203 50q-74 43 -139 139zM613 1004q-178 0 -273 -151q-80 -126 -80 -325q0 -192 78 -311q90 -139 256 -139q149 0 234 89
q110 116 110 369q0 468 -325 468z" />
    <glyph glyph-name="c" unicode="c" horiz-adv-x="1047" vert-adv-y="1433" 
d="M981 793l-131 -39q-31 120 -85 176q-73 76 -210 76q-168 0 -256 -137q-78 -120 -78 -328q0 -212 75 -327q88 -136 262 -136q172 0 250 124q37 57 58 148l127 -37q-103 -350 -431 -350q-214 0 -339 136q-141 153 -141 442q0 259 116 411q125 166 362 166q341 0 421 -325z
" />
    <glyph glyph-name="d" unicode="d" horiz-adv-x="1159" vert-adv-y="1433" 
d="M895 926v618h131v-1544h-131v170q-129 -207 -375 -207q-191 0 -306 129q-132 147 -132 430q0 266 112 422q124 174 352 174q218 0 349 -192zM558 1004q-158 0 -245 -114q-92 -120 -92 -352q0 -460 326 -460q162 0 255 122q97 127 97 347q0 195 -78 315q-93 142 -263 142z
" />
    <glyph glyph-name="e" unicode="e" horiz-adv-x="1116" vert-adv-y="1433" 
d="M1040 518h-819q6 -183 72 -292q89 -148 272 -148q161 0 249 100q43 49 83 156l123 -45q-37 -114 -109 -190q-127 -136 -344 -136q-211 0 -339 134q-146 154 -146 440q0 254 124 411q133 170 371 170q230 0 355 -149q110 -133 110 -348v-21v-22v-14v-14q0 -18 -2 -32z
M223 621h682q-1 154 -63 250q-89 139 -268 139q-187 0 -283 -157q-59 -97 -68 -232z" />
    <glyph glyph-name="f" unicode="f" horiz-adv-x="592" vert-adv-y="1433" 
d="M205 0v973h-168v108h168v187q0 297 270 297q52 0 92 -6q6 -1 23 -3q12 -2 26 -4l-12 -112q-66 8 -104 8q-87 0 -125 -48q-39 -48 -39 -151v-168h256v-108h-256v-973h-131z" />
    <glyph glyph-name="g" unicode="g" horiz-adv-x="1159" vert-adv-y="1433" 
d="M119 -166l114 45q32 -90 94 -133q79 -55 234 -55q139 0 212 45q52 33 81 81q41 69 41 214v162q-130 -211 -379 -211q-210 0 -325 148q-109 140 -109 394q0 266 112 421q124 173 354 173q224 0 347 -190v153h131v-1034q0 -270 -129 -379q-108 -92 -335 -92
q-224 0 -343 103q-70 59 -100 155zM555 1004q-156 0 -242 -112q-92 -120 -92 -352q0 -444 327 -444q161 0 254 115q97 121 97 341q0 223 -102 346q-88 106 -242 106z" />
    <glyph glyph-name="h" unicode="h" horiz-adv-x="1130" vert-adv-y="1433" 
d="M133 0v1544h131v-647q62 103 129 152q93 69 243 69q171 0 268 -102q93 -98 93 -264v-752h-131v717q0 284 -261 284q-165 0 -261 -151q-80 -128 -80 -309v-541h-131z" />
    <glyph glyph-name="i" unicode="i" horiz-adv-x="418" vert-adv-y="1433" 
d="M143 0v1081h131v-1081h-131zM143 1335v209h131v-209h-131z" />
    <glyph glyph-name="j" unicode="j" horiz-adv-x="430" vert-adv-y="1433" 
d="M-117 -403l17 112q59 -14 117 -14q80 0 109 36q30 38 30 117v1233h131v-1269q0 -116 -60 -176q-59 -60 -168 -60h-15q-82 0 -161 21zM156 1337v207h131v-207h-131z" />
    <glyph glyph-name="k" unicode="k" horiz-adv-x="1001" vert-adv-y="1433" 
d="M133 0v1544h131v-932l502 469h168l-404 -379l465 -702h-161l-400 612l-170 -161v-451h-131z" />
    <glyph glyph-name="l" unicode="l" horiz-adv-x="418" vert-adv-y="1433" 
d="M143 0v1544h131v-1544h-131z" />
    <glyph glyph-name="m" unicode="m" horiz-adv-x="1751" vert-adv-y="1433" 
d="M133 0v1081h131v-188q61 106 118 152q91 73 232 73q230 0 308 -225q57 104 122 153q94 72 237 72t232 -80q105 -95 105 -276v-762h-131v721q0 280 -233 280q-165 0 -254 -177q-60 -118 -60 -283v-541h-131v717q0 284 -232 284q-148 0 -237 -148q-76 -126 -76 -312v-541
h-131z" />
    <glyph glyph-name="n" unicode="n" horiz-adv-x="1130" vert-adv-y="1433" 
d="M133 0v1081h131v-188q61 105 125 153q97 72 247 72q170 0 268 -102q93 -98 93 -264v-752h-131v717q0 284 -261 284q-165 0 -261 -151q-80 -128 -80 -309v-541h-131z" />
    <glyph glyph-name="o" unicode="o" horiz-adv-x="1139" vert-adv-y="1433" 
d="M569 1118q238 0 368 -164q120 -154 120 -413q0 -260 -120 -413q-130 -165 -364 -165q-219 0 -346 135q-145 154 -145 443q0 261 119 413q130 164 368 164zM570 1006q-196 0 -286 -161q-63 -113 -63 -308q0 -204 79 -325q91 -136 266 -136q170 0 264 125q88 116 88 344
q0 204 -81 324q-92 137 -267 137z" />
    <glyph glyph-name="p" unicode="p" horiz-adv-x="1159" vert-adv-y="1433" 
d="M133 -393v1474h131v-174q129 211 376 211q211 0 328 -158q109 -147 109 -403q0 -265 -112 -420q-124 -174 -355 -174q-219 0 -346 191v-547h-131zM609 1004q-176 0 -270 -149q-79 -127 -79 -325q0 -192 77 -312q90 -140 255 -140q147 0 234 90q112 116 112 370
q0 466 -329 466z" />
    <glyph glyph-name="q" unicode="q" horiz-adv-x="1159" vert-adv-y="1433" 
d="M895 -393v565q-70 -113 -170 -165q-85 -44 -208 -44q-209 0 -326 158q-109 147 -109 403q0 266 112 421q125 173 353 173q219 0 348 -190v153h131v-1474h-131zM554 1004q-155 0 -241 -112q-92 -120 -92 -352q0 -462 326 -462q162 0 255 122q97 128 97 351q0 225 -105 350
q-87 103 -240 103z" />
    <glyph glyph-name="r" unicode="r" horiz-adv-x="651" vert-adv-y="1433" 
d="M133 0v1081h131v-190q55 106 126 158q61 45 155 45q57 0 106 -13l-14 -114q-35 12 -90 12q-130 0 -200 -94q-83 -111 -83 -330v-555h-131z" />
    <glyph glyph-name="s" unicode="s" horiz-adv-x="989" vert-adv-y="1433" 
d="M47 297l121 31q34 -119 82 -171q78 -83 237 -83q132 0 208 51q75 52 75 149q0 84 -48 131q-45 44 -142 64l-191 39q-301 62 -301 303q0 142 113 228q104 79 280 79q330 0 414 -293l-117 -32q-39 119 -119 172q-68 45 -188 45q-131 0 -198 -57q-56 -48 -56 -136
q0 -79 48 -124q49 -45 163 -68l207 -41q270 -54 270 -308q0 -153 -122 -238q-107 -75 -291 -75q-208 0 -321 103q-81 73 -124 231z" />
    <glyph glyph-name="t" unicode="t" horiz-adv-x="639" vert-adv-y="1433" 
d="M205 973h-148v108h148v308h131v-308h235v-108h-235v-721q0 -87 33 -122q28 -30 102 -30q59 0 111 9l10 -117q-109 -12 -168 -12q-97 0 -148 41q-71 57 -71 196v756z" />
    <glyph glyph-name="u" unicode="u" horiz-adv-x="1130" vert-adv-y="1433" 
d="M133 1081h131v-716q0 -129 58 -202q67 -85 200 -85q167 0 263 153q81 128 81 308v542h131v-1081h-131v190q-60 -106 -126 -154q-98 -73 -250 -73q-130 0 -220 64q-137 97 -137 303v751z" />
    <glyph glyph-name="v" unicode="v" horiz-adv-x="954" vert-adv-y="1433" 
d="M377 0l-377 1081h137l342 -987l346 987h129l-381 -1081h-196z" />
    <glyph glyph-name="w" unicode="w" horiz-adv-x="1497" vert-adv-y="1433" 
d="M307 0l-307 1081h139l269 -997l262 997h166l262 -997l270 997h129l-307 -1081h-193l-247 954l-248 -954h-195z" />
    <glyph glyph-name="x" unicode="x" horiz-adv-x="866" vert-adv-y="1433" 
d="M0 0l360 557l-337 524h147l264 -415l266 415h138l-336 -516l364 -565h-147l-291 459l-295 -459h-133z" />
    <glyph glyph-name="y" unicode="y" horiz-adv-x="989" vert-adv-y="1433" 
d="M63 -399l25 110q68 -18 119 -18q77 0 121 43q32 32 59 100l66 170l-453 1075h141l377 -901l340 901h131l-489 -1296q-39 -102 -100 -154q-63 -55 -164 -55h-12q-80 0 -161 25z" />
    <glyph glyph-name="z" unicode="z" horiz-adv-x="922" vert-adv-y="1433" 
d="M61 0v106l631 867h-604v108h750v-106l-633 -866h655v-109h-799z" />
    <glyph glyph-name="braceleft" unicode="{" horiz-adv-x="895" vert-adv-y="1433" 
d="M147 522v107q89 15 127 37q78 45 78 157v492q0 142 80 196q51 33 156 33h160v-106h-125q-83 0 -113 -52q-21 -37 -21 -131v-462q0 -190 -165 -218q165 -25 165 -217v-462q0 -108 31 -145q31 -38 103 -38h125v-106h-160q-115 0 -170 44q-66 53 -66 185v492q0 126 -101 167
q-38 16 -104 27z" />
    <glyph glyph-name="bar" unicode="|" horiz-adv-x="481" vert-adv-y="1433" 
d="M215 0v1544h117v-1544h-117z" />
    <glyph glyph-name="braceright" unicode="}" horiz-adv-x="895" vert-adv-y="1433" 
d="M150 -393v106h124q89 0 116 59q18 38 18 124v462q0 191 165 217q-165 27 -165 218v462q0 108 -31 145q-32 38 -103 38h-124v106h159q131 0 185 -58q51 -55 51 -171v-492q0 -116 84 -160q37 -20 121 -34v-107q-102 -18 -142 -46q-63 -44 -63 -148v-492q0 -143 -80 -195
q-51 -34 -156 -34h-159z" />
    <glyph glyph-name="asciitilde" unicode="~" horiz-adv-x="1417" vert-adv-y="1433" 
d="M229 457l-106 24q33 197 103 294q75 104 208 104q137 0 268 -138l95 -100q75 -79 119 -98q24 -11 75 -11q102 0 151 121q27 67 46 189l106 -25q-28 -180 -87 -274q-78 -123 -218 -123q-155 0 -301 160l-61 67q-65 71 -97 92q-43 29 -100 29q-105 0 -156 -131
q-24 -63 -45 -180z" />
    <glyph glyph-name="Adieresis" unicode="&#xc4;" horiz-adv-x="1358" vert-adv-y="1433" 
d="M0 0l588 1544h184l586 -1544h-156l-153 412h-756l-156 -412h-137zM340 535h661l-327 878zM446 1688v209h137v-209h-137zM778 1688v209h137v-209h-137z" />
    <glyph glyph-name="Aring" unicode="&#xc5;" horiz-adv-x="1358" vert-adv-y="1433" 
d="M577 1516q-133 47 -133 201q0 111 70 168q60 49 169 49q129 0 190 -79q42 -54 42 -141q0 -108 -71 -165q-25 -21 -62 -33l576 -1516h-156l-153 412h-756l-156 -412h-137zM340 535h661l-327 878zM678 1856q-81 0 -122 -53q-26 -34 -26 -87q0 -69 49 -108q37 -30 99 -30
q69 0 113 40q38 36 38 101q0 64 -43 101q-42 36 -108 36z" />
    <glyph glyph-name="Ccedilla" unicode="&#xc7;" horiz-adv-x="1464" vert-adv-y="1433" 
d="M1368 1128l-143 -38q-42 153 -120 238q-117 128 -329 128q-266 0 -403 -211q-119 -182 -119 -491q0 -297 126 -473q138 -191 389 -191q246 0 375 171q76 101 103 261l148 -22q-113 -537 -631 -537q-270 0 -442 162q-224 211 -224 633q0 388 182 607q180 216 494 216
q257 0 411 -128q137 -115 183 -325zM498 -393l194 272h123l-164 -272h-153z" />
    <glyph glyph-name="Eacute" unicode="&#xc9;" horiz-adv-x="1305" vert-adv-y="1433" 
d="M154 0v1544h1036v-129h-893v-563h848v-129h-848v-594h926v-129h-1069zM580 1659l164 272h153l-194 -272h-123z" />
    <glyph glyph-name="Ntilde" unicode="&#xd1;" horiz-adv-x="1473" vert-adv-y="1433" 
d="M154 0v1544h190l832 -1360v1360h143v-1544h-189l-833 1362v-1362h-143zM489 1702l-100 24q48 181 193 181q71 0 163 -47l68 -35q64 -33 109 -33q66 0 96 100l100 -24q-24 -87 -76 -137q-47 -46 -115 -46q-67 0 -167 50l-64 32q-66 33 -103 33q-67 0 -104 -98z" />
    <glyph glyph-name="Odieresis" unicode="&#xd6;" horiz-adv-x="1608" vert-adv-y="1433" 
d="M803 1581q329 0 515 -211q191 -216 191 -598q0 -381 -191 -597q-187 -212 -510 -212q-298 0 -482 173q-228 216 -228 636q0 383 190 598q188 211 515 211zM803 1454q-260 0 -410 -200q-139 -184 -139 -482q0 -297 139 -483q150 -199 406 -199q239 0 386 164
q169 188 169 518q0 299 -140 482q-151 200 -411 200zM563 1688v209h137v-209h-137zM895 1688v209h137v-209h-137z" />
    <glyph glyph-name="Udieresis" unicode="&#xdc;" horiz-adv-x="1440" vert-adv-y="1433" 
d="M143 1544h144v-952q0 -271 119 -393q105 -109 316 -109q209 0 314 109q117 122 117 393v952h143v-964q0 -617 -572 -617q-581 0 -581 617v964zM483 1688v209h137v-209h-137zM815 1688v209h137v-209h-137z" />
    <glyph glyph-name="aacute" unicode="&#xe1;" horiz-adv-x="1020" vert-adv-y="1433" 
d="M782 686v88q0 234 -262 234q-142 0 -215 -71q-50 -48 -82 -142l-117 30q89 293 422 293q203 0 301 -99q84 -85 84 -237v-598q0 -75 29 -184h-129q-1 2 -3 11q-1 3 -4 11q-15 39 -15 132q-91 -114 -184 -157q-71 -34 -205 -34q-140 0 -229 77q-99 86 -99 234
q0 177 115 269q84 68 247 92zM782 573l-350 -55q-223 -35 -223 -239q0 -104 63 -157q55 -46 152 -46q128 0 222 62q136 90 136 257v178zM421 1272l164 272h153l-194 -272h-123z" />
    <glyph glyph-name="agrave" unicode="&#xe0;" horiz-adv-x="1020" vert-adv-y="1433" 
d="M782 686v88q0 234 -262 234q-142 0 -215 -71q-50 -48 -82 -142l-117 30q89 293 422 293q203 0 301 -99q84 -85 84 -237v-598q0 -75 29 -184h-129q-1 2 -3 11q-1 3 -4 11q-15 39 -15 132q-91 -114 -184 -157q-71 -34 -205 -34q-140 0 -229 77q-99 86 -99 234
q0 177 115 269q84 68 247 92zM782 573l-350 -55q-223 -35 -223 -239q0 -104 63 -157q55 -46 152 -46q128 0 222 62q136 90 136 257v178zM541 1272l-194 272h153l164 -272h-123z" />
    <glyph glyph-name="acircumflex" unicode="&#xe2;" horiz-adv-x="1020" vert-adv-y="1433" 
d="M782 686v88q0 234 -262 234q-142 0 -215 -71q-50 -48 -82 -142l-117 30q89 293 422 293q203 0 301 -99q84 -85 84 -237v-598q0 -75 29 -184h-129q-1 2 -3 11q-1 3 -4 11q-15 39 -15 132q-91 -114 -184 -157q-71 -34 -205 -34q-140 0 -229 77q-99 86 -99 234
q0 177 115 269q84 68 247 92zM782 573l-350 -55q-223 -35 -223 -239q0 -104 63 -157q55 -46 152 -46q128 0 222 62q136 90 136 257v178zM223 1272l238 272h143l238 -272h-133l-176 180l-177 -180h-133z" />
    <glyph glyph-name="adieresis" unicode="&#xe4;" horiz-adv-x="1020" vert-adv-y="1433" 
d="M782 686v88q0 234 -262 234q-142 0 -215 -71q-50 -48 -82 -142l-117 30q89 293 422 293q203 0 301 -99q84 -85 84 -237v-598q0 -75 29 -184h-129q-1 2 -3 11q-1 3 -4 11q-15 39 -15 132q-91 -114 -184 -157q-71 -34 -205 -34q-140 0 -229 77q-99 86 -99 234
q0 177 115 269q84 68 247 92zM782 573l-350 -55q-223 -35 -223 -239q0 -104 63 -157q55 -46 152 -46q128 0 222 62q136 90 136 257v178zM293 1303v209h137v-209h-137zM625 1303v209h137v-209h-137z" />
    <glyph glyph-name="atilde" unicode="&#xe3;" horiz-adv-x="1020" vert-adv-y="1433" 
d="M782 686v88q0 234 -262 234q-142 0 -215 -71q-50 -48 -82 -142l-117 30q89 293 422 293q203 0 301 -99q84 -85 84 -237v-598q0 -75 29 -184h-129q-1 2 -3 11q-1 3 -4 11q-15 39 -15 132q-91 -114 -184 -157q-71 -34 -205 -34q-140 0 -229 77q-99 86 -99 234
q0 177 115 269q84 68 247 92zM782 573l-350 -55q-223 -35 -223 -239q0 -104 63 -157q55 -46 152 -46q128 0 222 62q136 90 136 257v178zM256 1315l-100 24q47 181 194 181q71 0 162 -47l68 -35q64 -33 109 -33q65 0 96 100l100 -24q-23 -86 -76 -137q-48 -46 -115 -46
t-167 50l-64 32q-66 33 -104 33q-67 0 -103 -98z" />
    <glyph glyph-name="aring" unicode="&#xe5;" horiz-adv-x="1020" vert-adv-y="1433" 
d="M782 686v88q0 234 -262 234q-142 0 -215 -71q-50 -48 -82 -142l-117 30q89 293 422 293q203 0 301 -99q84 -85 84 -237v-598q0 -75 29 -184h-129q-1 2 -3 11q-1 3 -4 11q-15 39 -15 132q-91 -114 -184 -157q-71 -34 -205 -34q-140 0 -229 77q-99 86 -99 234
q0 177 115 269q84 68 247 92zM782 573l-350 -55q-223 -35 -223 -239q0 -104 63 -157q55 -46 152 -46q128 0 222 62q136 90 136 257v178zM532 1614q123 0 181 -75q40 -51 40 -134q0 -102 -68 -157q-57 -46 -154 -46q-103 0 -161 50q-65 54 -65 156q0 105 67 160q56 46 160 46
zM527 1536q-60 0 -101 -37q-35 -31 -35 -90q0 -65 45 -101q34 -28 93 -28q63 0 103 37q35 33 35 94q0 72 -57 104q-37 21 -83 21z" />
    <glyph glyph-name="ccedilla" unicode="&#xe7;" horiz-adv-x="1047" vert-adv-y="1433" 
d="M981 793l-131 -39q-31 120 -85 176q-73 76 -210 76q-168 0 -256 -137q-78 -120 -78 -328q0 -212 75 -327q88 -136 262 -136q172 0 250 124q37 57 58 148l127 -37q-103 -350 -431 -350q-214 0 -339 136q-141 153 -141 442q0 259 116 411q125 166 362 166q341 0 421 -325z
M318 -393l194 272h123l-164 -272h-153z" />
    <glyph glyph-name="eacute" unicode="&#xe9;" horiz-adv-x="1116" vert-adv-y="1433" 
d="M1040 518h-819q6 -183 72 -292q89 -148 272 -148q161 0 249 100q43 49 83 156l123 -45q-37 -114 -109 -190q-127 -136 -344 -136q-211 0 -339 134q-146 154 -146 440q0 254 124 411q133 170 371 170q230 0 355 -149q110 -133 110 -348v-21v-22v-14v-14q0 -18 -2 -32z
M223 621h682q-1 154 -63 250q-89 139 -268 139q-187 0 -283 -157q-59 -97 -68 -232zM467 1272l164 272h153l-194 -272h-123z" />
    <glyph glyph-name="egrave" unicode="&#xe8;" horiz-adv-x="1116" vert-adv-y="1433" 
d="M1040 518h-819q6 -183 72 -292q89 -148 272 -148q161 0 249 100q43 49 83 156l123 -45q-37 -114 -109 -190q-127 -136 -344 -136q-211 0 -339 134q-146 154 -146 440q0 254 124 411q133 170 371 170q230 0 355 -149q110 -133 110 -348v-21v-22v-14v-14q0 -18 -2 -32z
M223 621h682q-1 154 -63 250q-89 139 -268 139q-187 0 -283 -157q-59 -97 -68 -232zM578 1272l-194 272h153l164 -272h-123z" />
    <glyph glyph-name="ecircumflex" unicode="&#xea;" horiz-adv-x="1116" vert-adv-y="1433" 
d="M1040 518h-819q6 -183 72 -292q89 -148 272 -148q161 0 249 100q43 49 83 156l123 -45q-37 -114 -109 -190q-127 -136 -344 -136q-211 0 -339 134q-146 154 -146 440q0 254 124 411q133 170 371 170q230 0 355 -149q110 -133 110 -348v-21v-22v-14v-14q0 -18 -2 -32z
M223 621h682q-1 154 -63 250q-89 139 -268 139q-187 0 -283 -157q-59 -97 -68 -232zM273 1272l238 272h143l238 -272h-133l-176 180l-177 -180h-133z" />
    <glyph glyph-name="edieresis" unicode="&#xeb;" horiz-adv-x="1116" vert-adv-y="1433" 
d="M1040 518h-819q6 -183 72 -292q89 -148 272 -148q161 0 249 100q43 49 83 156l123 -45q-37 -114 -109 -190q-127 -136 -344 -136q-211 0 -339 134q-146 154 -146 440q0 254 124 411q133 170 371 170q230 0 355 -149q110 -133 110 -348v-21v-22v-14v-14q0 -18 -2 -32z
M223 621h682q-1 154 -63 250q-89 139 -268 139q-187 0 -283 -157q-59 -97 -68 -232zM347 1303v209h137v-209h-137zM679 1303v209h137v-209h-137z" />
    <glyph glyph-name="iacute" unicode="&#xed;" horiz-adv-x="418" vert-adv-y="1433" 
d="M143 0v1081h131v-1081h-131zM144 1272l164 272h153l-194 -272h-123z" />
    <glyph glyph-name="igrave" unicode="&#xec;" horiz-adv-x="418" vert-adv-y="1433" 
d="M143 0v1081h131v-1081h-131zM150 1272l-194 272h153l164 -272h-123z" />
    <glyph glyph-name="icircumflex" unicode="&#xee;" horiz-adv-x="418" vert-adv-y="1433" 
d="M143 0v1081h131v-1081h-131zM-101 1272l238 272h143l238 -272h-133l-176 180l-177 -180h-133z" />
    <glyph glyph-name="idieresis" unicode="&#xef;" horiz-adv-x="418" vert-adv-y="1433" 
d="M143 0v1081h131v-1081h-131zM-24 1303v209h137v-209h-137zM308 1303v209h137v-209h-137z" />
    <glyph glyph-name="ntilde" unicode="&#xf1;" horiz-adv-x="1130" vert-adv-y="1433" 
d="M133 0v1081h131v-188q61 105 125 153q97 72 247 72q170 0 268 -102q93 -98 93 -264v-752h-131v717q0 284 -261 284q-165 0 -261 -151q-80 -128 -80 -309v-541h-131zM305 1315l-100 24q47 181 194 181q71 0 162 -47l68 -35q64 -33 109 -33q65 0 96 100l100 -24
q-23 -86 -76 -137q-48 -46 -115 -46t-167 50l-64 32q-66 33 -104 33q-67 0 -103 -98z" />
    <glyph glyph-name="oacute" unicode="&#xf3;" horiz-adv-x="1139" vert-adv-y="1433" 
d="M569 1118q238 0 368 -164q120 -154 120 -413q0 -260 -120 -413q-130 -165 -364 -165q-219 0 -346 135q-145 154 -145 443q0 261 119 413q130 164 368 164zM570 1006q-196 0 -286 -161q-63 -113 -63 -308q0 -204 79 -325q91 -136 266 -136q170 0 264 125q88 116 88 344
q0 204 -81 324q-92 137 -267 137zM466 1272l164 272h153l-194 -272h-123z" />
    <glyph glyph-name="ograve" unicode="&#xf2;" horiz-adv-x="1139" vert-adv-y="1433" 
d="M569 1118q238 0 368 -164q120 -154 120 -413q0 -260 -120 -413q-130 -165 -364 -165q-219 0 -346 135q-145 154 -145 443q0 261 119 413q130 164 368 164zM570 1006q-196 0 -286 -161q-63 -113 -63 -308q0 -204 79 -325q91 -136 266 -136q170 0 264 125q88 116 88 344
q0 204 -81 324q-92 137 -267 137zM566 1272l-194 272h153l164 -272h-123z" />
    <glyph glyph-name="ocircumflex" unicode="&#xf4;" horiz-adv-x="1139" vert-adv-y="1433" 
d="M569 1118q238 0 368 -164q120 -154 120 -413q0 -260 -120 -413q-130 -165 -364 -165q-219 0 -346 135q-145 154 -145 443q0 261 119 413q130 164 368 164zM570 1006q-196 0 -286 -161q-63 -113 -63 -308q0 -204 79 -325q91 -136 266 -136q170 0 264 125q88 116 88 344
q0 204 -81 324q-92 137 -267 137zM260 1272l238 272h143l238 -272h-133l-176 180l-177 -180h-133z" />
    <glyph glyph-name="odieresis" unicode="&#xf6;" horiz-adv-x="1139" vert-adv-y="1433" 
d="M569 1118q238 0 368 -164q120 -154 120 -413q0 -260 -120 -413q-130 -165 -364 -165q-219 0 -346 135q-145 154 -145 443q0 261 119 413q130 164 368 164zM570 1006q-196 0 -286 -161q-63 -113 -63 -308q0 -204 79 -325q91 -136 266 -136q170 0 264 125q88 116 88 344
q0 204 -81 324q-92 137 -267 137zM346 1303v209h137v-209h-137zM678 1303v209h137v-209h-137z" />
    <glyph glyph-name="otilde" unicode="&#xf5;" horiz-adv-x="1139" vert-adv-y="1433" 
d="M569 1118q238 0 368 -164q120 -154 120 -413q0 -260 -120 -413q-130 -165 -364 -165q-219 0 -346 135q-145 154 -145 443q0 261 119 413q130 164 368 164zM570 1006q-196 0 -286 -161q-63 -113 -63 -308q0 -204 79 -325q91 -136 266 -136q170 0 264 125q88 116 88 344
q0 204 -81 324q-92 137 -267 137zM313 1315l-100 24q47 181 194 181q71 0 162 -47l68 -35q64 -33 109 -33q65 0 96 100l100 -24q-23 -86 -76 -137q-48 -46 -115 -46t-167 50l-64 32q-66 33 -104 33q-67 0 -103 -98z" />
    <glyph glyph-name="uacute" unicode="&#xfa;" horiz-adv-x="1130" vert-adv-y="1433" 
d="M133 1081h131v-716q0 -129 58 -202q67 -85 200 -85q167 0 263 153q81 128 81 308v542h131v-1081h-131v190q-60 -106 -126 -154q-98 -73 -250 -73q-130 0 -220 64q-137 97 -137 303v751zM466 1272l164 272h153l-194 -272h-123z" />
    <glyph glyph-name="ugrave" unicode="&#xf9;" horiz-adv-x="1130" vert-adv-y="1433" 
d="M133 1081h131v-716q0 -129 58 -202q67 -85 200 -85q167 0 263 153q81 128 81 308v542h131v-1081h-131v190q-60 -106 -126 -154q-98 -73 -250 -73q-130 0 -220 64q-137 97 -137 303v751zM565 1272l-194 272h153l164 -272h-123z" />
    <glyph glyph-name="ucircumflex" unicode="&#xfb;" horiz-adv-x="1130" vert-adv-y="1433" 
d="M133 1081h131v-716q0 -129 58 -202q67 -85 200 -85q167 0 263 153q81 128 81 308v542h131v-1081h-131v190q-60 -106 -126 -154q-98 -73 -250 -73q-130 0 -220 64q-137 97 -137 303v751zM255 1272l238 272h143l238 -272h-133l-176 180l-177 -180h-133z" />
    <glyph glyph-name="udieresis" unicode="&#xfc;" horiz-adv-x="1130" vert-adv-y="1433" 
d="M133 1081h131v-716q0 -129 58 -202q67 -85 200 -85q167 0 263 153q81 128 81 308v542h131v-1081h-131v190q-60 -106 -126 -154q-98 -73 -250 -73q-130 0 -220 64q-137 97 -137 303v751zM342 1303v209h137v-209h-137zM674 1303v209h137v-209h-137z" />
    <glyph glyph-name="dagger" unicode="&#x2020;" horiz-adv-x="1143" vert-adv-y="1433" 
d="M508 -197v1160h-356v124h356v457h129v-457h356v-124h-356v-1160h-129z" />
    <glyph glyph-name="degree" unicode="&#xb0;" horiz-adv-x="877" vert-adv-y="1433" 
d="M438 1565q104 0 192 -58q81 -52 120 -136q34 -73 34 -153q0 -141 -101 -242q-99 -99 -243 -99q-131 0 -228 82q-120 102 -120 262q0 144 101 243q102 101 245 101zM436 1468q-96 0 -165 -71q-70 -72 -70 -176q0 -105 70 -177q69 -71 165 -71q94 0 168 69q72 67 72 182
q0 117 -88 190q-65 54 -152 54z" />
    <glyph glyph-name="cent" unicode="&#xa2;" horiz-adv-x="1047" vert-adv-y="1433" 
d="M496 -37v193q-187 24 -293 156q-121 152 -121 419q0 278 133 432q105 122 281 144v190h118v-188q300 -34 367 -324l-131 -39q-33 126 -87 179t-149 69v-924q120 20 183 103q45 59 69 166l127 -37q-55 -178 -156 -260q-89 -73 -223 -88v-191h-118zM496 272v920
q-127 -23 -197 -132q-78 -122 -78 -328q0 -408 275 -460z" />
    <glyph glyph-name="sterling" unicode="&#xa3;" horiz-adv-x="1196" vert-adv-y="1433" 
d="M74 0v127q135 66 224 156q140 141 140 305v28h-268v107h240q-28 56 -107 148q-55 65 -90 125q-51 87 -51 197q0 111 59 204q117 184 394 184q228 0 353 -109q78 -69 132 -204l-125 -54q-49 129 -134 189q-84 59 -228 59q-163 0 -246 -84q-66 -67 -66 -184
q0 -111 124 -250q115 -130 140 -221h357v-107h-340v-4q0 -117 -57 -231q-62 -122 -230 -256h840v-125h-1061z" />
    <glyph glyph-name="section" unicode="&#xa7;" horiz-adv-x="1090" vert-adv-y="1433" 
d="M92 76l121 43q46 -99 105 -149q88 -74 234 -74q139 0 214 46q84 52 84 154q0 96 -80 152q-49 34 -143 59l-219 58q-182 48 -255 129q-59 66 -59 177q0 135 97 220q54 48 147 86q-127 41 -185 104q-61 66 -61 175q0 138 101 220q111 89 310 89q230 0 347 -115
q64 -63 100 -176l-121 -39q-42 107 -98 155q-79 66 -227 66q-133 0 -206 -47q-79 -51 -79 -150q0 -85 69 -132q44 -28 158 -58l236 -61q191 -49 259 -151q38 -56 38 -155q0 -132 -97 -216q-53 -47 -147 -85q132 -48 190 -116q60 -69 60 -188q0 -156 -133 -242
q-110 -72 -300 -72q-351 0 -460 293zM569 449q104 11 188 72q93 67 93 172q0 91 -70 143q-49 36 -147 61l-121 31q-101 -10 -177 -59q-112 -72 -112 -183q0 -157 217 -207z" />
    <glyph glyph-name="bullet" unicode="&#x2022;" horiz-adv-x="840" vert-adv-y="1433" 
d="M424 1129q91 0 172 -54q74 -49 109 -125q32 -68 32 -142q0 -93 -54 -174q-49 -74 -125 -109q-68 -31 -137 -31q-118 0 -208 76q-111 94 -111 242q0 150 118 247q85 70 204 70z" />
    <glyph glyph-name="paragraph" unicode="&#xb6;" horiz-adv-x="1401" vert-adv-y="1433" 
d="M659 -393v954h-100q-222 0 -359 133q-139 135 -139 361t122 357q122 132 335 132h809v-108h-129v-1829h-115v1829h-309v-1829h-115z" />
    <glyph glyph-name="germandbls" unicode="&#xdf;" horiz-adv-x="1159" vert-adv-y="1433" 
d="M457 -2l8 119q54 -17 132 -17q163 0 254 96q87 91 87 248q0 169 -91 251q-109 98 -362 98h-20v118h22q128 0 220 53q145 85 145 259q0 127 -93 188q-68 45 -192 45q-303 0 -303 -366v-1090h-131v1114q0 238 139 353q119 98 313 98q190 0 308 -104q96 -84 96 -234
q0 -261 -272 -365q187 -18 278 -131q82 -102 82 -294q0 -202 -130 -331q-124 -124 -317 -124q-95 0 -173 16z" />
    <glyph glyph-name="registered" unicode="&#xae;" horiz-adv-x="1815" vert-adv-y="1433" 
d="M588 348v848h362q143 0 215 -66q72 -65 72 -177q0 -96 -60 -166q-38 -46 -98 -72l191 -367h-133l-170 344h-19h-243v-344h-117zM705 795h231q176 0 176 153q0 148 -176 148h-231v-301zM908 1581q227 0 422 -121q206 -127 306 -336q80 -169 80 -355q0 -243 -140 -451
q-134 -199 -358 -295q-140 -60 -310 -60q-312 0 -543 208q-125 114 -195 267q-72 160 -72 334q0 220 110 408q108 184 291 290q190 111 409 111zM907 1466q-282 0 -481 -203q-201 -205 -201 -491t201 -490q93 -96 216 -150q125 -54 261 -54q256 0 447 167q111 97 174 232
q65 139 65 295q0 286 -200 491q-200 203 -482 203z" />
    <glyph glyph-name="copyright" unicode="&#xa9;" horiz-adv-x="1815" vert-adv-y="1433" 
d="M1227 950l-117 -30q-23 86 -62 130q-57 64 -164 64q-147 0 -216 -124q-47 -84 -47 -232q0 -144 65 -233q68 -93 193 -93q202 0 241 225l121 -16q-67 -313 -367 -313q-154 0 -253 90q-127 115 -127 346q0 212 103 332q103 121 285 121q283 0 345 -267zM908 1581
q227 0 422 -121q206 -127 306 -336q80 -169 80 -355q0 -243 -140 -451q-134 -199 -358 -295q-140 -60 -310 -60q-312 0 -543 208q-125 114 -195 267q-72 160 -72 334q0 220 110 408q108 184 291 290q190 111 409 111zM907 1466q-282 0 -481 -203q-201 -205 -201 -491
t201 -490q93 -96 216 -150q125 -54 261 -54q256 0 447 167q111 97 174 232q65 139 65 295q0 286 -200 491q-200 203 -482 203z" />
    <glyph glyph-name="trademark" unicode="&#x2122;" horiz-adv-x="1890" vert-adv-y="1433" 
d="M352 696v746h-307v102h729v-102h-307v-746h-115zM899 696v848h166l260 -715l281 715h155v-848h-114v676l-263 -676h-124l-246 676v-676h-115z" />
    <glyph glyph-name="acute" unicode="&#xb4;" horiz-adv-x="811" vert-adv-y="1433" 
d="M246 1272l164 272h153l-194 -272h-123z" />
    <glyph glyph-name="dieresis" unicode="&#xa8;" horiz-adv-x="811" vert-adv-y="1433" 
d="M170 1303v209h137v-209h-137zM502 1303v209h137v-209h-137z" />
    <glyph glyph-name="notequal" unicode="&#x2260;" horiz-adv-x="1194" vert-adv-y="1433" 
d="M205 147l162 287h-316v115h379l207 364h-586v115h649l162 287h125l-162 -287h316v-115h-379l-207 -364h586v-115h-649l-162 -287h-125z" />
    <glyph glyph-name="AE" unicode="&#xc6;" horiz-adv-x="2271" vert-adv-y="1433" 
d="M-20 0l1038 1544h1139v-129h-893v-563h847v-129h-847v-594h925v-129h-1069v412h-708l-277 -412h-155zM494 535h626v880h-35z" />
    <glyph glyph-name="Oslash" unicode="&#xd8;" horiz-adv-x="1608" vert-adv-y="1433" 
d="M293 -147l-103 67l138 215q-230 222 -230 636q0 383 190 599q187 211 515 211q212 0 381 -98l133 209l102 -68l-137 -217q227 -223 227 -634q0 -382 -191 -598q-187 -212 -515 -212q-214 0 -377 96zM1200 1282l-702 -1106q129 -92 304 -92q239 0 386 164q170 189 170 525
q0 315 -158 509zM408 262l702 1106q-136 92 -307 92q-264 0 -414 -199q-139 -185 -139 -489q0 -313 158 -510z" />
    <glyph glyph-name="glyph146" vert-adv-y="1433" 
 />
    <glyph glyph-name="plusminus" unicode="&#xb1;" horiz-adv-x="1194" vert-adv-y="1433" 
d="M51 0v115h486v497h-486v111h486v498h118v-498h486v-111h-486v-497h486v-115h-1090z" />
    <glyph glyph-name="lessequal" unicode="&#x2264;" horiz-adv-x="1194" vert-adv-y="1433" 
d="M51 0v115h1090v-115h-1090zM1141 201l-1090 473v114l1090 474v-123l-944 -408l944 -407v-123z" />
    <glyph glyph-name="greaterequal" unicode="&#x2265;" horiz-adv-x="1194" vert-adv-y="1433" 
d="M51 0v115h1090v-115h-1090zM51 201v123l944 407l-944 408v123l1090 -474v-114z" />
    <glyph glyph-name="yen" unicode="&#xa5;" horiz-adv-x="1223" vert-adv-y="1433" 
d="M539 0v299h-310v107h310v186h-310v106h250l-479 846h158l458 -815l455 815h152l-480 -846h248v-106h-309v-186h309v-107h-309v-299h-143z" />
    <glyph glyph-name="mu" unicode="&#xb5;" horiz-adv-x="1130" vert-adv-y="1433" 
d="M133 -393v1474h131v-716q0 -129 58 -202q67 -85 200 -85q167 0 263 153q81 128 81 308v542h131v-1081h-131v190q-56 -99 -119 -151q-94 -76 -224 -76q-103 0 -172 40q-44 24 -87 78v-474h-131z" />
    <glyph glyph-name="glyph152" vert-adv-y="1433" 
 />
    <glyph glyph-name="glyph153" vert-adv-y="1433" 
 />
    <glyph glyph-name="glyph154" vert-adv-y="1433" 
 />
    <glyph glyph-name="pi" unicode="&#x3c0;" horiz-adv-x="1080" vert-adv-y="1433" 
d="M769 972h-458v-972h-131v972h-160v109h1040v-109h-160v-972h-131v972z" />
    <glyph glyph-name="glyph156" vert-adv-y="1433" 
 />
    <glyph glyph-name="ordfeminine" unicode="&#xaa;" horiz-adv-x="862" vert-adv-y="1433" 
d="M596 1294v35q0 76 -42 109q-46 35 -135 35q-110 0 -159 -57q-20 -24 -37 -66l-96 24q63 191 303 191q275 0 275 -217v-373q0 -83 20 -137h-107q-13 32 -16 84q-45 -53 -95 -76q-66 -31 -168 -31q-105 0 -168 49q-69 54 -69 155q0 106 63 164q65 60 200 79zM596 1202
l-223 -35q-160 -25 -160 -138q0 -122 149 -122q98 0 162 46q72 52 72 151v98z" />
    <glyph glyph-name="ordmasculine" unicode="&#xba;" horiz-adv-x="938" vert-adv-y="1433" 
d="M473 1565q167 0 261 -107q85 -97 85 -268q0 -170 -85 -268q-94 -107 -263 -107q-157 0 -249 89q-103 99 -103 286q0 194 109 293q89 82 245 82zM465 1473q-118 0 -178 -83q-51 -69 -51 -200q0 -130 51 -201q59 -84 180 -84q235 0 235 290q0 142 -67 214q-61 64 -170 64z
" />
    <glyph glyph-name="glyph159" vert-adv-y="1433" 
 />
    <glyph glyph-name="ae" unicode="&#xe6;" horiz-adv-x="1804" vert-adv-y="1433" 
d="M784 686v70q0 252 -269 252q-137 0 -210 -71q-50 -48 -82 -142l-117 30q89 293 419 293q153 0 243 -57q78 -50 119 -150q120 207 380 207q227 0 353 -149q111 -132 111 -348v-21v-22v-14v-14q0 -18 -2 -32h-820q4 -181 72 -292q89 -148 272 -148q163 0 255 106
q42 48 77 150l123 -45q-108 -326 -454 -326q-297 0 -404 238q-77 -123 -183 -181q-103 -57 -251 -57q-147 0 -240 77q-102 85 -102 234q0 177 115 269q84 68 247 92zM784 573l-352 -55q-223 -35 -223 -237q0 -118 83 -171q55 -34 148 -34q136 0 233 74q111 85 111 245v178z
M911 621h682q0 151 -63 250q-87 139 -267 139q-187 0 -284 -157q-59 -97 -68 -232z" />
    <glyph glyph-name="oslash" unicode="&#xf8;" horiz-adv-x="1139" vert-adv-y="1433" 
d="M205 -123l-86 53l106 168q-143 163 -143 441q0 262 119 415q130 164 368 164q154 0 267 -71l100 155l86 -53l-109 -168q144 -159 144 -440q0 -260 -120 -413q-130 -165 -367 -165q-151 0 -265 70zM844 872l-475 -741q80 -59 200 -59q171 0 265 123q90 118 90 351
q0 197 -80 326zM295 207l477 741q-88 62 -204 62q-181 0 -272 -136q-81 -120 -81 -333q0 -209 80 -334z" />
    <glyph glyph-name="questiondown" unicode="&#xbf;" horiz-adv-x="1049" vert-adv-y="1433" 
d="M514 642h133v-153q0 -87 -49 -137q-27 -28 -137 -99l-9 -7q-90 -58 -132 -105q-78 -85 -78 -199q0 -262 295 -262q184 0 265 124q32 49 58 134l127 -21q-88 -350 -468 -350q-189 0 -302 94q-115 96 -115 269q0 184 155 322q54 49 143 107q68 43 86 69q28 39 28 102v112z
M492 898v250h178v-250h-178z" />
    <glyph glyph-name="exclamdown" unicode="&#xa1;" horiz-adv-x="555" vert-adv-y="1433" 
d="M193 -396v285l26 747h117l26 -747v-285h-169zM188 898v250h179v-250h-179z" />
    <glyph glyph-name="logicalnot" unicode="&#xac;" horiz-adv-x="1194" vert-adv-y="1433" 
d="M1026 434v479h-975v115h1090v-594h-115z" />
    <glyph glyph-name="glyph165" vert-adv-y="1433" 
 />
    <glyph glyph-name="florin" unicode="&#x192;" horiz-adv-x="887" vert-adv-y="1433" 
d="M-150 -410l19 111q61 -10 101 -10q81 0 128 43q39 36 56 133l168 946h-134v109h154l66 366q30 164 123 229q70 48 190 48q58 0 123 -9l-19 -114q-54 6 -95 6q-85 0 -129 -46q-44 -45 -62 -142l-62 -338h223v-109h-241l-168 -958q-19 -107 -62 -169q-75 -110 -248 -110
q-61 0 -131 14z" />
    <glyph glyph-name="glyph167" vert-adv-y="1433" 
 />
    <glyph glyph-name="glyph168" vert-adv-y="1433" 
 />
    <glyph glyph-name="guillemotleft" unicode="&#xab;" horiz-adv-x="844" vert-adv-y="1433" 
d="M281 174l-244 361l244 360h145l-244 -360l244 -361h-145zM662 174l-244 361l244 360h145l-244 -360l244 -361h-145z" />
    <glyph glyph-name="guillemotright" unicode="&#xbb;" horiz-adv-x="844" vert-adv-y="1433" 
d="M37 174l244 361l-244 360h145l244 -360l-244 -361h-145zM418 174l244 361l-244 360h145l244 -360l-244 -361h-145z" />
    <glyph glyph-name="ellipsis" unicode="&#x2026;" horiz-adv-x="2048" vert-adv-y="1433" 
d="M252 0v250h178v-250h-178zM934 0v250h178v-250h-178zM1618 0v250h178v-250h-178z" />
    <glyph glyph-name="glyph172" horiz-adv-x="1194" vert-adv-y="1194" 
 />
    <glyph glyph-name="Agrave" unicode="&#xc0;" horiz-adv-x="1358" vert-adv-y="1433" 
d="M0 0l588 1544h184l586 -1544h-156l-153 412h-756l-156 -412h-137zM340 535h661l-327 878zM622 1659l-194 272h153l164 -272h-123z" />
    <glyph glyph-name="Atilde" unicode="&#xc3;" horiz-adv-x="1358" vert-adv-y="1433" 
d="M0 0l588 1544h184l586 -1544h-156l-153 412h-756l-156 -412h-137zM340 535h661l-327 878zM403 1702l-100 24q48 181 193 181q71 0 163 -47l68 -35q64 -33 109 -33q66 0 96 100l100 -24q-24 -87 -76 -137q-47 -46 -115 -46q-67 0 -167 50l-64 32q-66 33 -103 33
q-67 0 -104 -98z" />
    <glyph glyph-name="Otilde" unicode="&#xd5;" horiz-adv-x="1608" vert-adv-y="1433" 
d="M803 1581q329 0 515 -211q191 -216 191 -598q0 -381 -191 -597q-187 -212 -510 -212q-298 0 -482 173q-228 216 -228 636q0 383 190 598q188 211 515 211zM803 1454q-260 0 -410 -200q-139 -184 -139 -482q0 -297 139 -483q150 -199 406 -199q239 0 386 164
q169 188 169 518q0 299 -140 482q-151 200 -411 200zM544 1702l-100 24q48 181 193 181q71 0 163 -47l68 -35q64 -33 109 -33q66 0 96 100l100 -24q-24 -87 -76 -137q-47 -46 -115 -46q-67 0 -167 50l-64 32q-66 33 -103 33q-67 0 -104 -98z" />
    <glyph glyph-name="OE" unicode="&#x152;" horiz-adv-x="2501" vert-adv-y="1433" 
d="M1350 1300v244h1036v-129h-897v-563h852v-129h-852v-594h930v-129h-1069v244q-82 -119 -181 -183q-152 -98 -366 -98q-293 0 -477 173q-228 216 -228 635q0 381 190 598q187 212 513 212q232 0 391 -112q86 -61 158 -169zM800 1454q-262 0 -410 -200q-136 -184 -136 -484
q0 -297 136 -481q148 -199 407 -199q251 0 400 186q153 190 153 499q0 290 -139 477q-151 202 -411 202z" />
    <glyph glyph-name="oe" unicode="&#x153;" horiz-adv-x="1942" vert-adv-y="1433" 
d="M983 856q52 107 125 168q114 94 295 94q255 0 376 -179q49 -72 72 -185q17 -82 17 -158v-21v-22v-14v-14q0 -20 -2 -31h-819q9 -173 72 -274q90 -144 266 -144q107 0 195 53q99 60 138 182l125 -45q-117 -303 -459 -303q-281 0 -403 260q-119 -260 -411 -260
q-216 0 -343 135q-145 154 -145 443q0 260 119 413q130 164 367 164q294 0 415 -262zM570 1006q-196 0 -286 -161q-63 -113 -63 -308q0 -204 79 -325q91 -136 266 -136q170 0 264 125q88 116 88 344q0 204 -81 324q-92 137 -267 137zM1049 596h682q-5 414 -336 414
q-185 0 -278 -155q-60 -102 -68 -259z" />
    <glyph glyph-name="endash" unicode="&#x2013;" horiz-adv-x="1024" vert-adv-y="1433" 
d="M0 518v129h1024v-129h-1024z" />
    <glyph glyph-name="emdash" unicode="&#x2014;" horiz-adv-x="2048" vert-adv-y="1433" 
d="M0 518v129h2048v-129h-2048z" />
    <glyph glyph-name="quotedblleft" unicode="&#x201c;" horiz-adv-x="829" vert-adv-y="1433" 
d="M143 971v227q0 133 54 224q38 65 114 141l62 -64q-66 -68 -94 -117q-35 -60 -35 -137v-24h78v-250h-179zM508 971v227q0 131 51 220q41 70 117 145l61 -64q-70 -75 -94 -117q-35 -62 -35 -137v-24h78v-250h-178z" />
    <glyph glyph-name="quotedblright" unicode="&#x201d;" horiz-adv-x="829" vert-adv-y="1433" 
d="M154 952l-62 64q129 132 129 254v24h-78v250h179v-227q0 -129 -52 -218q-42 -74 -116 -147zM518 952l-61 64q64 67 91 115q38 66 38 139v24h-78v250h178v-227q0 -133 -53 -222q-40 -68 -115 -143z" />
    <glyph glyph-name="quoteleft" unicode="&#x2018;" horiz-adv-x="465" vert-adv-y="1433" 
d="M143 971v227q0 133 54 224q38 65 114 141l62 -64q-66 -68 -94 -117q-35 -60 -35 -137v-24h78v-250h-179z" />
    <glyph glyph-name="quoteright" unicode="&#x2019;" horiz-adv-x="465" vert-adv-y="1433" 
d="M154 952l-62 64q129 132 129 254v24h-78v250h179v-227q0 -129 -52 -218q-42 -74 -116 -147z" />
    <glyph glyph-name="divide" unicode="&#xf7;" horiz-adv-x="1194" vert-adv-y="1433" 
d="M514 240v217h166v-217h-166zM51 674v114h1090v-114h-1090zM514 1006v217h166v-217h-166z" />
    <glyph glyph-name="glyph185" vert-adv-y="1433" 
 />
    <glyph glyph-name="ydieresis" unicode="&#xff;" horiz-adv-x="989" vert-adv-y="1433" 
d="M63 -399l25 110q68 -18 119 -18q77 0 121 43q32 32 59 100l66 170l-453 1075h141l377 -901l340 901h131l-489 -1296q-39 -102 -100 -154q-63 -55 -164 -55h-12q-80 0 -161 25zM259 1303v209h137v-209h-137zM591 1303v209h137v-209h-137z" />
    <glyph glyph-name="Ydieresis" unicode="&#x178;" horiz-adv-x="1223" vert-adv-y="1433" 
d="M539 0v592l-539 952h158l458 -815l455 815h152l-541 -952v-592h-143zM388 1688v209h137v-209h-137zM720 1688v209h137v-209h-137z" />
    <glyph glyph-name="fraction" unicode="&#x2044;" horiz-adv-x="256" vert-adv-y="1433" 
d="M-285 -37l703 1534h123l-703 -1534h-123z" />
    <glyph glyph-name="Euro" unicode="&#x20ac;" horiz-adv-x="1248" vert-adv-y="1433" 
d="M178 557h-133l45 109h76q-2 24 -2 44v24v24q0 62 4 114h-123l45 109h88q45 279 185 431q157 169 407 169q254 0 401 -163l-61 -146q-82 104 -142 139q-83 47 -195 47q-359 0 -443 -477h659l-45 -109h-626q-5 -81 -5 -128q0 -41 3 -78h542l-45 -109h-485q32 -205 127 -324
q118 -147 309 -147q123 0 227 65q39 25 119 88v-157q-84 -66 -151 -89q-90 -30 -200 -30q-231 0 -380 146q-156 151 -201 448z" />
    <glyph glyph-name="guilsinglleft" unicode="&#x2039;" horiz-adv-x="463" vert-adv-y="1433" 
d="M281 174l-244 361l244 360h145l-244 -360l244 -361h-145z" />
    <glyph glyph-name="guilsinglright" unicode="&#x203a;" horiz-adv-x="463" vert-adv-y="1433" 
d="M37 174l244 361l-244 360h145l244 -360l-244 -361h-145z" />
    <glyph glyph-name="uniF001" unicode="&#xf001;" horiz-adv-x="1010" vert-adv-y="1433" 
d="M205 0v973h-168v108h168v187q0 297 270 297q52 0 92 -6q6 -1 23 -3q12 -2 26 -4l-12 -112q-66 8 -104 8q-87 0 -125 -48q-39 -48 -39 -151v-168h256v-108h-256v-973h-131zM735 0v1081h131v-1081h-131zM735 1335v209h131v-209h-131z" />
    <glyph glyph-name="uniF002" unicode="&#xf002;" horiz-adv-x="1010" vert-adv-y="1433" 
d="M205 0v973h-168v108h168v187q0 297 270 297q52 0 92 -6q6 -1 23 -3q12 -2 26 -4l-12 -112q-66 8 -104 8q-87 0 -125 -48q-39 -48 -39 -151v-168h256v-108h-256v-973h-131zM735 0v1544h131v-1544h-131z" />
    <glyph glyph-name="daggerdbl" unicode="&#x2021;" horiz-adv-x="1143" vert-adv-y="1433" 
d="M508 -197l-2 457h-356l2 125h356v578h-356v124h356v457h129v-457h356v-124h-356v-578h356l-2 -125h-356l2 -457h-129z" />
    <glyph glyph-name="periodcentered" unicode="&#xb7;" horiz-adv-x="465" vert-adv-y="1433" 
d="M143 606v250h179v-250h-179z" />
    <glyph glyph-name="quotesinglbase" unicode="&#x201a;" horiz-adv-x="465" vert-adv-y="1433" 
d="M154 -342l-62 63q129 128 129 254v25h-78v250h179v-227q0 -126 -50 -213q-44 -77 -118 -152z" />
    <glyph glyph-name="quotedblbase" unicode="&#x201e;" horiz-adv-x="829" vert-adv-y="1433" 
d="M154 -342l-62 63q129 128 129 254v25h-78v250h179v-227q0 -126 -50 -213q-44 -77 -118 -152zM518 -342l-61 63q59 62 85 104q44 73 44 150v25h-78v250h178v-227q0 -129 -52 -218q-42 -72 -116 -147z" />
    <glyph glyph-name="perthousand" unicode="&#x2030;" horiz-adv-x="2679" vert-adv-y="1433" 
d="M514 -37l703 1534h122l-702 -1534h-123zM1431 883q345 0 345 -459q0 -461 -340 -461q-150 0 -231 80q-113 113 -113 379q0 461 339 461zM1429 782q-219 0 -219 -361q0 -358 220 -358q227 0 227 367q0 352 -228 352zM2254 883q345 0 345 -459q0 -461 -340 -461
q-150 0 -231 80q-113 113 -113 379q0 461 339 461zM2253 782q-219 0 -219 -358q0 -361 219 -361q227 0 227 367q0 352 -227 352zM421 1497q345 0 345 -459q0 -460 -340 -460q-150 0 -231 79q-113 112 -113 378q0 462 339 462zM422 1397q-221 0 -221 -359q0 -360 219 -360
q227 0 227 363q0 356 -225 356z" />
    <glyph glyph-name="Acircumflex" unicode="&#xc2;" horiz-adv-x="1358" vert-adv-y="1433" 
d="M0 0l588 1544h184l586 -1544h-156l-153 412h-756l-156 -412h-137zM340 535h661l-327 878zM366 1659l238 272h143l238 -272h-133l-176 180l-177 -180h-133z" />
    <glyph glyph-name="Ecircumflex" unicode="&#xca;" horiz-adv-x="1305" vert-adv-y="1433" 
d="M154 0v1544h1036v-129h-893v-563h848v-129h-848v-594h926v-129h-1069zM368 1659l238 272h143l238 -272h-133l-176 180l-177 -180h-133z" />
    <glyph glyph-name="Aacute" unicode="&#xc1;" horiz-adv-x="1358" vert-adv-y="1433" 
d="M0 0l588 1544h184l586 -1544h-156l-153 412h-756l-156 -412h-137zM340 535h661l-327 878zM615 1659l164 272h153l-194 -272h-123z" />
    <glyph glyph-name="Edieresis" unicode="&#xcb;" horiz-adv-x="1305" vert-adv-y="1433" 
d="M154 0v1544h1036v-129h-893v-563h848v-129h-848v-594h926v-129h-1069zM446 1688v209h137v-209h-137zM778 1688v209h137v-209h-137z" />
    <glyph glyph-name="Egrave" unicode="&#xc8;" horiz-adv-x="1305" vert-adv-y="1433" 
d="M154 0v1544h1036v-129h-893v-563h848v-129h-848v-594h926v-129h-1069zM680 1659l-194 272h153l164 -272h-123z" />
    <glyph glyph-name="Iacute" unicode="&#xcd;" horiz-adv-x="451" vert-adv-y="1433" 
d="M154 0v1544h143v-1544h-143zM162 1659l164 272h153l-194 -272h-123z" />
    <glyph glyph-name="Icircumflex" unicode="&#xce;" horiz-adv-x="451" vert-adv-y="1433" 
d="M154 0v1544h143v-1544h-143zM-90 1659l238 272h143l238 -272h-133l-176 180l-177 -180h-133z" />
    <glyph glyph-name="Idieresis" unicode="&#xcf;" horiz-adv-x="451" vert-adv-y="1433" 
d="M154 0v1544h143v-1544h-143zM-6 1687v209h137v-209h-137zM326 1687v209h137v-209h-137z" />
    <glyph glyph-name="Igrave" unicode="&#xcc;" horiz-adv-x="451" vert-adv-y="1433" 
d="M153 0v1544h143v-1544h-143zM168 1659l-194 272h153l164 -272h-123z" />
    <glyph glyph-name="Oacute" unicode="&#xd3;" horiz-adv-x="1608" vert-adv-y="1433" 
d="M803 1581q329 0 515 -211q191 -216 191 -598q0 -381 -191 -597q-187 -212 -510 -212q-298 0 -482 173q-228 216 -228 636q0 383 190 598q188 211 515 211zM803 1454q-260 0 -410 -200q-139 -184 -139 -482q0 -297 139 -483q150 -199 406 -199q239 0 386 164
q169 188 169 518q0 299 -140 482q-151 200 -411 200zM731 1659l164 272h153l-194 -272h-123z" />
    <glyph glyph-name="Ocircumflex" unicode="&#xd4;" horiz-adv-x="1608" vert-adv-y="1433" 
d="M803 1581q329 0 515 -211q191 -216 191 -598q0 -381 -191 -597q-187 -212 -510 -212q-298 0 -482 173q-228 216 -228 636q0 383 190 598q188 211 515 211zM803 1454q-260 0 -410 -200q-139 -184 -139 -482q0 -297 139 -483q150 -199 406 -199q239 0 386 164
q169 188 169 518q0 299 -140 482q-151 200 -411 200zM491 1659l238 272h143l238 -272h-133l-176 180l-177 -180h-133z" />
    <glyph glyph-name="glyph210" vert-adv-y="1433" 
 />
    <glyph glyph-name="Ograve" unicode="&#xd2;" horiz-adv-x="1608" vert-adv-y="1433" 
d="M803 1581q329 0 515 -211q191 -216 191 -598q0 -381 -191 -597q-187 -212 -510 -212q-298 0 -482 173q-228 216 -228 636q0 383 190 598q188 211 515 211zM803 1454q-260 0 -410 -200q-139 -184 -139 -482q0 -297 139 -483q150 -199 406 -199q239 0 386 164
q169 188 169 518q0 299 -140 482q-151 200 -411 200zM771 1659l-194 272h153l164 -272h-123z" />
    <glyph glyph-name="Uacute" unicode="&#xda;" horiz-adv-x="1440" vert-adv-y="1433" 
d="M143 1544h144v-952q0 -271 119 -393q105 -109 316 -109q209 0 314 109q117 122 117 393v952h143v-964q0 -617 -572 -617q-581 0 -581 617v964zM611 1659l164 272h153l-194 -272h-123z" />
    <glyph glyph-name="Ucircumflex" unicode="&#xdb;" horiz-adv-x="1440" vert-adv-y="1433" 
d="M143 1544h144v-952q0 -271 119 -393q105 -109 316 -109q209 0 314 109q117 122 117 393v952h143v-964q0 -617 -572 -617q-581 0 -581 617v964zM409 1659l238 272h143l238 -272h-133l-176 180l-177 -180h-133z" />
    <glyph glyph-name="Ugrave" unicode="&#xd9;" horiz-adv-x="1440" vert-adv-y="1433" 
d="M143 1544h144v-952q0 -271 119 -393q105 -109 316 -109q209 0 314 109q117 122 117 393v952h143v-964q0 -617 -572 -617q-581 0 -581 617v964zM735 1659l-194 272h153l164 -272h-123z" />
    <glyph glyph-name="dotlessi" unicode="&#x131;" horiz-adv-x="418" vert-adv-y="1433" 
d="M143 0v1081h131v-1081h-131z" />
    <glyph glyph-name="circumflex" unicode="&#x2c6;" horiz-adv-x="811" vert-adv-y="1433" 
d="M96 1272l238 272h143l238 -272h-133l-176 180l-177 -180h-133z" />
    <glyph glyph-name="tilde" unicode="&#x2dc;" horiz-adv-x="811" vert-adv-y="1433" 
d="M141 1315l-100 24q47 181 194 181q71 0 162 -47l68 -35q64 -33 109 -33q65 0 96 100l100 -24q-23 -86 -76 -137q-48 -46 -115 -46t-167 50l-64 32q-66 33 -104 33q-67 0 -103 -98z" />
    <glyph glyph-name="uni02C9" unicode="&#x2c9;" horiz-adv-x="811" vert-adv-y="1433" 
d="M131 1344v112h548v-112h-548z" />
    <glyph glyph-name="breve" unicode="&#x2d8;" horiz-adv-x="811" vert-adv-y="1433" 
d="M94 1513h119q19 -45 66 -75q51 -33 131 -33q149 0 190 108h117q-53 -210 -311 -210q-263 0 -312 210z" />
    <glyph glyph-name="dotaccent" unicode="&#x2d9;" horiz-adv-x="811" vert-adv-y="1433" 
d="M336 1301v215h137v-215h-137z" />
    <glyph glyph-name="ring" unicode="&#x2da;" horiz-adv-x="811" vert-adv-y="1433" 
d="M409 1614q123 0 181 -75q40 -51 40 -134q0 -102 -68 -157q-57 -46 -154 -46q-103 0 -161 50q-65 54 -65 156q0 105 67 160q56 46 160 46zM404 1536q-60 0 -101 -37q-35 -31 -35 -90q0 -65 45 -101q34 -28 93 -28q63 0 103 37q35 33 35 94q0 72 -57 104q-37 21 -83 21z
" />
    <glyph glyph-name="cedilla" unicode="&#xb8;" horiz-adv-x="811" vert-adv-y="1433" 
d="M236 -393l194 272h123l-164 -272h-153z" />
    <glyph glyph-name="hungarumlaut" unicode="&#x2dd;" horiz-adv-x="811" vert-adv-y="1433" 
d="M176 1272l92 272h125l-114 -272h-103zM410 1272l92 272h125l-115 -272h-102z" />
    <glyph glyph-name="ogonek" unicode="&#x2db;" horiz-adv-x="1358" vert-adv-y="1433" 
d="M1232 0h79q-94 -74 -94 -155q0 -75 77 -75q43 0 103 38v-99q-58 -37 -124 -37q-96 0 -142 63q-25 35 -25 80q0 104 126 185z" />
    <glyph glyph-name="caron" unicode="&#x2c7;" horiz-adv-x="811" vert-adv-y="1433" 
d="M334 1272l-238 272h133l177 -180l176 180h133l-238 -272h-143z" />
    <glyph glyph-name="uni00A0" unicode="&#xa0;" vert-adv-y="1433" 
 />
    <glyph glyph-name="currency" unicode="&#xa4;" horiz-adv-x="1212" vert-adv-y="1433" 
d="M168 244l-92 92l112 113q-112 140 -112 325q0 181 112 326l-112 112l92 93l113 -113q145 113 325 113t326 -113l112 113l93 -93l-113 -112q113 -145 113 -326q0 -180 -113 -325l113 -113l-93 -92l-112 112q-141 -112 -326 -112q-180 0 -325 112zM602 1186
q-163 0 -281 -121q-118 -123 -118 -291t118 -291q118 -121 282 -121q152 0 265 100q142 125 142 312q0 122 -68 226q-64 98 -160 143q-90 43 -180 43z" />
    <glyph glyph-name="brokenbar" unicode="&#xa6;" horiz-adv-x="481" vert-adv-y="1433" 
d="M215 0v514h117v-514h-117zM215 1030v514h117v-514h-117z" />
    <glyph glyph-name="uni00AD" unicode="&#xad;" horiz-adv-x="782" vert-adv-y="1433" 
d="M123 469v143h536v-143h-536z" />
    <glyph glyph-name="macron" unicode="&#xaf;" horiz-adv-x="811" vert-adv-y="1433" 
d="M104 1352v112h603v-112h-603z" />
    <glyph glyph-name="twosuperior" unicode="&#xb2;" horiz-adv-x="848" vert-adv-y="1433" 
d="M86 598v51q0 167 241 309q173 102 210 136q69 65 69 148t-62 125q-48 32 -130 32q-164 0 -213 -170l-111 18q67 250 335 250q173 0 250 -93q52 -63 52 -166q0 -122 -103 -212q-48 -42 -139 -94q-188 -108 -235 -171q-17 -21 -29 -56h516v-107h-651z" />
    <glyph glyph-name="threesuperior" unicode="&#xb3;" horiz-adv-x="848" vert-adv-y="1433" 
d="M80 825l117 17q16 -166 211 -166q223 0 223 160q0 110 -110 146q-48 15 -140 19v99q103 4 161 39q72 43 72 120q0 144 -197 144q-117 0 -171 -73q-23 -32 -33 -75l-109 17q53 225 322 225q151 0 232 -66q73 -60 73 -162q0 -164 -172 -220q193 -37 193 -216
q0 -105 -77 -174q-91 -81 -247 -81q-175 0 -260 63q-77 58 -88 184z" />
    <glyph glyph-name="onesuperior" unicode="&#xb9;" horiz-adv-x="848" vert-adv-y="1433" 
d="M428 598v756q-87 -62 -207 -123l-43 84q128 65 252 162h105v-879h-107z" />
    <glyph glyph-name="onequarter" unicode="&#xbc;" horiz-adv-x="1956" vert-adv-y="1433" 
d="M563 -37l703 1534h123l-703 -1534h-123zM1642 -16v176h-475v98l457 604h119v-610h92v-92h-92v-176h-101zM1276 252h364v481zM422 598v756q-99 -69 -207 -123l-43 84q128 65 252 162h104v-879h-106z" />
    <glyph glyph-name="onehalf" unicode="&#xbd;" horiz-adv-x="1956" vert-adv-y="1433" 
d="M553 -37l702 1534h123l-702 -1534h-123zM1210 -16v51q0 169 260 321q151 87 191 123q70 62 70 148q0 82 -62 124q-50 33 -132 33q-162 0 -212 -170l-111 19q67 250 336 250q172 0 249 -93q52 -62 52 -165q0 -123 -100 -212q-48 -42 -141 -96q-191 -111 -236 -170
q-17 -21 -28 -57h516v-106h-652zM422 598v756q-99 -69 -207 -123l-43 84q128 65 252 162h104v-879h-106z" />
    <glyph glyph-name="threequarters" unicode="&#xbe;" horiz-adv-x="1956" vert-adv-y="1433" 
d="M623 -37l702 1534h123l-703 -1534h-122zM1642 -16v176h-475v98l457 604h119v-610h92v-92h-92v-176h-101zM1276 252h364v481zM88 825l117 17q16 -166 212 -166q222 0 222 160q0 110 -110 146q-48 15 -140 19v99q103 4 161 39q73 43 73 120q0 144 -198 144
q-167 0 -204 -148l-108 17q21 90 73 143q81 82 248 82q151 0 232 -66q73 -60 73 -162q0 -164 -172 -220q193 -37 193 -216q0 -105 -76 -174q-90 -81 -248 -81q-180 0 -260 63q-77 62 -88 184z" />
    <glyph glyph-name="Eth" unicode="&#xd0;" horiz-adv-x="1462" vert-adv-y="1433" 
d="M154 0v723h-154v123h154v698h464q746 0 746 -760q0 -394 -190 -589q-189 -195 -556 -195h-464zM297 129h332q304 0 452 187q129 162 129 462q0 637 -581 637h-332v-569h348v-123h-348v-594z" />
    <glyph glyph-name="multiply" unicode="&#xd7;" horiz-adv-x="1194" vert-adv-y="1433" 
d="M248 264l-84 78l356 389l-356 389l84 78l350 -383l350 383l84 -78l-356 -389l356 -389l-84 -78l-350 383z" />
    <glyph glyph-name="Yacute" unicode="&#xdd;" horiz-adv-x="1223" vert-adv-y="1433" 
d="M539 0v592l-539 952h158l458 -815l455 815h152l-541 -952v-592h-143zM539 1659l164 272h153l-194 -272h-123z" />
    <glyph glyph-name="Thorn" unicode="&#xde;" horiz-adv-x="1294" vert-adv-y="1433" 
d="M154 0v1544h143v-295h469q252 0 374 -152q93 -116 93 -307q0 -209 -136 -333q-136 -125 -372 -125h-428v-332h-143zM297 455h440q175 0 268 106q76 86 76 237q0 179 -117 264q-84 62 -221 62h-446v-669z" />
    <glyph glyph-name="eth" unicode="&#xf0;" horiz-adv-x="1141" vert-adv-y="1433" 
d="M854 903q-70 213 -217 373l-203 -152l-55 86l186 140q-91 85 -194 147l65 84q128 -71 230 -160l186 140l57 -84l-170 -125q132 -145 200 -280q120 -239 120 -513q0 -287 -121 -438q-126 -158 -369 -158q-215 0 -343 122q-144 137 -144 398q0 235 118 375q127 150 356 150
q121 0 216 -48q49 -24 82 -57zM564 895q-174 0 -264 -121q-79 -107 -79 -291t79 -288q91 -119 268 -119q162 0 253 100q97 107 97 311q0 184 -82 289q-92 119 -272 119z" />
    <glyph glyph-name="yacute" unicode="&#xfd;" horiz-adv-x="989" vert-adv-y="1433" 
d="M63 -399l25 110q68 -18 119 -18q77 0 121 43q32 32 59 100l66 170l-453 1075h141l377 -901l340 901h131l-489 -1296q-39 -102 -100 -154q-63 -55 -164 -55h-12q-80 0 -161 25zM416 1272l164 272h153l-194 -272h-123z" />
    <glyph glyph-name="thorn" unicode="&#xfe;" horiz-adv-x="1159" vert-adv-y="1433" 
d="M133 -393v1937h131v-637q129 211 376 211q211 0 328 -158q109 -148 109 -403q0 -265 -112 -420q-124 -174 -355 -174q-219 0 -346 191v-547h-131zM609 1004q-176 0 -270 -149q-79 -127 -79 -325q0 -192 77 -312q90 -140 255 -140q147 0 234 90q112 116 112 370
q0 466 -329 466z" />
    <glyph glyph-name="Amacron" unicode="&#x100;" horiz-adv-x="1358" vert-adv-y="1433" 
d="M0 0l588 1544h184l586 -1544h-156l-153 412h-756l-156 -412h-137zM340 535h661l-327 878zM380 1729v112h603v-112h-603z" />
    <glyph glyph-name="amacron" unicode="&#x101;" horiz-adv-x="1020" vert-adv-y="1433" 
d="M782 686v88q0 234 -262 234q-142 0 -215 -71q-50 -48 -82 -142l-117 30q89 293 422 293q203 0 301 -99q84 -85 84 -237v-598q0 -75 29 -184h-129q-1 2 -3 11q-1 3 -4 11q-15 39 -15 132q-91 -114 -184 -157q-71 -34 -205 -34q-140 0 -229 77q-99 86 -99 234
q0 177 115 269q84 68 247 92zM782 573l-350 -55q-223 -35 -223 -239q0 -104 63 -157q55 -46 152 -46q128 0 222 62q136 90 136 257v178zM250 1344v112h548v-112h-548z" />
    <glyph glyph-name="Abreve" unicode="&#x102;" horiz-adv-x="1358" vert-adv-y="1433" 
d="M0 0l588 1544h184l586 -1544h-156l-153 412h-756l-156 -412h-137zM340 535h661l-327 878zM368 1897h119q48 -108 197 -108q147 0 190 108h117q-51 -210 -311 -210q-262 0 -312 210z" />
    <glyph glyph-name="abreve" unicode="&#x103;" horiz-adv-x="1020" vert-adv-y="1433" 
d="M782 686v88q0 234 -262 234q-142 0 -215 -71q-50 -48 -82 -142l-117 30q89 293 422 293q203 0 301 -99q84 -85 84 -237v-598q0 -75 29 -184h-129q-1 2 -3 11q-1 3 -4 11q-15 39 -15 132q-91 -114 -184 -157q-71 -34 -205 -34q-140 0 -229 77q-99 86 -99 234
q0 177 115 269q84 68 247 92zM782 573l-350 -55q-223 -35 -223 -239q0 -104 63 -157q55 -46 152 -46q128 0 222 62q136 90 136 257v178zM213 1513h119q19 -45 66 -75q51 -33 131 -33q149 0 190 108h117q-53 -210 -311 -210q-263 0 -312 210z" />
    <glyph glyph-name="Aogonek" unicode="&#x104;" horiz-adv-x="1358" vert-adv-y="1433" 
d="M1310 0q-5 -4 -11 -9q-82 -65 -82 -146q0 -75 77 -75q42 0 103 38v-99q-58 -37 -125 -37q-96 0 -141 63q-25 35 -25 80q0 105 126 185h-30l-153 412h-756l-156 -412h-137l588 1544h184l586 -1544h-48zM340 535h661l-327 878z" />
    <glyph glyph-name="aogonek" unicode="&#x105;" horiz-adv-x="1020" vert-adv-y="1433" 
d="M916 0q-6 -4 -12 -9q-82 -65 -82 -146q0 -75 77 -75q43 0 103 38v-99q-58 -37 -124 -37q-96 0 -142 63q-25 35 -25 80q0 105 126 185h-24q-1 2 -3 11q-1 3 -4 11q-15 39 -15 132q-91 -114 -184 -157q-71 -34 -205 -34q-140 0 -229 77q-99 86 -99 234q0 177 115 269
q84 68 247 92l346 51v88q0 234 -262 234q-142 0 -215 -71q-50 -48 -82 -142l-117 30q89 293 422 293q203 0 301 -99q84 -85 84 -237v-598q0 -75 29 -184h-26zM782 573l-350 -55q-223 -35 -223 -239q0 -104 63 -157q55 -46 152 -46q128 0 222 62q136 90 136 257v178z" />
    <glyph glyph-name="Cacute" unicode="&#x106;" horiz-adv-x="1464" vert-adv-y="1433" 
d="M1368 1128l-143 -38q-42 153 -120 238q-117 128 -329 128q-266 0 -403 -211q-119 -182 -119 -491q0 -297 126 -473q138 -191 389 -191q246 0 375 171q76 101 103 261l148 -22q-113 -537 -631 -537q-270 0 -442 162q-224 211 -224 633q0 388 182 607q180 216 494 216
q257 0 411 -128q137 -115 183 -325zM666 1659l164 272h153l-194 -272h-123z" />
    <glyph glyph-name="cacute" unicode="&#x107;" horiz-adv-x="1047" vert-adv-y="1433" 
d="M981 793l-131 -39q-31 120 -85 176q-73 76 -210 76q-168 0 -256 -137q-78 -120 -78 -328q0 -212 75 -327q88 -136 262 -136q172 0 250 124q37 57 58 148l127 -37q-103 -350 -431 -350q-214 0 -339 136q-141 153 -141 442q0 259 116 411q125 166 362 166q341 0 421 -325z
M463 1272l164 272h153l-194 -272h-123z" />
    <glyph glyph-name="Ccircumflex" unicode="&#x108;" horiz-adv-x="1464" vert-adv-y="1433" 
d="M1368 1128l-143 -38q-42 153 -120 238q-117 128 -329 128q-266 0 -403 -211q-119 -182 -119 -491q0 -297 126 -473q138 -191 389 -191q246 0 375 171q76 101 103 261l148 -22q-113 -537 -631 -537q-270 0 -442 162q-224 211 -224 633q0 388 182 607q180 216 494 216
q257 0 411 -128q137 -115 183 -325zM450 1669l238 272h143l238 -272h-133l-176 180l-177 -180h-133z" />
    <glyph glyph-name="ccircumflex" unicode="&#x109;" horiz-adv-x="1047" vert-adv-y="1433" 
d="M981 793l-131 -39q-31 120 -85 176q-73 76 -210 76q-168 0 -256 -137q-78 -120 -78 -328q0 -212 75 -327q88 -136 262 -136q172 0 250 124q37 57 58 148l127 -37q-103 -350 -431 -350q-214 0 -339 136q-141 153 -141 442q0 259 116 411q125 166 362 166q341 0 421 -325z
M239 1272l238 272h143l238 -272h-133l-176 180l-177 -180h-133z" />
    <glyph glyph-name="Cdotaccent" unicode="&#x10a;" horiz-adv-x="1464" vert-adv-y="1433" 
d="M1368 1128l-143 -38q-42 153 -120 238q-117 128 -329 128q-266 0 -403 -211q-119 -182 -119 -491q0 -297 126 -473q138 -191 389 -191q246 0 375 171q76 101 103 261l148 -22q-113 -537 -631 -537q-270 0 -442 162q-224 211 -224 633q0 388 182 607q180 216 494 216
q257 0 411 -128q137 -115 183 -325zM705 1685v215h137v-215h-137z" />
    <glyph glyph-name="cdotaccent" unicode="&#x10b;" horiz-adv-x="1047" vert-adv-y="1433" 
d="M981 793l-131 -39q-31 120 -85 176q-73 76 -210 76q-168 0 -256 -137q-78 -120 -78 -328q0 -212 75 -327q88 -136 262 -136q172 0 250 124q37 57 58 148l127 -37q-103 -350 -431 -350q-214 0 -339 136q-141 153 -141 442q0 259 116 411q125 166 362 166q341 0 421 -325z
M484 1300v215h137v-215h-137z" />
    <glyph glyph-name="Ccaron" unicode="&#x10c;" horiz-adv-x="1464" vert-adv-y="1433" 
d="M1368 1128l-143 -38q-42 153 -120 238q-117 128 -329 128q-266 0 -403 -211q-119 -182 -119 -491q0 -297 126 -473q138 -191 389 -191q246 0 375 171q76 101 103 261l148 -22q-113 -537 -631 -537q-270 0 -442 162q-224 211 -224 633q0 388 182 607q180 216 494 216
q257 0 411 -128q137 -115 183 -325zM690 1659l-238 272h133l177 -180l176 180h133l-238 -272h-143z" />
    <glyph glyph-name="ccaron" unicode="&#x10d;" horiz-adv-x="1047" vert-adv-y="1433" 
d="M981 793l-131 -39q-31 120 -85 176q-73 76 -210 76q-168 0 -256 -137q-78 -120 -78 -328q0 -212 75 -327q88 -136 262 -136q172 0 250 124q37 57 58 148l127 -37q-103 -350 -431 -350q-214 0 -339 136q-141 153 -141 442q0 259 116 411q125 166 362 166q341 0 421 -325z
M482 1272l-238 272h133l177 -180l176 180h133l-238 -272h-143z" />
    <glyph glyph-name="Dcaron" unicode="&#x10e;" horiz-adv-x="1462" vert-adv-y="1433" 
d="M154 0v1544h464q746 0 746 -760q0 -394 -190 -589q-189 -195 -556 -195h-464zM297 129h332q304 0 452 187q129 162 129 462q0 637 -581 637h-332v-1286zM602 1659l-238 272h133l177 -180l176 180h133l-238 -272h-143z" />
    <glyph glyph-name="dcaron" unicode="&#x10f;" horiz-adv-x="1254" vert-adv-y="1433" 
d="M895 926v618h131v-1544h-131v170q-129 -207 -375 -207q-191 0 -306 129q-132 147 -132 430q0 266 112 422q124 174 352 174q218 0 349 -192zM558 1004q-158 0 -245 -114q-92 -120 -92 -352q0 -460 326 -460q162 0 255 122q97 127 97 347q0 195 -78 315q-93 142 -263 142z
M1135 1231v313h131l-31 -313h-100z" />
    <glyph glyph-name="Dcroat" unicode="&#x110;" horiz-adv-x="1462" vert-adv-y="1433" 
d="M154 0v723h-154v123h154v698h464q746 0 746 -760q0 -394 -190 -589q-189 -195 -556 -195h-464zM297 129h332q304 0 452 187q129 162 129 462q0 637 -581 637h-332v-569h348v-123h-348v-594z" />
    <glyph glyph-name="dcroat" unicode="&#x111;" horiz-adv-x="1159" vert-adv-y="1433" 
d="M557 1258v112h338v174h131v-174h134v-112h-134v-1258h-131v170q-129 -207 -377 -207q-210 0 -327 157q-109 146 -109 402q0 266 112 422q124 174 352 174q218 0 349 -192v332h-338zM558 1004q-158 0 -245 -114q-92 -120 -92 -352q0 -460 326 -460q162 0 255 122
q97 127 97 347q0 195 -78 315q-93 142 -263 142z" />
    <glyph glyph-name="Emacron" unicode="&#x112;" horiz-adv-x="1305" vert-adv-y="1433" 
d="M154 0v1544h1036v-129h-893v-563h848v-129h-848v-594h926v-129h-1069zM373 1729v112h603v-112h-603z" />
    <glyph glyph-name="emacron" unicode="&#x113;" horiz-adv-x="1116" vert-adv-y="1433" 
d="M1040 518h-819q6 -183 72 -292q89 -148 272 -148q161 0 249 100q43 49 83 156l123 -45q-37 -114 -109 -190q-127 -136 -344 -136q-211 0 -339 134q-146 154 -146 440q0 254 124 411q133 170 371 170q230 0 355 -149q110 -133 110 -348v-21v-22v-14v-14q0 -18 -2 -32z
M223 621h682q-1 154 -63 250q-89 139 -268 139q-187 0 -283 -157q-59 -97 -68 -232zM304 1344v112h548v-112h-548z" />
    <glyph glyph-name="Edotaccent" unicode="&#x116;" horiz-adv-x="1305" vert-adv-y="1433" 
d="M154 0v1544h1036v-129h-893v-563h848v-129h-848v-594h926v-129h-1069zM619 1686v215h137v-215h-137z" />
    <glyph glyph-name="edotaccent" unicode="&#x117;" horiz-adv-x="1116" vert-adv-y="1433" 
d="M1040 518h-819q6 -183 72 -292q89 -148 272 -148q161 0 249 100q43 49 83 156l123 -45q-37 -114 -109 -190q-127 -136 -344 -136q-211 0 -339 134q-146 154 -146 440q0 254 124 411q133 170 371 170q230 0 355 -149q110 -133 110 -348v-21v-22v-14v-14q0 -18 -2 -32z
M223 621h682q-1 154 -63 250q-89 139 -268 139q-187 0 -283 -157q-59 -97 -68 -232zM513 1301v215h137v-215h-137z" />
    <glyph glyph-name="Eogonek" unicode="&#x118;" horiz-adv-x="1305" vert-adv-y="1433" 
d="M1143 0q-5 -4 -11 -9q-82 -64 -82 -146q0 -75 77 -75q43 0 102 38v-99q-56 -37 -123 -37q-96 0 -142 63q-25 35 -25 80q0 106 126 185h-911v1544h1036v-129h-893v-563h848v-129h-848v-594h926v-129h-80z" />
    <glyph glyph-name="eogonek" unicode="&#x119;" horiz-adv-x="1116" vert-adv-y="1433" 
d="M669 -29q-60 -60 -60 -127q0 -75 77 -75q43 0 103 39v-99q-57 -38 -124 -38q-96 0 -142 63q-25 36 -25 80q0 78 77 149q-184 0 -304 95q-189 151 -189 479q0 254 124 411q133 170 371 170q230 0 355 -149q110 -133 110 -348v-21v-22v-14v-14q0 -18 -2 -32h-819
q6 -183 72 -292q89 -148 272 -148q162 0 249 100q44 49 83 156l123 -45q-87 -271 -351 -318zM223 621h682q-1 154 -63 250q-88 139 -268 139q-187 0 -283 -157q-59 -97 -68 -232z" />
    <glyph glyph-name="Ecaron" unicode="&#x11a;" horiz-adv-x="1305" vert-adv-y="1433" 
d="M154 0v1544h1036v-129h-893v-563h848v-129h-848v-594h926v-129h-1069zM628 1659l-238 272h133l177 -180l176 180h133l-238 -272h-143z" />
    <glyph glyph-name="ecaron" unicode="&#x11b;" horiz-adv-x="1116" vert-adv-y="1433" 
d="M1040 518h-819q6 -183 72 -292q89 -148 272 -148q161 0 249 100q43 49 83 156l123 -45q-37 -114 -109 -190q-127 -136 -344 -136q-211 0 -339 134q-146 154 -146 440q0 254 124 411q133 170 371 170q230 0 355 -149q110 -133 110 -348v-21v-22v-14v-14q0 -18 -2 -32z
M223 621h682q-1 154 -63 250q-89 139 -268 139q-187 0 -283 -157q-59 -97 -68 -232zM507 1272l-238 272h133l177 -180l176 180h133l-238 -272h-143z" />
    <glyph glyph-name="Gbreve" unicode="&#x11e;" horiz-adv-x="1481" vert-adv-y="1433" 
d="M1362 1159l-143 -39q-53 170 -161 255q-104 81 -287 81q-261 0 -398 -211q-119 -182 -119 -492q0 -302 124 -474q135 -189 384 -189q194 0 322 94q139 103 139 273v170h-250v127h393v-754h-92l-41 164q-187 -201 -473 -201q-270 0 -441 162q-221 210 -221 632
q0 389 182 608q180 216 495 216q253 0 408 -125q129 -105 179 -297zM457 1897h119q48 -108 197 -108q147 0 190 108h117q-51 -210 -311 -210q-262 0 -312 210z" />
    <glyph glyph-name="gbreve" unicode="&#x11f;" horiz-adv-x="1159" vert-adv-y="1433" 
d="M119 -166l114 45q32 -90 94 -133q79 -55 234 -55q139 0 212 45q52 33 81 81q41 69 41 214v162q-130 -211 -379 -211q-210 0 -325 148q-109 140 -109 394q0 266 112 421q124 173 354 173q224 0 347 -190v153h131v-1034q0 -270 -129 -379q-108 -92 -335 -92
q-224 0 -343 103q-70 59 -100 155zM555 1004q-156 0 -242 -112q-92 -120 -92 -352q0 -444 327 -444q161 0 254 115q97 121 97 341q0 223 -102 346q-88 106 -242 106zM267 1513h119q19 -45 66 -75q51 -33 131 -33q149 0 190 108h117q-53 -210 -311 -210q-263 0 -312 210z" />
    <glyph glyph-name="Gdotaccent" unicode="&#x120;" horiz-adv-x="1481" vert-adv-y="1433" 
d="M1362 1159l-143 -39q-53 170 -161 255q-104 81 -287 81q-261 0 -398 -211q-119 -182 -119 -492q0 -302 124 -474q135 -189 384 -189q194 0 322 94q139 103 139 273v170h-250v127h393v-754h-92l-41 164q-187 -201 -473 -201q-270 0 -441 162q-221 210 -221 632
q0 389 182 608q180 216 495 216q253 0 408 -125q129 -105 179 -297zM702 1685v215h137v-215h-137z" />
    <glyph glyph-name="gdotaccent" unicode="&#x121;" horiz-adv-x="1159" vert-adv-y="1433" 
d="M119 -166l114 45q32 -90 94 -133q79 -55 234 -55q139 0 212 45q52 33 81 81q41 69 41 214v162q-130 -211 -379 -211q-210 0 -325 148q-109 140 -109 394q0 266 112 421q124 173 354 173q224 0 347 -190v153h131v-1034q0 -270 -129 -379q-108 -92 -335 -92
q-224 0 -343 103q-70 59 -100 155zM555 1004q-156 0 -242 -112q-92 -120 -92 -352q0 -444 327 -444q161 0 254 115q97 121 97 341q0 223 -102 346q-88 106 -242 106zM509 1299v215h137v-215h-137z" />
    <glyph glyph-name="Gcommaaccent" unicode="&#x122;" horiz-adv-x="1481" vert-adv-y="1433" 
d="M1362 1159l-143 -39q-53 170 -161 255q-104 81 -287 81q-261 0 -398 -211q-119 -182 -119 -492q0 -302 124 -474q135 -189 384 -189q194 0 322 94q139 103 139 273v170h-250v127h393v-754h-92l-41 164q-187 -201 -473 -201q-270 0 -441 162q-221 210 -221 632
q0 389 182 608q180 216 495 216q253 0 408 -125q129 -105 179 -297zM550 -393l194 272h123l-164 -272h-153z" />
    <glyph glyph-name="gcommaaccent" unicode="&#x123;" horiz-adv-x="1159" vert-adv-y="1433" 
d="M119 -166l114 45q32 -90 94 -133q79 -55 234 -55q139 0 212 45q52 33 81 81q41 69 41 214v162q-130 -211 -379 -211q-210 0 -325 148q-109 140 -109 394q0 266 112 421q124 173 354 173q224 0 347 -190v153h131v-1034q0 -270 -129 -379q-108 -92 -335 -92
q-224 0 -343 103q-70 59 -100 155zM555 1004q-156 0 -242 -112q-92 -120 -92 -352q0 -444 327 -444q161 0 254 115q97 121 97 341q0 223 -102 346q-88 106 -242 106zM445 1272l194 272h123l-164 -272h-153z" />
    <glyph glyph-name="Hbar" unicode="&#x126;" horiz-adv-x="1487" vert-adv-y="1433" 
d="M154 1254h-132v112h132v178h143v-178h893v178h143v-178h149v-112h-149v-1254h-143v756h-893v-756h-143v1254zM297 1254v-369h893v369h-893z" />
    <glyph glyph-name="hbar" unicode="&#x127;" horiz-adv-x="1130" vert-adv-y="1433" 
d="M133 1308h-115v112h115v124h131v-124h313v-112h-313v-411q62 103 129 152q94 69 243 69q170 0 268 -102q93 -98 93 -264v-752h-131v717q0 284 -261 284q-165 0 -260 -151q-81 -128 -81 -309v-541h-131v1308z" />
    <glyph glyph-name="Imacron" unicode="&#x12a;" horiz-adv-x="451" vert-adv-y="1433" 
d="M154 0v1544h143v-1544h-143zM-74 1729v112h603v-112h-603z" />
    <glyph glyph-name="imacron" unicode="&#x12b;" horiz-adv-x="418" vert-adv-y="1433" 
d="M143 0v1081h131v-1081h-131zM-66 1344v112h548v-112h-548z" />
    <glyph glyph-name="Iogonek" unicode="&#x12e;" horiz-adv-x="451" vert-adv-y="1433" 
d="M280 0q-6 -5 -12 -9q-82 -63 -82 -147q0 -75 77 -75q43 0 103 39v-99q-57 -38 -121 -38q-75 0 -128 48q-42 37 -42 95q0 106 126 186h-47v1544h143v-1544h-17z" />
    <glyph glyph-name="iogonek" unicode="&#x12f;" horiz-adv-x="418" vert-adv-y="1433" 
d="M143 0v1081h131v-1081h-131zM143 1335v209h131v-209h-131zM179 0h79q-94 -74 -94 -155q0 -75 77 -75q43 0 103 38v-99q-58 -37 -124 -37q-96 0 -142 63q-25 35 -25 80q0 104 126 185z" />
    <glyph glyph-name="Idotaccent" unicode="&#x130;" horiz-adv-x="451" vert-adv-y="1433" 
d="M154 0v1544h143v-1544h-143zM157 1686v215h137v-215h-137z" />
    <glyph glyph-name="Kcommaaccent" unicode="&#x136;" horiz-adv-x="1360" vert-adv-y="1433" 
d="M154 0v1544h143v-770l795 770h174l-607 -598l701 -946h-184l-619 844l-260 -250v-594h-143zM478 -393l194 272h123l-164 -272h-153z" />
    <glyph glyph-name="kcommaaccent" unicode="&#x137;" horiz-adv-x="1001" vert-adv-y="1433" 
d="M133 0v1544h131v-932l502 469h168l-404 -379l465 -702h-161l-400 612l-170 -161v-451h-131zM289 -393l194 272h123l-164 -272h-153z" />
    <glyph glyph-name="Lacute" unicode="&#x139;" horiz-adv-x="1190" vert-adv-y="1433" 
d="M154 0v1544h143v-1415h852v-129h-995zM164 1659l164 272h153l-194 -272h-123z" />
    <glyph glyph-name="lacute" unicode="&#x13a;" horiz-adv-x="418" vert-adv-y="1433" 
d="M143 0v1544h131v-1544h-131zM145 1659l164 272h153l-194 -272h-123z" />
    <glyph glyph-name="Lcommaaccent" unicode="&#x13b;" horiz-adv-x="1190" vert-adv-y="1433" 
d="M154 0v1544h143v-1415h852v-129h-995zM429 -393l194 272h123l-164 -272h-153z" />
    <glyph glyph-name="lcommaaccent" unicode="&#x13c;" horiz-adv-x="418" vert-adv-y="1433" 
d="M142 0v1544h131v-1544h-131zM-42 -393l194 272h123l-164 -272h-153z" />
    <glyph glyph-name="Lcaron" unicode="&#x13d;" horiz-adv-x="1190" vert-adv-y="1433" 
d="M154 0v1544h143v-1415h852v-129h-995zM740 1231v313h131l-30 -313h-101z" />
    <glyph glyph-name="lcaron" unicode="&#x13e;" horiz-adv-x="521" vert-adv-y="1433" 
d="M143 0v1544h131v-1544h-131zM394 1231v313h131l-31 -313h-100z" />
    <glyph glyph-name="Lslash" unicode="&#x141;" horiz-adv-x="1190" vert-adv-y="1433" 
d="M154 0v614l-154 -112v151l154 113v778h143v-674l330 242v-151l-330 -242v-590h852v-129h-995z" />
    <glyph glyph-name="lslash" unicode="&#x142;" horiz-adv-x="418" vert-adv-y="1433" 
d="M143 0v678l-143 -107v125l143 105v743h131v-645l144 105v-123l-144 -107v-774h-131z" />
    <glyph glyph-name="Nacute" unicode="&#x143;" horiz-adv-x="1473" vert-adv-y="1433" 
d="M154 0v1544h190l832 -1360v1360h143v-1544h-189l-833 1362v-1362h-143zM664 1659l164 272h153l-194 -272h-123z" />
    <glyph glyph-name="nacute" unicode="&#x144;" horiz-adv-x="1130" vert-adv-y="1433" 
d="M133 0v1081h131v-188q61 105 125 153q97 72 247 72q170 0 268 -102q93 -98 93 -264v-752h-131v717q0 284 -261 284q-165 0 -261 -151q-80 -128 -80 -309v-541h-131zM482 1272l164 272h153l-194 -272h-123z" />
    <glyph glyph-name="Ncommaaccent" unicode="&#x145;" horiz-adv-x="1473" vert-adv-y="1433" 
d="M154 0v1544h190l832 -1360v1360h143v-1544h-189l-833 1362v-1362h-143zM534 -393l194 272h123l-164 -272h-153z" />
    <glyph glyph-name="ncommaaccent" unicode="&#x146;" horiz-adv-x="1130" vert-adv-y="1433" 
d="M133 0v1081h131v-188q61 105 125 153q97 72 247 72q170 0 268 -102q93 -98 93 -264v-752h-131v717q0 284 -261 284q-165 0 -261 -151q-80 -128 -80 -309v-541h-131zM351 -393l194 272h123l-164 -272h-153z" />
    <glyph glyph-name="Ncaron" unicode="&#x147;" horiz-adv-x="1473" vert-adv-y="1433" 
d="M154 0v1544h190l832 -1360v1360h143v-1544h-189l-833 1362v-1362h-143zM680 1659l-238 272h133l177 -180l176 180h133l-238 -272h-143z" />
    <glyph glyph-name="ncaron" unicode="&#x148;" horiz-adv-x="1130" vert-adv-y="1433" 
d="M133 0v1081h131v-188q61 105 125 153q97 72 247 72q170 0 268 -102q93 -98 93 -264v-752h-131v717q0 284 -261 284q-165 0 -261 -151q-80 -128 -80 -309v-541h-131zM493 1272l-238 272h133l177 -180l176 180h133l-238 -272h-143z" />
    <glyph glyph-name="Omacron" unicode="&#x14c;" horiz-adv-x="1608" vert-adv-y="1433" 
d="M803 1581q329 0 515 -211q191 -216 191 -598q0 -381 -191 -597q-187 -212 -510 -212q-298 0 -482 173q-228 216 -228 636q0 383 190 598q188 211 515 211zM803 1454q-260 0 -410 -200q-139 -184 -139 -482q0 -297 139 -483q150 -199 406 -199q239 0 386 164
q169 188 169 518q0 299 -140 482q-151 200 -411 200zM504 1729v112h603v-112h-603z" />
    <glyph glyph-name="omacron" unicode="&#x14d;" horiz-adv-x="1139" vert-adv-y="1433" 
d="M569 1118q238 0 368 -164q120 -154 120 -413q0 -260 -120 -413q-130 -165 -364 -165q-219 0 -346 135q-145 154 -145 443q0 261 119 413q130 164 368 164zM570 1006q-196 0 -286 -161q-63 -113 -63 -308q0 -204 79 -325q91 -136 266 -136q170 0 264 125q88 116 88 344
q0 204 -81 324q-92 137 -267 137zM303 1344v112h548v-112h-548z" />
    <glyph glyph-name="Ohungarumlaut" unicode="&#x150;" horiz-adv-x="1608" vert-adv-y="1433" 
d="M803 1581q329 0 515 -211q191 -216 191 -598q0 -381 -191 -597q-187 -212 -510 -212q-298 0 -482 173q-228 216 -228 636q0 383 190 598q188 211 515 211zM803 1454q-260 0 -410 -200q-139 -184 -139 -482q0 -297 139 -483q150 -199 406 -199q239 0 386 164
q169 188 169 518q0 299 -140 482q-151 200 -411 200zM627 1659l92 272h125l-114 -272h-103zM861 1659l92 272h125l-115 -272h-102z" />
    <glyph glyph-name="ohungarumlaut" unicode="&#x151;" horiz-adv-x="1139" vert-adv-y="1433" 
d="M569 1118q238 0 368 -164q120 -154 120 -413q0 -260 -120 -413q-130 -165 -364 -165q-219 0 -346 135q-145 154 -145 443q0 261 119 413q130 164 368 164zM570 1006q-196 0 -286 -161q-63 -113 -63 -308q0 -204 79 -325q91 -136 266 -136q170 0 264 125q88 116 88 344
q0 204 -81 324q-92 137 -267 137zM400 1272l92 272h125l-114 -272h-103zM634 1272l92 272h125l-115 -272h-102z" />
    <glyph glyph-name="Racute" unicode="&#x154;" horiz-adv-x="1382" vert-adv-y="1433" 
d="M154 0v1544h626q242 0 367 -117q121 -113 121 -321q0 -159 -89 -281q-72 -100 -202 -147l336 -678h-168l-309 651q-16 -2 -27 -2h-15h-16h-481v-649h-143zM297 774h467q184 0 274 95q78 84 78 236q0 177 -117 256q-87 58 -235 58h-467v-645zM525 1659l164 272h153
l-194 -272h-123z" />
    <glyph glyph-name="racute" unicode="&#x155;" horiz-adv-x="651" vert-adv-y="1433" 
d="M133 0v1081h131v-190q55 106 126 158q61 45 155 45q57 0 106 -13l-14 -114q-35 12 -90 12q-130 0 -200 -94q-83 -111 -83 -330v-555h-131zM225 1272l164 272h153l-194 -272h-123z" />
    <glyph glyph-name="Rcommaaccent" unicode="&#x156;" horiz-adv-x="1382" vert-adv-y="1433" 
d="M154 0v1544h626q242 0 367 -117q121 -113 121 -321q0 -159 -89 -281q-72 -100 -202 -147l336 -678h-168l-309 651q-16 -2 -27 -2h-15h-16h-481v-649h-143zM297 774h467q184 0 274 95q78 84 78 236q0 177 -117 256q-87 58 -235 58h-467v-645zM451 -393l194 272h123
l-164 -272h-153z" />
    <glyph glyph-name="rcommaaccent" unicode="&#x157;" horiz-adv-x="651" vert-adv-y="1433" 
d="M133 0v1081h131v-190q55 106 126 158q61 45 155 45q57 0 106 -13l-14 -114q-35 12 -90 12q-130 0 -200 -94q-83 -111 -83 -330v-555h-131zM-39 -393l194 272h123l-164 -272h-153z" />
    <glyph glyph-name="Rcaron" unicode="&#x158;" horiz-adv-x="1382" vert-adv-y="1433" 
d="M154 0v1544h626q242 0 367 -117q121 -113 121 -321q0 -159 -89 -281q-72 -100 -202 -147l336 -678h-168l-309 651q-16 -2 -27 -2h-15h-16h-481v-649h-143zM297 774h467q184 0 274 95q78 84 78 236q0 177 -117 256q-87 58 -235 58h-467v-645zM585 1659l-238 272h133
l177 -180l176 180h133l-238 -272h-143z" />
    <glyph glyph-name="rcaron" unicode="&#x159;" horiz-adv-x="651" vert-adv-y="1433" 
d="M133 0v1081h131v-190q55 106 126 158q61 45 155 45q57 0 106 -13l-14 -114q-35 12 -90 12q-130 0 -200 -94q-83 -111 -83 -330v-555h-131zM284 1272l-238 272h133l177 -180l176 180h133l-238 -272h-143z" />
    <glyph glyph-name="Sacute" unicode="&#x15a;" horiz-adv-x="1339" vert-adv-y="1433" 
d="M61 410l142 34q43 -153 105 -222q115 -130 352 -130q427 0 427 296q0 130 -78 203q-72 68 -223 97l-262 51q-418 82 -418 420q0 188 131 300q142 122 404 122q269 0 412 -117q112 -92 164 -272l-134 -43q-50 142 -126 209q-109 98 -316 98q-194 0 -295 -81
q-92 -73 -92 -208q0 -119 73 -188q73 -68 226 -98l299 -58q203 -39 297 -145q96 -107 96 -280q0 -197 -134 -308q-151 -127 -445 -127q-278 0 -428 128q-121 103 -177 319zM561 1659l164 272h153l-194 -272h-123z" />
    <glyph glyph-name="sacute" unicode="&#x15b;" horiz-adv-x="989" vert-adv-y="1433" 
d="M47 297l121 31q34 -119 82 -171q78 -83 237 -83q132 0 208 51q75 52 75 149q0 84 -48 131q-45 44 -142 64l-191 39q-301 62 -301 303q0 142 113 228q104 79 280 79q330 0 414 -293l-117 -32q-39 119 -119 172q-68 45 -188 45q-131 0 -198 -57q-56 -48 -56 -136
q0 -79 48 -124q49 -45 163 -68l207 -41q270 -54 270 -308q0 -153 -122 -238q-107 -75 -291 -75q-208 0 -321 103q-81 73 -124 231zM377 1272l164 272h153l-194 -272h-123z" />
    <glyph glyph-name="Scedilla" unicode="&#x15e;" horiz-adv-x="1339" vert-adv-y="1433" 
d="M61 410l142 34q43 -153 105 -222q115 -130 352 -130q427 0 427 296q0 130 -78 203q-72 68 -223 97l-262 51q-418 82 -418 420q0 188 131 300q142 122 404 122q269 0 412 -117q112 -92 164 -272l-134 -43q-50 142 -126 209q-109 98 -316 98q-194 0 -295 -81
q-92 -73 -92 -208q0 -119 73 -188q73 -68 226 -98l299 -58q203 -39 297 -145q96 -107 96 -280q0 -197 -134 -308q-151 -127 -445 -127q-278 0 -428 128q-121 103 -177 319zM451 -393l194 272h123l-164 -272h-153z" />
    <glyph glyph-name="scedilla" unicode="&#x15f;" horiz-adv-x="989" vert-adv-y="1433" 
d="M47 297l121 31q34 -119 82 -171q78 -83 237 -83q132 0 208 51q75 52 75 149q0 84 -48 131q-45 44 -142 64l-191 39q-301 62 -301 303q0 142 113 228q104 79 280 79q330 0 414 -293l-117 -32q-39 119 -119 172q-68 45 -188 45q-131 0 -198 -57q-56 -48 -56 -136
q0 -79 48 -124q49 -45 163 -68l207 -41q270 -54 270 -308q0 -153 -122 -238q-107 -75 -291 -75q-208 0 -321 103q-81 73 -124 231zM290 -393l194 272h123l-164 -272h-153z" />
    <glyph glyph-name="Scaron" unicode="&#x160;" horiz-adv-x="1339" vert-adv-y="1433" 
d="M61 410l142 34q43 -153 105 -222q115 -130 352 -130q427 0 427 296q0 130 -78 203q-72 68 -223 97l-262 51q-418 82 -418 420q0 188 131 300q142 122 404 122q269 0 412 -117q112 -92 164 -272l-134 -43q-50 142 -126 209q-109 98 -316 98q-194 0 -295 -81
q-92 -73 -92 -208q0 -119 73 -188q73 -68 226 -98l299 -58q203 -39 297 -145q96 -107 96 -280q0 -197 -134 -308q-151 -127 -445 -127q-278 0 -428 128q-121 103 -177 319zM593 1659l-238 272h133l177 -180l176 180h133l-238 -272h-143z" />
    <glyph glyph-name="scaron" unicode="&#x161;" horiz-adv-x="989" vert-adv-y="1433" 
d="M47 297l121 31q34 -119 82 -171q78 -83 237 -83q132 0 208 51q75 52 75 149q0 84 -48 131q-45 44 -142 64l-191 39q-301 62 -301 303q0 142 113 228q104 79 280 79q330 0 414 -293l-117 -32q-39 119 -119 172q-68 45 -188 45q-131 0 -198 -57q-56 -48 -56 -136
q0 -79 48 -124q49 -45 163 -68l207 -41q270 -54 270 -308q0 -153 -122 -238q-107 -75 -291 -75q-208 0 -321 103q-81 73 -124 231zM408 1272l-238 272h133l177 -180l176 180h133l-238 -272h-143z" />
    <glyph glyph-name="Tcommaaccent" unicode="&#x162;" horiz-adv-x="1368" vert-adv-y="1433" 
d="M612 0v1415h-561v129h1266v-129h-561v-1415h-144zM435 -393l194 272h123l-164 -272h-153z" />
    <glyph glyph-name="tcommaaccent" unicode="&#x163;" horiz-adv-x="639" vert-adv-y="1433" 
d="M205 973h-148v108h148v308h131v-308h235v-108h-235v-721q0 -87 33 -122q28 -30 102 -30q59 0 111 9l10 -117q-109 -12 -168 -12q-97 0 -148 41q-71 57 -71 196v756zM85 -393l194 272h123l-164 -272h-153z" />
    <glyph glyph-name="Tcaron" unicode="&#x164;" horiz-adv-x="1368" vert-adv-y="1433" 
d="M612 0v1415h-561v129h1266v-129h-561v-1415h-144zM614 1659l-238 272h133l177 -180l176 180h133l-238 -272h-143z" />
    <glyph glyph-name="tcaron" unicode="&#x165;" horiz-adv-x="639" vert-adv-y="1433" 
d="M205 973h-148v108h148v308h131v-308h235v-108h-235v-721q0 -87 33 -122q28 -30 102 -30q59 0 111 9l10 -117q-109 -12 -168 -12q-97 0 -148 41q-71 57 -71 196v756zM462 1231v313h131l-31 -313h-100z" />
    <glyph glyph-name="Umacron" unicode="&#x16a;" horiz-adv-x="1440" vert-adv-y="1433" 
d="M143 1544h144v-952q0 -271 119 -393q105 -109 316 -109q209 0 314 109q117 122 117 393v952h143v-964q0 -617 -572 -617q-581 0 -581 617v964zM421 1729v112h603v-112h-603z" />
    <glyph glyph-name="umacron" unicode="&#x16b;" horiz-adv-x="1130" vert-adv-y="1433" 
d="M133 1081h131v-716q0 -129 58 -202q67 -85 200 -85q167 0 263 153q81 128 81 308v542h131v-1081h-131v190q-60 -106 -126 -154q-98 -73 -250 -73q-130 0 -220 64q-137 97 -137 303v751zM291 1344v112h548v-112h-548z" />
    <glyph glyph-name="Uring" unicode="&#x16e;" horiz-adv-x="1440" vert-adv-y="1433" 
d="M143 1544h144v-952q0 -271 119 -393q105 -109 316 -109q209 0 314 109q117 122 117 393v952h143v-964q0 -617 -572 -617q-581 0 -581 617v964zM721 1934q129 0 190 -79q42 -54 42 -141q0 -108 -71 -165q-60 -49 -163 -49q-107 0 -169 52q-68 58 -68 165q0 110 70 168
q59 49 169 49zM716 1856q-81 0 -122 -53q-26 -34 -26 -87q0 -69 49 -108q37 -30 99 -30q69 0 113 40q38 36 38 101q0 64 -43 101q-42 36 -108 36z" />
    <glyph glyph-name="uring" unicode="&#x16f;" horiz-adv-x="1130" vert-adv-y="1433" 
d="M133 1081h131v-716q0 -129 58 -202q67 -85 200 -85q167 0 263 153q81 128 81 308v542h131v-1081h-131v190q-60 -106 -126 -154q-98 -73 -250 -73q-130 0 -220 64q-137 97 -137 303v751zM577 1614q123 0 181 -75q40 -51 40 -134q0 -102 -68 -157q-57 -46 -154 -46
q-103 0 -161 50q-65 54 -65 156q0 105 67 160q56 46 160 46zM572 1536q-60 0 -101 -37q-35 -31 -35 -90q0 -65 45 -101q34 -28 93 -28q63 0 103 37q35 33 35 94q0 72 -57 104q-37 21 -83 21z" />
    <glyph glyph-name="Uhungarumlaut" unicode="&#x170;" horiz-adv-x="1440" vert-adv-y="1433" 
d="M143 1544h144v-952q0 -271 119 -393q105 -109 316 -109q209 0 314 109q117 122 117 393v952h143v-964q0 -617 -572 -617q-581 0 -581 617v964zM526 1659l92 272h125l-114 -272h-103zM760 1659l92 272h125l-115 -272h-102z" />
    <glyph glyph-name="uhungarumlaut" unicode="&#x171;" horiz-adv-x="1130" vert-adv-y="1433" 
d="M133 1081h131v-716q0 -129 58 -202q67 -85 200 -85q167 0 263 153q81 128 81 308v542h131v-1081h-131v190q-60 -106 -126 -154q-98 -73 -250 -73q-130 0 -220 64q-137 97 -137 303v751zM392 1272l92 272h125l-114 -272h-103zM626 1272l92 272h125l-115 -272h-102z" />
    <glyph glyph-name="Uogonek" unicode="&#x172;" horiz-adv-x="1440" vert-adv-y="1433" 
d="M836 -30q-58 -59 -58 -126q0 -74 77 -74q43 0 103 38v-99q-58 -37 -124 -37q-96 0 -142 63q-25 35 -25 80q0 77 78 148h-23q-579 0 -579 617v964h144v-952q0 -271 119 -393q105 -109 317 -109q209 0 313 109q117 122 117 393v952h143v-964q0 -331 -164 -483
q-108 -101 -296 -127z" />
    <glyph glyph-name="uogonek" unicode="&#x173;" horiz-adv-x="1130" vert-adv-y="1433" 
d="M977 0q-6 -4 -12 -9q-82 -65 -82 -146q0 -75 77 -75q43 0 103 38v-99q-57 -37 -124 -37q-96 0 -142 63q-25 35 -25 80q0 105 126 185h-32v190q-60 -106 -126 -154q-98 -73 -250 -73q-130 0 -220 64q-137 97 -137 303v751h131v-716q0 -129 58 -202q67 -85 200 -85
q167 0 263 153q81 128 81 308v542h131v-1081h-20z" />
    <glyph glyph-name="Zacute" unicode="&#x179;" horiz-adv-x="1253" vert-adv-y="1433" 
d="M76 0v131l932 1284h-902v129h1061v-131l-931 -1284h948v-129h-1108zM542 1659l164 272h153l-194 -272h-123z" />
    <glyph glyph-name="zacute" unicode="&#x17a;" horiz-adv-x="922" vert-adv-y="1433" 
d="M61 0v106l631 867h-604v108h750v-106l-633 -866h655v-109h-799zM377 1272l164 272h153l-194 -272h-123z" />
    <glyph glyph-name="Zdotaccent" unicode="&#x17b;" horiz-adv-x="1253" vert-adv-y="1433" 
d="M76 0v131l932 1284h-902v129h1061v-131l-931 -1284h948v-129h-1108zM572 1686v215h137v-215h-137z" />
    <glyph glyph-name="zdotaccent" unicode="&#x17c;" horiz-adv-x="922" vert-adv-y="1433" 
d="M61 0v106l631 867h-604v108h750v-106l-633 -866h655v-109h-799zM403 1299v215h137v-215h-137z" />
    <glyph glyph-name="Zcaron" unicode="&#x17d;" horiz-adv-x="1253" vert-adv-y="1433" 
d="M76 0v131l932 1284h-902v129h1061v-131l-931 -1284h948v-129h-1108zM574 1659l-238 272h133l177 -180l176 180h133l-238 -272h-143z" />
    <glyph glyph-name="zcaron" unicode="&#x17e;" horiz-adv-x="922" vert-adv-y="1433" 
d="M61 0v106l631 867h-604v108h750v-106l-633 -866h655v-109h-799zM393 1272l-238 272h133l177 -180l176 180h133l-238 -272h-143z" />
    <glyph glyph-name="uni018F" unicode="&#x18f;" horiz-adv-x="1572" vert-adv-y="1433" 
d="M1333 841q-10 217 -112 377q-151 236 -436 236q-202 0 -333 -117q-70 -63 -161 -180l-118 95q100 138 198 209q166 120 413 120q328 0 515 -211q191 -216 191 -597q0 -382 -190 -597q-188 -213 -515 -213q-294 0 -477 173q-110 104 -169 263q-60 164 -60 349q0 30 3 92h3
l-1 1h1249zM1332 690h-1093l1 -10l-1 1q22 -215 110 -355q149 -236 434 -236q262 0 412 200q117 154 137 400z" />
    <glyph glyph-name="uni0259" unicode="&#x259;" horiz-adv-x="1139" vert-adv-y="1433" 
d="M86 603h830q-9 143 -64 242q-90 161 -282 161q-113 0 -187 -51q-42 -29 -100 -108l-105 78q74 90 123 121q113 72 268 72q238 0 368 -164q120 -154 120 -413q0 -260 -120 -413q-130 -165 -366 -165q-217 0 -344 135q-72 77 -109 191q-36 113 -36 235q0 26 4 79zM223 474
q12 -143 62 -237q89 -161 283 -161q195 0 286 162q49 86 61 236h-692z" />
    <glyph glyph-name="uni037E" unicode="&#x37e;" horiz-adv-x="465" vert-adv-y="1433" 
d="M154 -369l-66 64q133 142 133 280v25h-78v250h179v-240q0 -207 -168 -379zM143 831v250h179v-250h-179z" />
    <glyph glyph-name="tonos" unicode="&#x384;" horiz-adv-x="474" vert-adv-y="1433" 
d="M189 952l-37 428v164h170v-164l-34 -428h-99z" />
    <glyph glyph-name="dieresistonos" unicode="&#x385;" horiz-adv-x="776" vert-adv-y="1433" 
d="M344 1465l-34 256v98h157v-98l-31 -256h-92zM153 1303v209h137v-209h-137zM485 1303v209h137v-209h-137z" />
    <glyph glyph-name="Alphatonos" unicode="&#x386;" horiz-adv-x="1358" vert-adv-y="1433" 
d="M0 0l588 1544h184l586 -1544h-156l-153 412h-756l-156 -412h-137zM340 535h661l-327 878zM156 952l-37 428v164h170v-164l-34 -428h-99z" />
    <glyph glyph-name="anoteleia" unicode="&#x387;" horiz-adv-x="465" vert-adv-y="1433" 
d="M143 606v250h179v-250h-179z" />
    <glyph glyph-name="Epsilontonos" unicode="&#x388;" horiz-adv-x="1370" vert-adv-y="1433" 
d="M218 0v1544h1036v-129h-893v-563h848v-129h-848v-594h926v-129h-1069zM17 952l-37 428v164h170v-164l-34 -428h-99z" />
    <glyph glyph-name="Etatonos" unicode="&#x389;" horiz-adv-x="1551" vert-adv-y="1433" 
d="M218 0v1544h143v-659h893v659h143v-1544h-143v756h-893v-756h-143zM17 952l-37 428v164h170v-164l-34 -428h-99z" />
    <glyph glyph-name="Iotatonos" unicode="&#x38a;" horiz-adv-x="515" vert-adv-y="1433" 
d="M218 0v1544h143v-1544h-143zM17 952l-37 428v164h170v-164l-34 -428h-99z" />
    <glyph glyph-name="Omicrontonos" unicode="&#x38c;" horiz-adv-x="1684" vert-adv-y="1433" 
d="M879 1581q329 0 515 -211q191 -216 191 -598q0 -381 -191 -597q-187 -212 -510 -212q-298 0 -482 173q-228 216 -228 636q0 383 190 598q188 211 515 211zM879 1454q-260 0 -410 -200q-139 -184 -139 -482q0 -297 139 -483q150 -199 406 -199q239 0 386 164
q169 188 169 518q0 299 -140 482q-151 200 -411 200zM17 952l-37 428v164h170v-164l-34 -428h-99z" />
    <glyph glyph-name="Upsilontonos" unicode="&#x38e;" horiz-adv-x="1407" vert-adv-y="1433" 
d="M723 0v592l-539 952h158l458 -815l455 815h152l-541 -952v-592h-143zM17 952l-37 428v164h170v-164l-34 -428h-99z" />
    <glyph glyph-name="Omegatonos" unicode="&#x38f;" horiz-adv-x="1675" vert-adv-y="1433" 
d="M1203 131h373v-131h-588v163q133 28 233 109q207 169 207 521q0 288 -136 464q-77 99 -199 152q-101 45 -214 45q-166 0 -303 -94q-145 -100 -206 -288q-41 -126 -41 -279q0 -386 248 -550q87 -58 194 -80v-163h-589v131h373q-84 33 -154 96q-227 202 -227 579
q0 330 177 541q197 234 528 234t527 -234q177 -211 177 -541q0 -251 -105 -431q-104 -177 -275 -244zM17 952l-37 428v164h170v-164l-34 -428h-99z" />
    <glyph glyph-name="iotadieresistonos" unicode="&#x390;" horiz-adv-x="439" vert-adv-y="1433" 
d="M285 1081v-1081h-131v1081h131zM176 1465l-34 256v98h157v-98l-31 -256h-92zM-15 1303v209h137v-209h-137zM317 1303v209h137v-209h-137z" />
    <glyph glyph-name="Alpha" unicode="&#x391;" horiz-adv-x="1358" vert-adv-y="1433" 
d="M0 0l588 1544h184l586 -1544h-156l-153 412h-756l-156 -412h-137zM340 535h661l-327 878z" />
    <glyph glyph-name="Beta" unicode="&#x392;" horiz-adv-x="1386" vert-adv-y="1433" 
d="M154 0v1544h591q474 0 474 -369q0 -150 -76 -240q-44 -52 -121 -95q125 -40 190 -109q93 -100 93 -284q0 -447 -562 -447h-589zM297 125h426q202 0 305 68q121 81 121 257q0 181 -126 258q-90 56 -265 56h-461v-639zM297 889h405q363 0 363 266q0 150 -92 210
q-81 54 -250 54h-426v-530z" />
    <glyph glyph-name="Gamma" unicode="&#x393;" horiz-adv-x="1190" vert-adv-y="1433" 
d="M154 1544h995v-129h-852v-1415h-143v1544z" />
    <glyph glyph-name="uni0394" unicode="&#x394;" horiz-adv-x="1358" vert-adv-y="1433" 
d="M1358 0h-1358l588 1544h184zM187 131h967l-480 1282z" />
    <glyph glyph-name="Epsilon" unicode="&#x395;" horiz-adv-x="1305" vert-adv-y="1433" 
d="M154 0v1544h1036v-129h-893v-563h848v-129h-848v-594h926v-129h-1069z" />
    <glyph glyph-name="Zeta" unicode="&#x396;" horiz-adv-x="1253" vert-adv-y="1433" 
d="M76 0v131l932 1284h-902v129h1061v-131l-931 -1284h948v-129h-1108z" />
    <glyph glyph-name="Eta" unicode="&#x397;" horiz-adv-x="1487" vert-adv-y="1433" 
d="M154 0v1544h143v-659h893v659h143v-1544h-143v756h-893v-756h-143z" />
    <glyph glyph-name="Theta" unicode="&#x398;" horiz-adv-x="1608" vert-adv-y="1433" 
d="M441 723v129h726v-129h-726zM803 1574q329 0 515 -212q191 -215 191 -597q0 -381 -191 -597q-187 -212 -510 -212q-298 0 -482 173q-228 216 -228 636q0 382 190 597q188 212 515 212zM803 1447q-260 0 -410 -199q-139 -185 -139 -483q0 -297 139 -483q150 -199 406 -199
q239 0 386 164q169 188 169 518q0 299 -140 483q-151 199 -411 199z" />
    <glyph glyph-name="Iota" unicode="&#x399;" horiz-adv-x="451" vert-adv-y="1433" 
d="M154 0v1544h143v-1544h-143z" />
    <glyph glyph-name="Kappa" unicode="&#x39a;" horiz-adv-x="1360" vert-adv-y="1433" 
d="M154 0v1544h143v-770l795 770h174l-607 -598l701 -946h-184l-619 844l-260 -250v-594h-143z" />
    <glyph glyph-name="Lambda" unicode="&#x39b;" horiz-adv-x="1358" vert-adv-y="1433" 
d="M137 0h-137l588 1544h184l586 -1544h-156l-528 1413z" />
    <glyph glyph-name="Mu" unicode="&#x39c;" horiz-adv-x="1817" vert-adv-y="1433" 
d="M154 0v1544h249l496 -1390l531 1390h233v-1544h-139v1421l-541 -1421h-182l-508 1436v-1436h-139z" />
    <glyph glyph-name="Nu" unicode="&#x39d;" horiz-adv-x="1473" vert-adv-y="1433" 
d="M154 0v1544h190l832 -1360v1360h143v-1544h-189l-833 1362v-1362h-143z" />
    <glyph glyph-name="Xi" unicode="&#x39e;" horiz-adv-x="1434" vert-adv-y="1433" 
d="M174 1544h1086v-129h-1086v129zM154 129h1126v-129h-1126v129zM1188 852v-129h-942v129h942z" />
    <glyph glyph-name="Omicron" unicode="&#x39f;" horiz-adv-x="1608" vert-adv-y="1433" 
d="M803 1581q329 0 515 -211q191 -216 191 -598q0 -381 -191 -597q-187 -212 -510 -212q-298 0 -482 173q-228 216 -228 636q0 383 190 598q188 211 515 211zM803 1454q-260 0 -410 -200q-139 -184 -139 -482q0 -297 139 -483q150 -199 406 -199q239 0 386 164
q169 188 169 518q0 299 -140 482q-151 200 -411 200z" />
    <glyph glyph-name="Pi" unicode="&#x3a0;" horiz-adv-x="1473" vert-adv-y="1433" 
d="M1176 1415h-879v-1415h-143v1544h1165v-1544h-143v1415z" />
    <glyph glyph-name="Rho" unicode="&#x3a1;" horiz-adv-x="1305" vert-adv-y="1433" 
d="M154 0v1544h622q223 0 347 -123q120 -119 120 -333q0 -213 -134 -336q-137 -125 -374 -125h-438v-627h-143zM297 750h451q171 0 264 104q80 89 80 239q0 177 -118 264q-84 62 -220 62h-457v-669z" />
    <glyph glyph-name="Sigma" unicode="&#x3a3;" horiz-adv-x="1248" vert-adv-y="1433" 
d="M59 0v131l530 653l-442 631v129h1024v-129h-832l442 -631l-531 -653h953v-131h-1144z" />
    <glyph glyph-name="Tau" unicode="&#x3a4;" horiz-adv-x="1368" vert-adv-y="1433" 
d="M612 0v1415h-561v129h1266v-129h-561v-1415h-144z" />
    <glyph glyph-name="Upsilon" unicode="&#x3a5;" horiz-adv-x="1223" vert-adv-y="1433" 
d="M539 0v592l-539 952h158l458 -815l455 815h152l-541 -952v-592h-143z" />
    <glyph glyph-name="Phi" unicode="&#x3a6;" horiz-adv-x="1613" vert-adv-y="1433" 
d="M878 1544v-121q265 -2 441 -122q141 -96 210 -257q54 -126 54 -272q0 -208 -106 -369q-185 -279 -599 -282v-121h-142v121q-265 2 -441 122q-141 97 -210 257q-54 125 -54 272q0 209 106 369q185 279 599 282v121h142zM736 248v1048q-220 -1 -356 -96
q-194 -136 -194 -428q0 -322 233 -453q126 -70 317 -71zM878 248q221 1 356 96q194 136 194 428q0 322 -233 453q-126 70 -317 71v-1048z" />
    <glyph glyph-name="Chi" unicode="&#x3a7;" horiz-adv-x="1221" vert-adv-y="1433" 
d="M0 0l532 797l-495 747h164l411 -631l418 631h148l-492 -735l535 -809h-162l-455 692l-457 -692h-147z" />
    <glyph glyph-name="Psi" unicode="&#x3a8;" horiz-adv-x="1557" vert-adv-y="1433" 
d="M707 519v1025h143v-1025q244 9 369 155q76 87 92 234q5 49 5 104v532h143v-500q0 -129 -19 -232q-54 -283 -345 -379q-115 -37 -245 -42v-391h-143v391q-313 12 -472 181q-113 121 -132 348q-5 58 -5 124v500h143v-532q0 -102 19 -185q28 -128 140 -212q117 -89 307 -96z
" />
    <glyph glyph-name="uni03A9" unicode="&#x3a9;" horiz-adv-x="1607" vert-adv-y="1433" 
d="M1128 131h373v-131h-588v163q133 28 233 109q207 169 207 521q0 288 -136 464q-77 99 -199 152q-101 45 -214 45q-166 0 -303 -94q-145 -100 -206 -288q-41 -126 -41 -279q0 -386 248 -550q87 -58 194 -80v-163h-589v131h373q-84 33 -154 96q-227 202 -227 579
q0 330 177 541q197 234 528 234t527 -234q177 -211 177 -541q0 -251 -105 -431q-104 -177 -275 -244z" />
    <glyph glyph-name="Iotadieresis" unicode="&#x3aa;" horiz-adv-x="451" vert-adv-y="1433" 
d="M154 0v1544h143v-1544h-143zM-6 1687v209h137v-209h-137zM326 1687v209h137v-209h-137z" />
    <glyph glyph-name="Upsilondieresis" unicode="&#x3ab;" horiz-adv-x="1223" vert-adv-y="1433" 
d="M539 0v592l-539 952h158l458 -815l455 815h152l-541 -952v-592h-143zM388 1688v209h137v-209h-137zM720 1688v209h137v-209h-137z" />
    <glyph glyph-name="alphatonos" unicode="&#x3ac;" horiz-adv-x="1247" vert-adv-y="1433" 
d="M559 1253l-34 256v98h157v-98l-31 -256h-92zM940 771l61 317h142l-130 -515l152 -573h-142l-89 335q-88 -198 -178 -276q-103 -89 -244 -89q-153 0 -261 97q-80 73 -125 199q-44 125 -44 277q0 206 81 352q122 223 374 223q195 0 309 -153q52 -68 94 -194zM885 553
q-37 152 -68 222q-105 231 -293 231q-148 0 -228 -136q-75 -129 -75 -337q0 -249 106 -367q75 -84 179 -84q88 0 153 50q89 68 155 211q23 49 45 118q27 88 26 92z" />
    <glyph glyph-name="epsilontonos" unicode="&#x3ad;" horiz-adv-x="1019" vert-adv-y="1433" 
d="M445 1253l-34 256v98h157v-98l-31 -256h-92zM593 612v-109h-98l-61 1q-110 0 -167 -52q-60 -54 -60 -144q0 -104 80 -168q73 -59 188 -59q249 0 332 258l126 -36q-111 -334 -459 -334q-195 0 -307 104q-99 92 -99 231q0 198 201 257q-56 23 -90 59q-72 78 -72 189
q0 162 136 248q97 61 241 61q220 0 340 -133q67 -74 93 -197l-130 -39q-19 106 -79 168q-87 89 -233 89q-90 0 -146 -39q-83 -57 -83 -165q0 -123 104 -169q47 -21 145 -21h98z" />
    <glyph glyph-name="etatonos" unicode="&#x3ae;" horiz-adv-x="1123" vert-adv-y="1433" 
d="M507 1253l-34 256v98h157v-98l-31 -256h-92zM129 0v1081h131v-188q61 105 125 153q97 72 247 72q170 0 268 -102q93 -98 93 -264v-1107h-131v1072q0 284 -261 284q-165 0 -261 -151q-80 -128 -80 -309v-541h-131z" />
    <glyph glyph-name="iotatonos" unicode="&#x3af;" horiz-adv-x="444" vert-adv-y="1433" 
d="M177 1253l-34 256v98h157v-98l-31 -256h-92zM157 0v1081h131v-1081h-131z" />
    <glyph glyph-name="upsilondieresistonos" unicode="&#x3b0;" horiz-adv-x="1123" vert-adv-y="1433" 
d="M862 1081h131v-751q0 -215 -148 -310q-53 -34 -137 -50q-79 -15 -143 -15q-436 0 -436 375v751h131v-716q0 -293 301 -293t301 293v716zM517 1465l-34 256v98h157v-98l-31 -256h-92zM326 1303v209h137v-209h-137zM658 1303v209h137v-209h-137z" />
    <glyph glyph-name="alpha" unicode="&#x3b1;" horiz-adv-x="1247" vert-adv-y="1433" 
d="M940 771l61 310h142l-130 -508l152 -573h-142l-89 335q-88 -198 -178 -276q-103 -89 -244 -89q-153 0 -261 97q-80 73 -125 199q-44 125 -44 277q0 206 81 352q122 223 374 223q195 0 309 -153q52 -68 94 -194zM885 553q-37 152 -68 222q-105 231 -293 231
q-148 0 -228 -136q-75 -129 -75 -337q0 -249 106 -367q75 -84 179 -84q88 0 153 50q89 68 155 211q23 49 45 118q27 88 26 92z" />
    <glyph glyph-name="beta" unicode="&#x3b2;" horiz-adv-x="1182" vert-adv-y="1433" 
d="M282 172v-527h-131v1469q0 238 139 353q119 98 313 98q190 0 308 -104q96 -84 96 -234q0 -262 -272 -365q187 -18 278 -131q82 -102 82 -294q0 -202 -130 -331q-124 -124 -320 -124q-102 0 -167 26q-106 44 -196 164zM483 793v118h22q128 0 220 53q145 85 145 259
q0 127 -93 188q-68 45 -192 45q-303 0 -303 -366v-499q0 -86 2 -109t13 -63q48 -177 147 -253q84 -66 183 -66q93 0 173 43q156 85 156 301q0 169 -91 251q-110 98 -362 98h-20z" />
    <glyph glyph-name="gamma" unicode="&#x3b3;" horiz-adv-x="910" vert-adv-y="1433" 
d="M523 -17v-338h-133v338l-390 1098h141l316 -925l322 925h131z" />
    <glyph glyph-name="delta" unicode="&#x3b4;" horiz-adv-x="1139" vert-adv-y="1433" 
d="M577 1118l-362 330v96h794v-109h-600l427 -385q73 -62 101 -96q120 -151 120 -413q0 -260 -120 -413q-130 -165 -366 -165q-217 0 -344 135q-145 154 -145 443q0 303 159 456q125 121 336 121zM570 1006q-196 0 -286 -161q-63 -113 -63 -308q0 -204 79 -325
q91 -136 266 -136q170 0 264 125q88 116 88 344q0 204 -81 324q-92 137 -267 137z" />
    <glyph glyph-name="epsilon" unicode="&#x3b5;" horiz-adv-x="1019" vert-adv-y="1433" 
d="M593 612v-109h-98l-61 1q-110 0 -167 -52q-60 -54 -60 -144q0 -104 80 -168q73 -59 188 -59q249 0 332 258l126 -36q-111 -334 -459 -334q-195 0 -307 104q-99 92 -99 231q0 198 201 257q-56 23 -90 59q-72 78 -72 189q0 162 136 248q97 61 241 61q220 0 340 -133
q67 -74 93 -197l-130 -39q-19 106 -79 168q-87 89 -233 89q-90 0 -146 -39q-83 -57 -83 -165q0 -123 104 -169q47 -21 145 -21h98z" />
    <glyph glyph-name="zeta" unicode="&#x3b6;" horiz-adv-x="948" vert-adv-y="1433" 
d="M741 1424h-608v120h794v-108q-333 -264 -482 -437q-222 -256 -222 -520q0 -224 138 -323q89 -63 233 -63h5h101q187 0 187 -132q0 -111 -124 -316h-148q112 192 112 265q0 37 -27 51q-17 8 -58 8h-61q-202 0 -322 96q-172 136 -172 412q0 250 147 462q103 148 284 305
q90 78 223 180z" />
    <glyph glyph-name="eta" unicode="&#x3b7;" horiz-adv-x="1123" vert-adv-y="1433" 
d="M129 0v1081h131v-188q61 105 125 153q97 72 247 72q170 0 268 -102q93 -98 93 -264v-1107h-131v1072q0 284 -261 284q-165 0 -261 -151q-80 -128 -80 -309v-541h-131z" />
    <glyph glyph-name="theta" unicode="&#x3b8;" horiz-adv-x="1168" vert-adv-y="1433" 
d="M224 700q13 -622 360 -622q205 0 291 207q51 122 64 311q2 29 5 104h-720zM944 820q-12 609 -361 609q-346 0 -359 -609h720zM583 1548q503 0 503 -794q0 -795 -501 -795q-232 0 -356 164q-147 194 -147 631q0 794 501 794z" />
    <glyph glyph-name="iota" unicode="&#x3b9;" horiz-adv-x="407" vert-adv-y="1433" 
d="M269 1081v-1081h-131v1081h131z" />
    <glyph glyph-name="kappa" unicode="&#x3ba;" horiz-adv-x="1044" vert-adv-y="1433" 
d="M268 523l537 558h175l-456 -453l473 -628h-160l-402 539l-167 -166v-373h-131v1081h131v-558z" />
    <glyph glyph-name="lambda" unicode="&#x3bb;" horiz-adv-x="953" vert-adv-y="1433" 
d="M397 1111l-157 433h141l569 -1544h-154l-333 952l-328 -952h-149z" />
    <glyph glyph-name="uni03BC" unicode="&#x3bc;" horiz-adv-x="1130" vert-adv-y="1433" 
d="M133 -355v1436h131v-716q0 -129 58 -202q67 -85 200 -85q167 0 263 153q81 128 81 308v542h131v-1081h-131v190q-56 -99 -119 -151q-94 -76 -224 -76q-103 0 -172 40q-44 24 -87 78v-436h-131z" />
    <glyph glyph-name="nu" unicode="&#x3bd;" horiz-adv-x="954" vert-adv-y="1433" 
d="M377 0l-377 1081h137l342 -987l346 987h129l-381 -1081h-196z" />
    <glyph glyph-name="xi" unicode="&#x3be;" horiz-adv-x="893" vert-adv-y="1433" 
d="M466 839q-78 19 -129 62q-105 88 -105 242q0 188 158 281h-292v120h795v-108q-72 1 -93 1q-148 0 -216 -13q-111 -21 -169 -107q-48 -70 -48 -165q0 -177 149 -243q71 -31 183 -31h23v-119h-149h-4q-39 4 -118 -12q-121 -23 -184 -119q-57 -86 -57 -209q0 -210 146 -285
q60 -31 132 -38q55 -5 74 -3h2h102q188 0 188 -131q0 -111 -125 -317h-149q114 192 114 265q0 37 -28 51q-17 8 -59 8h-60q-162 0 -261 53q-104 55 -161 168q-48 96 -48 226q0 213 132 328q99 86 257 95z" />
    <glyph glyph-name="omicron" unicode="&#x3bf;" horiz-adv-x="1139" vert-adv-y="1433" 
d="M569 1118q238 0 368 -164q120 -154 120 -413q0 -260 -120 -413q-130 -165 -364 -165q-219 0 -346 135q-145 154 -145 443q0 261 119 413q130 164 368 164zM570 1006q-196 0 -286 -161q-63 -113 -63 -308q0 -204 79 -325q91 -136 266 -136q170 0 264 125q88 116 88 344
q0 204 -81 324q-92 137 -267 137z" />
    <glyph glyph-name="rho" unicode="&#x3c1;" horiz-adv-x="1139" vert-adv-y="1433" 
d="M214 113v-468h-131v859l-1 29v20q0 248 120 401q129 164 367 164t368 -164q120 -154 120 -413q0 -260 -120 -413q-130 -165 -366 -165q-228 0 -357 150zM570 1006q-196 0 -286 -161q-63 -113 -63 -308q0 -204 79 -325q91 -136 266 -136q170 0 264 125q88 116 88 344
q0 204 -81 324q-92 137 -267 137z" />
    <glyph glyph-name="sigma1" unicode="&#x3c2;" horiz-adv-x="1055" vert-adv-y="1433" 
d="M764 -355h-149q113 187 113 259q0 36 -28 50q-17 8 -58 8h-60q-207 0 -334 111q-176 155 -176 463q0 248 125 407q137 175 379 175q201 0 326 -134q64 -68 96 -198l-130 -39q-21 109 -79 170q-87 89 -225 89q-175 0 -268 -137q-85 -125 -85 -320q0 -279 150 -396
q90 -70 233 -70h5h102q187 0 187 -129q0 -108 -124 -309z" />
    <glyph glyph-name="sigma" unicode="&#x3c3;" horiz-adv-x="1139" vert-adv-y="1433" 
d="M885 1009q172 -167 172 -468q0 -260 -120 -413q-130 -165 -366 -165q-217 0 -344 135q-145 154 -145 443q0 260 119 412q129 165 368 165h491v-109h-175zM570 1006q-196 0 -286 -161q-63 -113 -63 -308q0 -204 79 -325q91 -136 266 -136q170 0 264 125q88 116 88 344
q0 204 -81 324q-92 137 -267 137z" />
    <glyph glyph-name="tau" unicode="&#x3c4;" horiz-adv-x="848" vert-adv-y="1433" 
d="M489 972v-972h-131v972h-338v109h808v-109h-339z" />
    <glyph glyph-name="upsilon" unicode="&#x3c5;" horiz-adv-x="1130" vert-adv-y="1433" 
d="M866 1081h131v-751q0 -215 -148 -310q-53 -34 -137 -50q-79 -15 -143 -15q-436 0 -436 375v751h131v-716q0 -293 301 -293t301 293v716z" />
    <glyph glyph-name="phi" unicode="&#x3c6;" horiz-adv-x="1349" vert-adv-y="1433" 
d="M740 -355h-131v317q-149 0 -270 66q-257 143 -257 509q0 362 242 508l66 -106q-169 -117 -169 -398q0 -280 167 -400q93 -68 221 -67v1041q59 3 87 3q256 0 395 -123q176 -154 176 -454q0 -370 -259 -513q-121 -66 -268 -66v-317zM740 74q152 0 250 88q138 125 138 378
q0 278 -165 399q-92 68 -223 67v-932z" />
    <glyph glyph-name="chi" unicode="&#x3c7;" horiz-adv-x="949" vert-adv-y="1433" 
d="M551 394l412 -749h-157l-333 612l-328 -612h-159l415 749l-371 687h155l291 -546l293 546h158z" />
    <glyph glyph-name="psi" unicode="&#x3c8;" horiz-adv-x="1314" vert-adv-y="1433" 
d="M722 -355h-130v315q-112 5 -183 29q-145 49 -224 175q-57 92 -68 220q-2 25 -2 85v612h131v-613q0 -174 78 -270q94 -115 268 -122v1005h130v-1005q175 7 268 122q78 96 78 270v613h131v-612l1 -40q0 -152 -71 -265q-99 -160 -294 -193q-50 -8 -113 -11v-315z" />
    <glyph glyph-name="omega" unicode="&#x3c9;" horiz-adv-x="1340" vert-adv-y="1433" 
d="M670 197q-5 -42 -18 -74q-63 -154 -237 -154q-151 0 -242 120q-103 135 -103 400q0 217 80 380q60 121 142 212h146q-107 -130 -146 -200q-88 -161 -88 -367q0 -191 54 -301q62 -126 171 -126q107 0 152 119q24 65 24 214v292h131v-292q0 -161 30 -228q46 -105 146 -105
q108 0 171 126q54 110 54 300q0 219 -100 388q-36 62 -134 180h146q92 -101 155 -239q67 -147 67 -352q0 -292 -124 -427q-87 -94 -221 -94q-175 0 -237 154q-15 36 -19 74z" />
    <glyph glyph-name="iotadieresis" unicode="&#x3ca;" horiz-adv-x="472" vert-adv-y="1433" 
d="M302 1081v-1081h-131v1081h131zM2 1303v209h137v-209h-137zM334 1303v209h137v-209h-137z" />
    <glyph glyph-name="upsilondieresis" unicode="&#x3cb;" horiz-adv-x="1130" vert-adv-y="1433" 
d="M866 1081h131v-751q0 -215 -148 -310q-53 -34 -137 -50q-79 -15 -143 -15q-436 0 -436 375v751h131v-716q0 -293 301 -293t301 293v716zM330 1303v209h137v-209h-137zM662 1303v209h137v-209h-137z" />
    <glyph glyph-name="omicrontonos" unicode="&#x3cc;" horiz-adv-x="1139" vert-adv-y="1433" 
d="M569 1118q238 0 368 -164q120 -154 120 -413q0 -260 -120 -413q-130 -165 -364 -165q-219 0 -346 135q-145 154 -145 443q0 261 119 413q130 164 368 164zM570 1006q-196 0 -286 -161q-63 -113 -63 -308q0 -204 79 -325q91 -136 266 -136q170 0 264 125q88 116 88 344
q0 204 -81 324q-92 137 -267 137zM525 1253l-34 256v98h157v-98l-31 -256h-92z" />
    <glyph glyph-name="upsilontonos" unicode="&#x3cd;" horiz-adv-x="1123" vert-adv-y="1433" 
d="M862 1081h131v-751q0 -215 -148 -310q-53 -34 -137 -50q-79 -15 -143 -15q-436 0 -436 375v751h131v-716q0 -293 301 -293t301 293v716zM515 1253l-34 256v98h157v-98l-31 -256h-92z" />
    <glyph glyph-name="omegatonos" unicode="&#x3ce;" horiz-adv-x="1340" vert-adv-y="1433" 
d="M624 1253l-34 256v98h157v-98l-31 -256h-92zM670 197q-5 -42 -18 -74q-63 -154 -237 -154q-151 0 -242 120q-103 135 -103 400q0 217 80 380q60 121 142 212h146q-107 -130 -146 -200q-88 -161 -88 -367q0 -191 54 -301q62 -126 171 -126q107 0 152 119q24 65 24 214v292
h131v-292q0 -161 30 -228q46 -105 146 -105q108 0 171 126q54 110 54 300q0 219 -100 388q-36 62 -134 180h146q92 -101 155 -239q67 -147 67 -352q0 -292 -124 -427q-87 -94 -221 -94q-175 0 -237 154q-15 36 -19 74z" />
    <glyph glyph-name="theta1" unicode="&#x3d1;" horiz-adv-x="1146" vert-adv-y="1433" 
d="M851 865q-162 0 -237 9q-224 27 -341 142q-98 97 -98 235q0 149 98 235q86 77 217 77q227 0 356 -196q74 -114 112 -262q8 -33 23 -121l1 -7h92v-112h-81q4 -47 4 -104q0 -259 -67 -448q-124 -344 -433 -344q-202 0 -298 138q-61 86 -61 254v210h-123v120h259v-319
q0 -117 36 -179q59 -100 185 -100q179 0 271 197q88 186 88 477q0 47 -3 98zM840 977q-25 155 -77 258q-58 115 -148 169q-58 35 -121 35q-80 0 -128 -53t-48 -136q0 -154 167 -226q114 -48 286 -48z" />
    <glyph glyph-name="phi1" unicode="&#x3d5;" horiz-adv-x="1349" vert-adv-y="1433" 
d="M744 -355h-139v324q-147 -1 -266 67q-257 147 -257 522q0 376 257 522q120 68 266 68v221h139v-221q146 0 266 -68q257 -146 257 -522t-257 -522q-119 -68 -266 -67v-324zM605 88v941q-148 0 -248 -91q-136 -125 -136 -380q0 -282 165 -403q93 -68 219 -67zM744 88
q148 -1 248 91q136 125 136 379q0 282 -165 403q-93 68 -219 68v-941z" />
    <glyph glyph-name="afii10023" unicode="&#x401;" horiz-adv-x="1305" vert-adv-y="1433" 
d="M154 0v1544h1036v-129h-893v-563h848v-129h-848v-594h926v-129h-1069zM416 1688v209h137v-209h-137zM748 1688v209h137v-209h-137z" />
    <glyph glyph-name="afii10051" unicode="&#x402;" horiz-adv-x="1390" vert-adv-y="1433" 
d="M523 0h-144v1415h-368v129h881v-129h-369v-536q132 163 374 163q229 0 345 -169q57 -83 69 -176q8 -61 8 -149v-247q0 -82 -15 -127q-23 -68 -98 -122q-75 -52 -182 -52h-240v131h239q62 0 87 11q42 20 58 55q8 18 8 77v278q0 362 -298 362q-221 0 -315 -159
q-36 -62 -39 -145q-1 -19 -1 -51v-559z" />
    <glyph glyph-name="afii10052" unicode="&#x403;" horiz-adv-x="1096" vert-adv-y="1433" 
d="M154 1544h906v-129h-763v-1415h-143v1544zM484 1659l164 272h153l-194 -272h-123z" />
    <glyph glyph-name="afii10053" unicode="&#x404;" horiz-adv-x="1464" vert-adv-y="1433" 
d="M259 858h686v-124h-690q5 -255 103 -418q136 -226 412 -226q246 0 375 170q76 101 103 261l148 -21q-114 -537 -632 -537q-270 0 -442 162q-224 211 -224 632q0 389 182 607q181 217 494 217q257 0 411 -128q138 -115 184 -325l-144 -38q-41 153 -119 238
q-118 128 -330 128q-302 0 -435 -268q-67 -135 -82 -330z" />
    <glyph glyph-name="afii10054" unicode="&#x405;" horiz-adv-x="1339" vert-adv-y="1433" 
d="M61 410l142 34q43 -153 105 -222q115 -130 352 -130q427 0 427 296q0 130 -78 203q-72 68 -223 97l-262 51q-418 82 -418 420q0 188 131 300q142 122 404 122q269 0 412 -117q112 -92 164 -272l-134 -43q-50 142 -126 209q-109 98 -316 98q-194 0 -295 -81
q-92 -73 -92 -208q0 -119 73 -188q73 -68 226 -98l299 -58q203 -39 297 -145q96 -107 96 -280q0 -197 -134 -308q-151 -127 -445 -127q-278 0 -428 128q-121 103 -177 319z" />
    <glyph glyph-name="afii10055" unicode="&#x406;" horiz-adv-x="451" vert-adv-y="1433" 
d="M154 0v1544h143v-1544h-143z" />
    <glyph glyph-name="afii10056" unicode="&#x407;" horiz-adv-x="451" vert-adv-y="1433" 
d="M154 0v1544h143v-1544h-143zM-9 1688v209h137v-209h-137zM323 1688v209h137v-209h-137z" />
    <glyph glyph-name="afii10057" unicode="&#x408;" horiz-adv-x="1143" vert-adv-y="1433" 
d="M61 430l140 19q14 -156 78 -244q85 -117 245 -117q332 0 332 373v1083h143v-1073q0 -261 -134 -392q-119 -116 -330 -116q-228 0 -355 149q-98 116 -119 318z" />
    <glyph glyph-name="afii10058" unicode="&#x409;" horiz-adv-x="2103" vert-adv-y="1433" 
d="M999 1413h-508v-437q0 -170 -21 -371q-36 -356 -173 -502q-58 -62 -145 -87q-33 -10 -97 -15v130q84 9 125 41q111 85 146 310q36 238 36 533v529h780v-674h419q172 0 263 -40q223 -100 223 -395q0 -224 -128 -334q-75 -66 -167 -84q-84 -17 -191 -17h-562v1413z
M1142 739v-608h355q208 0 298 73q95 76 95 231t-95 231q-57 46 -135 60q-74 13 -163 13h-355z" />
    <glyph glyph-name="afii10059" unicode="&#x40a;" horiz-adv-x="2295" vert-adv-y="1433" 
d="M1333 1544v-674h419q173 0 264 -40q223 -100 223 -395q0 -224 -128 -334q-64 -55 -145.5 -78t-213.5 -23h-562v756h-893v-756h-143v1544h143v-659h893v659h143zM1333 739v-608h356q207 0 298 73q95 76 95 231t-95 231q-58 46 -135 60q-75 13 -163 13h-356z" />
    <glyph glyph-name="afii10060" unicode="&#x40b;" horiz-adv-x="1381" vert-adv-y="1433" 
d="M523 844q130 162 375 162q150 0 255 -75q111 -80 146 -233q20 -87 20 -231v-467h-143v467q0 185 -49 280q-66 131 -249 131q-190 0 -290 -123q-41 -51 -55 -107q-10 -38 -10 -124v-524h-144v1415h-368v129h881v-129h-369v-571z" />
    <glyph glyph-name="afii10061" unicode="&#x40c;" horiz-adv-x="1253" vert-adv-y="1433" 
d="M154 1544h143v-659h163l485 659h175l-536 -718l587 -826h-175l-539 754h-160v-754h-143v1544zM555 1659l164 272h153l-194 -272h-123z" />
    <glyph glyph-name="afii10062" unicode="&#x40e;" horiz-adv-x="1015" vert-adv-y="1433" 
d="M68 25l26 113q70 -19 122 -19q79 0 125 45q33 33 60 102l65 172l-466 1106h155l380 -925l346 925h141l-502 -1330q-81 -215 -274 -215h-13q-84 0 -165 26zM234 1897h119q48 -108 197 -108q147 0 190 108h117q-51 -210 -311 -210q-262 0 -312 210z" />
    <glyph glyph-name="afii10145" unicode="&#x40f;" horiz-adv-x="1379" vert-adv-y="1433" 
d="M618 0h-464v1544h143v-1413h785v1413h143v-1544h-464v-317h-143v317z" />
    <glyph glyph-name="afii10017" unicode="&#x410;" horiz-adv-x="1358" vert-adv-y="1433" 
d="M0 0l588 1544h184l586 -1544h-156l-153 412h-756l-156 -412h-137zM340 535h661l-327 878z" />
    <glyph glyph-name="afii10018" unicode="&#x411;" horiz-adv-x="1283" vert-adv-y="1433" 
d="M297 1415v-545h420q172 0 263 -40q223 -100 223 -395q0 -224 -128 -334q-76 -66 -167 -84q-84 -17 -191 -17h-563v1544h871v-129h-728zM297 739v-608h356q208 0 298 73q95 76 95 231t-95 231q-57 46 -135 60q-74 13 -163 13h-356z" />
    <glyph glyph-name="afii10019" unicode="&#x412;" horiz-adv-x="1386" vert-adv-y="1433" 
d="M154 0v1544h591q474 0 474 -369q0 -150 -76 -240q-44 -52 -121 -95q125 -40 190 -109q93 -100 93 -284q0 -447 -562 -447h-589zM297 125h426q202 0 305 68q121 81 121 257q0 181 -126 258q-90 56 -265 56h-461v-639zM297 889h405q363 0 363 266q0 150 -92 210
q-81 54 -250 54h-426v-530z" />
    <glyph glyph-name="afii10020" unicode="&#x413;" horiz-adv-x="1101" vert-adv-y="1433" 
d="M154 1544h906v-129h-763v-1415h-143v1544z" />
    <glyph glyph-name="afii10021" unicode="&#x414;" horiz-adv-x="1470" vert-adv-y="1433" 
d="M394 1544h915v-1413h107v-448h-143v317h-1122v-317h-143v448q87 -1 145 60q115 119 186 406q31 125 44 240q11 107 11 279v428zM268 131h898v1282h-643v-335q0 -353 -84 -616q-54 -170 -113 -260q-22 -34 -58 -71z" />
    <glyph glyph-name="afii10022" unicode="&#x415;" horiz-adv-x="1305" vert-adv-y="1433" 
d="M154 0v1544h1036v-129h-893v-563h848v-129h-848v-594h926v-129h-1069z" />
    <glyph glyph-name="afii10024" unicode="&#x416;" horiz-adv-x="1914" vert-adv-y="1433" 
d="M886 1544h143v-659h163l485 659h175l-536 -718l587 -826h-175l-539 754h-160v-754h-143v754h-160l-539 -754h-175l587 826l-536 718h175l485 -659h163v659z" />
    <glyph glyph-name="afii10025" unicode="&#x417;" horiz-adv-x="1291" vert-adv-y="1433" 
d="M112 387l145 21q19 -150 91 -227q95 -101 289 -101q178 0 280 69q122 82 122 241q0 204 -179 279q-100 42 -272 44v123q173 7 288 78q131 80 131 239q0 137 -91 209q-87 70 -259 70q-304 0 -368 -295l-142 20q80 387 523 387q251 0 381 -115q111 -98 111 -268
q0 -180 -131 -283q-74 -58 -195 -98q182 -23 277 -130q82 -93 82 -250q0 -189 -125 -306q-140 -131 -426 -131q-484 0 -532 424z" />
    <glyph glyph-name="afii10026" unicode="&#x418;" horiz-adv-x="1473" vert-adv-y="1433" 
d="M1319 0h-143v1362l-833 -1362h-189v1544h143v-1360l832 1360h190v-1544z" />
    <glyph glyph-name="afii10027" unicode="&#x419;" horiz-adv-x="1473" vert-adv-y="1433" 
d="M1319 0h-143v1362l-833 -1362h-189v1544h143v-1360l832 1360h190v-1544zM426 1897h119q48 -108 197 -108q147 0 190 108h117q-51 -210 -311 -210q-262 0 -312 210z" />
    <glyph glyph-name="afii10028" unicode="&#x41a;" horiz-adv-x="1171" vert-adv-y="1433" 
d="M154 1544h143v-659h163l485 659h175l-536 -718l587 -826h-175l-539 754h-160v-754h-143v1544z" />
    <glyph glyph-name="afii10029" unicode="&#x41b;" horiz-adv-x="1382" vert-adv-y="1433" 
d="M444 1413v-437q0 -170 -21 -371q-36 -355 -173 -502q-58 -62 -145 -87q-33 -10 -97 -15v130q84 9 125 41q111 85 146 310q36 238 36 533v529h915v-1544h-143v1413h-643z" />
    <glyph glyph-name="afii10030" unicode="&#x41c;" horiz-adv-x="1817" vert-adv-y="1433" 
d="M154 0v1544h249l496 -1390l531 1390h233v-1544h-139v1421l-541 -1421h-182l-508 1436v-1436h-139z" />
    <glyph glyph-name="afii10031" unicode="&#x41d;" horiz-adv-x="1487" vert-adv-y="1433" 
d="M154 0v1544h143v-659h893v659h143v-1544h-143v756h-893v-756h-143z" />
    <glyph glyph-name="afii10032" unicode="&#x41e;" horiz-adv-x="1608" vert-adv-y="1433" 
d="M803 1581q329 0 515 -211q191 -216 191 -598q0 -381 -191 -597q-187 -212 -510 -212q-298 0 -482 173q-228 216 -228 636q0 383 190 598q188 211 515 211zM803 1454q-260 0 -410 -200q-139 -184 -139 -482q0 -297 139 -483q150 -199 406 -199q239 0 386 164
q169 188 169 518q0 299 -140 482q-151 200 -411 200z" />
    <glyph glyph-name="afii10033" unicode="&#x41f;" horiz-adv-x="1377" vert-adv-y="1433" 
d="M1080 1413h-783v-1413h-143v1544h1069v-1544h-143v1413z" />
    <glyph glyph-name="afii10034" unicode="&#x420;" horiz-adv-x="1305" vert-adv-y="1433" 
d="M154 0v1544h622q223 0 347 -123q120 -119 120 -333q0 -213 -134 -336q-137 -125 -374 -125h-438v-627h-143zM297 750h451q171 0 264 104q80 89 80 239q0 177 -118 264q-84 62 -220 62h-457v-669z" />
    <glyph glyph-name="afii10035" unicode="&#x421;" horiz-adv-x="1464" vert-adv-y="1433" 
d="M1368 1128l-143 -38q-42 153 -120 238q-117 128 -329 128q-266 0 -403 -211q-119 -182 -119 -491q0 -297 126 -473q138 -191 389 -191q246 0 375 171q76 101 103 261l148 -22q-113 -537 -631 -537q-270 0 -442 162q-224 211 -224 633q0 388 182 607q180 216 494 216
q257 0 411 -128q137 -115 183 -325z" />
    <glyph glyph-name="afii10036" unicode="&#x422;" horiz-adv-x="1368" vert-adv-y="1433" 
d="M612 0v1415h-561v129h1266v-129h-561v-1415h-144z" />
    <glyph glyph-name="afii10037" unicode="&#x423;" horiz-adv-x="1015" vert-adv-y="1433" 
d="M65 25l26 113q70 -19 122 -19q79 0 125 45q33 33 60 102l65 172l-466 1106h155l380 -925l346 925h141l-502 -1330q-81 -215 -274 -215h-13q-84 0 -165 26z" />
    <glyph glyph-name="afii10038" unicode="&#x424;" horiz-adv-x="1613" vert-adv-y="1433" 
d="M878 1544v-121q265 -2 441 -122q141 -96 210 -257q54 -126 54 -272q0 -208 -106 -369q-185 -279 -599 -282v-121h-142v121q-265 2 -441 122q-141 97 -210 257q-54 125 -54 272q0 209 106 369q185 279 599 282v121h142zM736 248v1048q-220 -1 -356 -96
q-194 -136 -194 -428q0 -322 233 -453q126 -70 317 -71zM878 248q221 1 356 96q194 136 194 428q0 322 -233 453q-126 70 -317 71v-1048z" />
    <glyph glyph-name="afii10039" unicode="&#x425;" horiz-adv-x="1221" vert-adv-y="1433" 
d="M0 0l532 797l-495 747h164l411 -631l418 631h148l-492 -735l535 -809h-162l-455 692l-457 -692h-147z" />
    <glyph glyph-name="afii10040" unicode="&#x426;" horiz-adv-x="1377" vert-adv-y="1433" 
d="M1188 0h-1034v1544h143v-1413h783v1413h143v-1413h108v-448h-143v317z" />
    <glyph glyph-name="afii10041" unicode="&#x427;" horiz-adv-x="1284" vert-adv-y="1433" 
d="M987 599q-194 -40 -320 -40q-279 0 -415 96q-108 77 -145 199q-25 84 -25 223v467h143v-467q0 -136 34 -211q63 -136 254 -167q75 -12 172 -12q125 0 302 45v812h143v-1544h-143v599z" />
    <glyph glyph-name="afii10042" unicode="&#x428;" horiz-adv-x="1864" vert-adv-y="1433" 
d="M1567 131v1413h143v-1544h-1556v1544h143v-1413h563v1413h143v-1413h564z" />
    <glyph glyph-name="afii10043" unicode="&#x429;" horiz-adv-x="1859" vert-adv-y="1433" 
d="M1705 131h107v-448h-143v317h-1515v1544h143v-1413h561v1413h143v-1413h561v1413h143v-1413z" />
    <glyph glyph-name="afii10044" unicode="&#x42a;" horiz-adv-x="1569" vert-adv-y="1433" 
d="M598 1415v-545h419q173 0 264 -40q223 -100 223 -395q0 -224 -128 -334q-76 -66 -168 -84q-83 -17 -191 -17h-562v1415h-449v129h592v-129zM598 739v-608h356q207 0 298 73q95 76 95 231t-95 231q-57 46 -135 60q-75 13 -163 13h-356z" />
    <glyph glyph-name="afii10045" unicode="&#x42b;" horiz-adv-x="1677" vert-adv-y="1433" 
d="M297 1544v-674h419q173 0 264 -40q223 -100 223 -395q0 -224 -128 -334q-76 -66 -168 -84q-84 -17 -191 -17h-562v1544h143zM297 739v-608h356q207 0 298 73q95 76 95 231t-95 231q-58 46 -135 60q-75 13 -163 13h-356zM1380 0v1544h143v-1544h-143z" />
    <glyph glyph-name="afii10046" unicode="&#x42c;" horiz-adv-x="1283" vert-adv-y="1433" 
d="M297 1544v-674h419q173 0 264 -40q223 -100 223 -395q0 -224 -128 -334q-76 -66 -168 -84q-84 -17 -191 -17h-562v1544h143zM297 739v-608h356q207 0 298 73q95 76 95 231t-95 231q-58 46 -135 60q-75 13 -163 13h-356z" />
    <glyph glyph-name="afii10047" unicode="&#x42d;" horiz-adv-x="1464" vert-adv-y="1433" 
d="M1206 862q-17 209 -92 349q-135 248 -426 248q-227 0 -346 -147q-65 -81 -103 -219l-143 39q48 220 198 335q151 117 396 117q314 0 494 -216q183 -218 183 -609q0 -445 -244 -654q-168 -145 -423 -145q-517 0 -631 537l148 22q29 -171 113 -274q129 -158 365 -158
q287 0 422 244q88 160 93 401h-690v130h686z" />
    <glyph glyph-name="afii10048" unicode="&#x42e;" horiz-adv-x="2100" vert-adv-y="1433" 
d="M612 890q27 268 152 438q187 253 548 253q329 0 515 -212q191 -215 191 -597q0 -381 -191 -597q-187 -212 -514 -212q-328 0 -516 212q-182 207 -190 579l-310 5v-759h-143v1544h143v-654h315zM1312 1454q-260 0 -410 -200q-139 -185 -139 -482q0 -298 139 -483
q150 -199 406 -199q239 0 386 164q169 188 169 518q0 298 -140 482q-151 200 -411 200z" />
    <glyph glyph-name="afii10049" unicode="&#x42f;" horiz-adv-x="1382" vert-adv-y="1433" 
d="M1228 0h-143v649h-481h-16h-15q-11 0 -27 2l-309 -651h-168l336 678q-137 50 -210 159q-81 119 -81 269q0 208 121 321q125 117 367 117h626v-1544zM1085 774v645h-467q-148 0 -235 -58q-117 -79 -117 -256q0 -152 78 -236q90 -95 274 -95h467z" />
    <glyph glyph-name="afii10065" unicode="&#x430;" horiz-adv-x="1020" vert-adv-y="1433" 
d="M782 686v88q0 234 -262 234q-142 0 -215 -71q-50 -48 -82 -142l-117 30q89 293 422 293q203 0 301 -99q84 -85 84 -237v-598q0 -75 29 -184h-129q-1 2 -3 11q-1 3 -4 11q-15 39 -15 132q-91 -114 -184 -157q-71 -34 -205 -34q-140 0 -229 77q-99 86 -99 234
q0 177 115 269q84 68 247 92zM782 573l-350 -55q-223 -35 -223 -239q0 -104 63 -157q55 -46 152 -46q128 0 222 62q136 90 136 257v178z" />
    <glyph glyph-name="afii10066" unicode="&#x431;" horiz-adv-x="1139" vert-adv-y="1433" 
d="M197 890q55 95 98 131q113 97 279 97q233 0 363 -164q120 -154 120 -413q0 -260 -120 -413q-129 -165 -366 -165q-240 0 -369 165q-126 160 -126 492q0 218 56 367q38 102 123 183q76 73 177 104q50 16 153 32q149 24 183 35q76 24 95 97q8 31 10 106h114q-3 -63 -9 -97
q-14 -76 -67 -133q-49 -53 -157 -73q-13 -3 -178 -27q-135 -20 -198 -63q-86 -58 -136 -150q-19 -36 -45 -111zM570 1006q-195 0 -285 -161q-63 -113 -63 -308q0 -204 79 -325q90 -136 265 -136q170 0 265 125q87 116 87 344q0 204 -81 324q-91 137 -267 137z" />
    <glyph glyph-name="afii10067" unicode="&#x432;" horiz-adv-x="1066" vert-adv-y="1433" 
d="M162 0v1081h442q118 0 179 -26q84 -36 123 -115q29 -58 29 -129q0 -170 -157 -237q206 -60 206 -268q0 -148 -99 -230q-60 -50 -132 -63q-66 -13 -149 -13h-442zM293 618h282q124 0 178 55q47 48 47 122q0 76 -47 123q-54 55 -178 55h-282v-355zM293 108h311
q120 0 178 47q61 50 61 154q0 105 -61 154q-58 47 -178 47h-311v-402z" />
    <glyph glyph-name="afii10068" unicode="&#x433;" horiz-adv-x="857" vert-adv-y="1433" 
d="M285 973v-973h-131v1081h650v-108h-519z" />
    <glyph glyph-name="afii10069" unicode="&#x434;" horiz-adv-x="1098" vert-adv-y="1433" 
d="M322 1081h629v-978h92v-420h-131v311h-781v-311h-131v420q79 0 125 20q96 44 158 259q39 134 39 375v324zM272 103h548v869h-385v-237q0 -239 -47 -407q-32 -115 -116 -225z" />
    <glyph glyph-name="afii10070" unicode="&#x435;" horiz-adv-x="1116" vert-adv-y="1433" 
d="M1040 518h-819q6 -183 72 -292q89 -148 272 -148q161 0 249 100q43 49 83 156l123 -45q-37 -114 -109 -190q-127 -136 -344 -136q-211 0 -339 134q-146 154 -146 440q0 254 124 411q133 170 371 170q230 0 355 -149q110 -133 110 -348v-21v-22v-14v-14q0 -18 -2 -32z
M223 621h682q-1 154 -63 250q-89 139 -268 139q-187 0 -283 -157q-59 -97 -68 -232z" />
    <glyph glyph-name="afii10072" unicode="&#x436;" horiz-adv-x="1384" vert-adv-y="1433" 
d="M630 0v521h-117l-351 -521h-155l395 591l-342 490h151l306 -452h113v452h131v-452h112l307 452h151l-342 -490l395 -591h-155l-351 521h-117v-521h-131z" />
    <glyph glyph-name="afii10073" unicode="&#x437;" horiz-adv-x="1019" vert-adv-y="1433" 
d="M408 612h97q111 0 161 29q89 50 89 161q0 108 -84 165q-56 39 -145 39q-160 0 -247 -105q-48 -58 -65 -152l-130 39q29 138 113 217q118 113 320 113q144 0 241 -61q136 -86 136 -248q0 -111 -72 -189q-34 -36 -90 -59q201 -59 201 -257q0 -165 -134 -259
q-108 -76 -272 -76q-348 0 -459 334l126 36q83 -258 332 -258q114 0 188 59q80 64 80 168q0 90 -60 144q-57 52 -167 52l-62 -1h-97v109z" />
    <glyph glyph-name="afii10074" unicode="&#x438;" horiz-adv-x="1131" vert-adv-y="1433" 
d="M977 0h-129v885l-541 -885h-153v1081h129v-883l540 883h154v-1081z" />
    <glyph glyph-name="afii10075" unicode="&#x439;" horiz-adv-x="1131" vert-adv-y="1433" 
d="M977 0h-129v885l-541 -885h-153v1081h129v-883l540 883h154v-1081zM269 1512h119q19 -45 66 -75q51 -33 131 -33q149 0 190 108h117q-53 -210 -311 -210q-263 0 -312 210z" />
    <glyph glyph-name="afii10076" unicode="&#x43a;" horiz-adv-x="1017" vert-adv-y="1433" 
d="M285 626h85l373 455h174l-455 -501l473 -580h-160l-402 493h-88v-493h-131v1081h131v-455z" />
    <glyph glyph-name="afii10077" unicode="&#x43b;" horiz-adv-x="1092" vert-adv-y="1433" 
d="M807 973h-374v-287q0 -378 -99 -548q-47 -82 -124 -117q-46 -21 -138 -21h-16v103q62 5 95 25q151 92 151 580v373h636v-1081h-131v973z" />
    <glyph glyph-name="afii10078" unicode="&#x43c;" horiz-adv-x="1365" vert-adv-y="1433" 
d="M154 0v1081h198l325 -912l348 912h186v-1081h-128v891l-338 -891h-147l-316 894v-894h-128z" />
    <glyph glyph-name="afii10079" unicode="&#x43d;" horiz-adv-x="1141" vert-adv-y="1433" 
d="M154 0v1081h130v-447h573v447h130v-1081h-130v513h-573v-513h-130z" />
    <glyph glyph-name="afii10080" unicode="&#x43e;" horiz-adv-x="1139" vert-adv-y="1433" 
d="M569 1118q238 0 368 -164q120 -154 120 -413q0 -260 -120 -413q-130 -165 -364 -165q-219 0 -346 135q-145 154 -145 443q0 261 119 413q130 164 368 164zM570 1006q-196 0 -286 -161q-63 -113 -63 -308q0 -204 79 -325q91 -136 266 -136q170 0 264 125q88 116 88 344
q0 204 -81 324q-92 137 -267 137z" />
    <glyph glyph-name="afii10081" unicode="&#x43f;" horiz-adv-x="1115" vert-adv-y="1433" 
d="M830 973h-545v-973h-131v1081h807v-1081h-131v973z" />
    <glyph glyph-name="afii10082" unicode="&#x440;" horiz-adv-x="1159" vert-adv-y="1433" 
d="M133 -393v1474h131v-174q129 211 376 211q211 0 328 -158q109 -147 109 -403q0 -265 -112 -420q-124 -174 -355 -174q-219 0 -346 191v-547h-131zM609 1004q-176 0 -270 -149q-79 -127 -79 -325q0 -192 77 -312q90 -140 255 -140q147 0 234 90q112 116 112 370
q0 466 -329 466z" />
    <glyph glyph-name="afii10083" unicode="&#x441;" horiz-adv-x="1047" vert-adv-y="1433" 
d="M981 793l-131 -39q-31 120 -85 176q-73 76 -210 76q-168 0 -256 -137q-78 -120 -78 -328q0 -212 75 -327q88 -136 262 -136q172 0 250 124q37 57 58 148l127 -37q-103 -350 -431 -350q-214 0 -339 136q-141 153 -141 442q0 259 116 411q125 166 362 166q341 0 421 -325z
" />
    <glyph glyph-name="afii10084" unicode="&#x442;" horiz-adv-x="835" vert-adv-y="1433" 
d="M483 973v-973h-131v973h-337v108h805v-108h-337z" />
    <glyph glyph-name="afii10085" unicode="&#x443;" horiz-adv-x="989" vert-adv-y="1433" 
d="M63 -399l25 110q68 -18 119 -18q77 0 121 43q32 32 59 100l66 170l-453 1075h141l377 -901l340 901h131l-489 -1296q-39 -102 -100 -154q-63 -55 -164 -55h-12q-80 0 -161 25z" />
    <glyph glyph-name="afii10086" unicode="&#x444;" horiz-adv-x="1269" vert-adv-y="1433" 
d="M700 -37v-356h-131v356q-184 4 -299 95q-188 150 -188 483q0 303 159 456q80 78 184 104q43 11 144 17v243h131v-243q101 -6 144 -17q163 -42 255 -193q88 -147 88 -367q0 -302 -159 -457q-80 -77 -184 -104q-43 -11 -144 -17zM700 1006v-930q133 3 216 77
q132 117 132 393q0 237 -108 359q-57 64 -131 86q-34 11 -109 15zM569 76v930q-118 -9 -168 -40q-180 -110 -180 -429q0 -239 107 -360q56 -64 130 -86q35 -10 111 -15z" />
    <glyph glyph-name="afii10087" unicode="&#x445;" horiz-adv-x="866" vert-adv-y="1433" 
d="M0 0l360 557l-337 524h147l264 -415l266 415h138l-336 -516l364 -565h-147l-291 459l-295 -459h-133z" />
    <glyph glyph-name="afii10088" unicode="&#x446;" horiz-adv-x="1115" vert-adv-y="1433" 
d="M961 112h91v-429h-131v317h-767v1081h131v-973h545v973h131v-969z" />
    <glyph glyph-name="afii10089" unicode="&#x447;" horiz-adv-x="985" vert-adv-y="1433" 
d="M700 412q-125 -28 -204 -28q-171 0 -278 68q-136 85 -136 302v327h131v-327q0 -84 22 -131q39 -84 162 -104q45 -7 105 -7q86 0 198 32v537h131v-1081h-131v412z" />
    <glyph glyph-name="afii10090" unicode="&#x448;" horiz-adv-x="1523" vert-adv-y="1433" 
d="M1238 108v973h131v-1081h-1215v1081h131v-973h411v973h131v-973h411z" />
    <glyph glyph-name="afii10091" unicode="&#x449;" horiz-adv-x="1524" vert-adv-y="1433" 
d="M1331 -9h-1177v1090h131v-981h412v981h131v-981h411v981h131v-981h92v-417h-131v308z" />
    <glyph glyph-name="afii10092" unicode="&#x44a;" horiz-adv-x="1208" vert-adv-y="1433" 
d="M388 973h-388v108h519v-463h278q184 0 278 -77q99 -81 99 -232q0 -152 -99 -235q-61 -50 -131 -63q-63 -11 -147 -11h-409v973zM519 510v-402h270q102 0 157 33q89 52 89 168q0 126 -103 176q-53 25 -143 25h-270z" />
    <glyph glyph-name="afii10093" unicode="&#x44b;" horiz-adv-x="1386" vert-adv-y="1433" 
d="M1232 1081v-1081h-131v1081h131zM154 1081h131v-463h278q184 0 278 -77q99 -81 99 -232q0 -152 -99 -235q-61 -50 -131 -63q-63 -11 -147 -11h-409v1081zM285 510v-402h270q102 0 157 33q89 52 89 168q0 126 -103 176q-53 25 -143 25h-270z" />
    <glyph glyph-name="afii10094" unicode="&#x44c;" horiz-adv-x="1094" vert-adv-y="1433" 
d="M154 1081h131v-463h278q184 0 278 -77q99 -81 99 -232q0 -152 -99 -235q-61 -50 -131 -63q-63 -11 -147 -11h-409v1081zM285 510v-402h270q102 0 157 33q89 52 89 168q0 126 -103 176q-53 25 -143 25h-270z" />
    <glyph glyph-name="afii10095" unicode="&#x44d;" horiz-adv-x="1026" vert-adv-y="1433" 
d="M803 487h-465v112h465q-12 158 -59 244q-85 160 -276 160q-172 0 -251 -123q-36 -58 -57 -149l-127 37q103 350 431 350q214 0 339 -136q141 -153 141 -441q0 -260 -116 -412q-125 -166 -362 -166q-341 0 -421 325l131 39q31 -120 85 -176q73 -76 210 -76q192 0 278 174
q46 94 54 238z" />
    <glyph glyph-name="afii10096" unicode="&#x44e;" horiz-adv-x="1592" vert-adv-y="1433" 
d="M537 597q11 197 96 326q127 195 389 195q238 0 368 -164q120 -154 120 -413q0 -260 -120 -413q-130 -165 -366 -165q-240 0 -369 165q-105 133 -119 365h-251v-493h-131v1081h131v-484h252zM1023 1006q-196 0 -286 -161q-63 -114 -63 -309q0 -203 80 -324
q90 -136 265 -136q170 0 264 125q88 116 88 344q0 204 -81 324q-92 137 -267 137z" />
    <glyph glyph-name="afii10097" unicode="&#x44f;" horiz-adv-x="1096" vert-adv-y="1433" 
d="M942 0h-130v440h-310h-14h-3h-13l-209 -440h-151l232 467q-98 45 -146 126q-46 79 -46 173q0 149 88 231q89 84 260 84h442v-1081zM812 558v405h-301q-223 0 -223 -196q0 -209 223 -209h301z" />
    <glyph glyph-name="afii10071" unicode="&#x451;" horiz-adv-x="1116" vert-adv-y="1433" 
d="M1040 518h-819q6 -183 72 -292q89 -148 272 -148q161 0 249 100q43 49 83 156l123 -45q-37 -114 -109 -190q-127 -136 -344 -136q-211 0 -339 134q-146 154 -146 440q0 254 124 411q133 170 371 170q230 0 355 -149q110 -133 110 -348v-21v-22v-14v-14q0 -18 -2 -32z
M223 621h682q-1 154 -63 250q-89 139 -268 139q-187 0 -283 -157q-59 -97 -68 -232zM341 1303v209h137v-209h-137zM673 1303v209h137v-209h-137z" />
    <glyph glyph-name="afii10099" unicode="&#x452;" horiz-adv-x="1126" vert-adv-y="1433" 
d="M264 1271v-374q62 103 129 152q93 69 243 69q170 0 268 -102q93 -97 93 -264v-806q0 -117 -62 -194q-55 -68 -155 -84q-47 -7 -103 -7h-163v118h159q133 0 170 69q23 44 23 111v758q0 284 -261 284q-165 0 -261 -151q-80 -128 -80 -309v-541h-131v1271h-115v112h115v161
h131v-161h313v-112h-313z" />
    <glyph glyph-name="afii10100" unicode="&#x453;" horiz-adv-x="819" vert-adv-y="1433" 
d="M285 973v-973h-131v1081h650v-108h-519zM422 1272l164 272h153l-194 -272h-123z" />
    <glyph glyph-name="afii10101" unicode="&#x454;" horiz-adv-x="1026" vert-adv-y="1433" 
d="M222 487q10 -154 62 -250q87 -162 271 -162q146 0 219 86q48 55 76 166l131 -39q-80 -325 -421 -325q-237 0 -362 166q-116 152 -116 412q0 302 154 455q124 122 326 122q328 0 431 -350l-127 -37q-23 101 -65 160q-79 112 -243 112q-199 0 -283 -173q-41 -83 -52 -231
h465v-112h-466z" />
    <glyph glyph-name="afii10102" unicode="&#x455;" horiz-adv-x="989" vert-adv-y="1433" 
d="M47 297l121 31q34 -119 82 -171q78 -83 237 -83q132 0 208 51q75 52 75 149q0 84 -48 131q-45 44 -142 64l-191 39q-301 62 -301 303q0 142 113 228q104 79 280 79q330 0 414 -293l-117 -32q-39 119 -119 172q-68 45 -188 45q-131 0 -198 -57q-56 -48 -56 -136
q0 -79 48 -124q49 -45 163 -68l207 -41q270 -54 270 -308q0 -153 -122 -238q-107 -75 -291 -75q-208 0 -321 103q-81 73 -124 231z" />
    <glyph glyph-name="afii10103" unicode="&#x456;" horiz-adv-x="418" vert-adv-y="1433" 
d="M143 0v1081h131v-1081h-131zM143 1335v209h131v-209h-131z" />
    <glyph glyph-name="afii10104" unicode="&#x457;" horiz-adv-x="439" vert-adv-y="1433" 
d="M154 0v1081h131v-1081h-131zM-15 1303v209h137v-209h-137zM317 1303v209h137v-209h-137z" />
    <glyph glyph-name="afii10105" unicode="&#x458;" horiz-adv-x="430" vert-adv-y="1433" 
d="M-117 -403l17 112q59 -14 117 -14q80 0 109 36q30 38 30 117v1233h131v-1269q0 -116 -60 -176q-59 -60 -168 -60h-15q-82 0 -161 21zM156 1337v207h131v-207h-131z" />
    <glyph glyph-name="afii10106" unicode="&#x459;" horiz-adv-x="1648" vert-adv-y="1433" 
d="M937 0v0h-130v973h-384v-288q0 -453 -140 -602q-68 -73 -161 -81q-30 -2 -76 -2v102q62 5 95 26q151 92 151 579v374h646v-463h278q184 0 278 -77q99 -81 99 -232q0 -152 -99 -235q-50 -41 -111 -57.5t-167 -16.5h-279zM938 510v-402h270q102 0 157 33q89 52 89 168
q0 126 -103 176q-53 25 -143 25h-270z" />
    <glyph glyph-name="afii10107" unicode="&#x45a;" horiz-adv-x="1697" vert-adv-y="1433" 
d="M856 0v513h-572v-513h-130v1081h130v-447h572v446h1v1h130v-463h278q185 0 278 -76q99 -82 99 -233q0 -152 -99 -235q-60 -50 -131 -63q-63 -11 -147 -11h-409zM987 510v-402h270q102 0 157 33q89 52 89 168q0 127 -103 176q-53 25 -143 25h-270z" />
    <glyph glyph-name="afii10108" unicode="&#x45b;" horiz-adv-x="1130" vert-adv-y="1433" 
d="M264 1271v-374q62 103 129 152q94 69 243 69q170 0 268 -102q93 -98 93 -264v-752h-131v717q0 284 -261 284q-164 0 -260 -151q-81 -128 -81 -309v-541h-131v1271h-115v112h115v161h131v-161h242v-112h-242z" />
    <glyph glyph-name="afii10109" unicode="&#x45c;" horiz-adv-x="1017" vert-adv-y="1433" 
d="M285 626h85l373 455h174l-455 -501l473 -580h-160l-402 493h-88v-493h-131v1081h131v-455zM459 1272l164 272h153l-194 -272h-123z" />
    <glyph glyph-name="afii10110" unicode="&#x45e;" horiz-adv-x="989" vert-adv-y="1433" 
d="M63 -399l25 110q68 -18 119 -18q77 0 121 43q32 32 59 100l66 170l-453 1075h141l377 -901l340 901h131l-489 -1296q-39 -102 -100 -154q-63 -55 -164 -55h-12q-80 0 -161 25zM198 1512h119q19 -45 66 -75q51 -33 131 -33q149 0 190 108h117q-53 -210 -311 -210
q-263 0 -312 210z" />
    <glyph glyph-name="afii10193" unicode="&#x45f;" horiz-adv-x="1115" vert-adv-y="1433" 
d="M492 0h-338v1081h131v-973h545v973h131v-1081h-338v-317h-131v317z" />
    <glyph glyph-name="afii10050" unicode="&#x490;" horiz-adv-x="1101" vert-adv-y="1433" 
d="M900 1544l163 271h153l-193 -271h37v-129h-763v-1415h-143v1544h746z" />
    <glyph glyph-name="afii10098" unicode="&#x491;" horiz-adv-x="857" vert-adv-y="1433" 
d="M658 1081l176 289h199l-254 -289h25v-108h-519v-973h-131v1081h504z" />
    <glyph glyph-name="uni0492" unicode="&#x492;" horiz-adv-x="1094" vert-adv-y="1433" 
d="M315 852h551v-129h-551v-723h-143v723h-90v129h90v692h887v-129h-744v-563z" />
    <glyph glyph-name="uni0493" unicode="&#x493;" horiz-adv-x="819" vert-adv-y="1433" 
d="M285 619h438v-103h-438v-516h-131v516h-74v103h74v462h650v-108h-519v-354z" />
    <glyph glyph-name="uni0496" unicode="&#x496;" horiz-adv-x="1964" vert-adv-y="1433" 
d="M1822 113h130v-430h-143v317h-81l-539 754h-160v-754h-143v754h-160l-539 -754h-175l587 826l-536 718h175l485 -659h163v659h143v-659h163l485 659h174l-535 -718z" />
    <glyph glyph-name="uni0497" unicode="&#x497;" horiz-adv-x="1442" vert-adv-y="1433" 
d="M1309 102h121v-419h-131v317h-77l-351 521h-117v-521h-131v521h-117l-351 -521h-155l395 591l-342 490h151l306 -452h113v452h131v-452h112l307 452h151l-342 -490z" />
    <glyph glyph-name="uni049A" unicode="&#x49a;" horiz-adv-x="1253" vert-adv-y="1433" 
d="M1095 107h130v-424h-143v317h-86l-539 754h-160v-754h-143v1544h143v-659h163l485 659h175l-536 -718z" />
    <glyph glyph-name="uni049B" unicode="&#x49b;" horiz-adv-x="1017" vert-adv-y="1433" 
d="M806 159h131v-476h-131v317h-31l-402 493h-88v-493h-131v1081h131v-455h85l374 455h174l-456 -501z" />
    <glyph glyph-name="uni049C" unicode="&#x49c;" horiz-adv-x="1292" vert-adv-y="1433" 
d="M494 885h6l484 659h175l-536 -718l587 -826h-175l-539 754h-2v-303h-116v303h-81v-754h-143v1544h143v-659h81v351h116v-351z" />
    <glyph glyph-name="uni049D" unicode="&#x49d;" horiz-adv-x="1052" vert-adv-y="1433" 
d="M397 493v-182h-74v182h-38v-493h-131v1081h131v-455h38v230h74v-230l8 1l373 454h174l-455 -500l473 -581h-160l-402 493h-11z" />
    <glyph glyph-name="uni04A2" unicode="&#x4a2;" horiz-adv-x="1487" vert-adv-y="1433" 
d="M1333 137h87v-454h-143v317h-87v756h-893v-756h-143v1544h143v-659h893v659h143v-1407z" />
    <glyph glyph-name="uni04A3" unicode="&#x4a3;" horiz-adv-x="1141" vert-adv-y="1433" 
d="M987 142h88v-459h-131v317h-87v513h-573v-513h-130v1081h130v-447h573v447h130v-939z" />
    <glyph glyph-name="uni04AE" unicode="&#x4ae;" horiz-adv-x="1223" vert-adv-y="1433" 
d="M539 0v592l-539 952h158l458 -815l455 815h152l-541 -952v-592h-143z" />
    <glyph glyph-name="uni04AF" unicode="&#x4af;" horiz-adv-x="989" vert-adv-y="1433" 
d="M584 6v-361h-131v361l-453 1075h141l377 -901l340 901h131z" />
    <glyph glyph-name="uni04B0" unicode="&#x4b0;" horiz-adv-x="1223" vert-adv-y="1433" 
d="M682 408v-408h-143v408h-209v131h209v53l-539 952h158l458 -815l455 815h152l-541 -952v-53h209v-131h-209z" />
    <glyph glyph-name="uni04B1" unicode="&#x4b1;" horiz-adv-x="989" vert-adv-y="1433" 
d="M584 -16h165v-119h-165v-220h-131v220h-166v119h166v23l-453 1074h141l377 -901l340 901h131l-405 -1074v-23z" />
    <glyph glyph-name="uni04B2" unicode="&#x4b2;" horiz-adv-x="1256" vert-adv-y="1433" 
d="M1125 146h131v-463h-143v317h-54l-455 692l-457 -692h-147l532 797l-495 747h164l411 -631l418 631h148l-492 -735z" />
    <glyph glyph-name="uni04B3" unicode="&#x4b3;" horiz-adv-x="896" vert-adv-y="1433" 
d="M770 148h114v-465h-131v317h-35l-291 459l-295 -459h-133l360 557l-337 524h147l264 -415l266 415h138l-336 -516z" />
    <glyph glyph-name="uni04B8" unicode="&#x4b8;" horiz-adv-x="1284" vert-adv-y="1433" 
d="M548 564q-186 15 -296 91q-108 76 -145 199q-25 84 -25 224v466h143v-466q0 -136 34 -212q59 -127 222 -161q29 -6 67 -10v485h127v-493q47 0 86 3q81 5 226 42v812h143v-1544h-143v599q-195 -40 -312 -40v-330h-127v335z" />
    <glyph glyph-name="uni04B9" unicode="&#x4b9;" horiz-adv-x="985" vert-adv-y="1433" 
d="M524 385v-239h-118v243h4q-122 18 -192 63q-136 86 -136 302v327h131v-327q0 -156 96 -208q32 -17 97 -27v241h118v-247q71 2 176 31v537h131v-1081h-131v412q-113 -25 -176 -27z" />
    <glyph glyph-name="uni04BA" unicode="&#x4ba;" horiz-adv-x="1263" vert-adv-y="1433" 
d="M276 945q193 40 320 40q279 0 415 -96q108 -77 145 -199q25 -84 25 -223v-467h-143v467q0 136 -34 211q-62 136 -254 167q-75 12 -172 12q-123 0 -302 -45v-812h-143v1544h143v-599z" />
    <glyph glyph-name="uni04BB" unicode="&#x4bb;" horiz-adv-x="1119" vert-adv-y="1433" 
d="M154 1544h131v-665q111 175 326 175q121 0 210 -56q97 -61 127 -175q17 -66 17 -175v-648h-131v629q0 139 -41 205q-59 96 -197 96q-129 0 -218 -91q-93 -95 -93 -249v-590h-131v1544z" />
    <glyph glyph-name="uni04C0" unicode="&#x4c0;" horiz-adv-x="451" vert-adv-y="1433" 
d="M154 0v1544h143v-1544h-143z" />
    <glyph glyph-name="uni04D8" unicode="&#x4d8;" horiz-adv-x="1572" vert-adv-y="1433" 
d="M1333 841q-10 217 -112 377q-151 236 -436 236q-202 0 -333 -117q-70 -63 -161 -180l-118 95q100 138 198 209q166 120 413 120q328 0 515 -211q191 -216 191 -597q0 -382 -190 -597q-188 -213 -515 -213q-294 0 -477 173q-110 104 -169 263q-60 164 -60 349q0 30 3 92h3
l-1 1h1249zM1332 690h-1093l1 -10l-1 1q22 -215 110 -355q149 -236 434 -236q262 0 412 200q117 154 137 400z" />
    <glyph glyph-name="afii10846" unicode="&#x4d9;" horiz-adv-x="1139" vert-adv-y="1433" 
d="M86 603h830q-9 143 -64 242q-90 161 -282 161q-113 0 -187 -51q-42 -29 -100 -108l-105 78q74 90 123 121q113 72 268 72q238 0 368 -164q120 -154 120 -413q0 -260 -120 -413q-130 -165 -366 -165q-217 0 -344 135q-72 77 -109 191q-36 113 -36 235q0 26 4 79zM223 474
q12 -143 62 -237q89 -161 283 -161q195 0 286 162q49 86 61 236h-692z" />
    <glyph glyph-name="uni04E8" unicode="&#x4e8;" horiz-adv-x="1575" vert-adv-y="1433" 
d="M1335 847q-18 224 -111 371q-151 235 -437 235q-298 0 -446 -254q-84 -143 -100 -352h1094zM240 699q17 -224 112 -374q149 -236 434 -236q262 0 412 199q119 158 138 411h-1096zM787 1581q329 0 515 -211q191 -216 191 -598q0 -381 -191 -597q-187 -212 -510 -212
q-298 0 -482 173q-228 216 -228 636q0 383 190 598q188 211 515 211z" />
    <glyph glyph-name="uni04E9" unicode="&#x4e9;" horiz-adv-x="1139" vert-adv-y="1433" 
d="M916 603q-9 143 -64 242q-90 161 -282 161q-156 0 -248 -107q-82 -96 -98 -296h692zM223 474q12 -143 62 -237q89 -161 283 -161q195 0 286 162q49 86 61 236h-692zM569 1118q238 0 368 -164q120 -154 120 -413q0 -260 -120 -413q-130 -165 -364 -165q-219 0 -346 135
q-145 154 -145 443q0 261 119 413q130 164 368 164z" />
    <glyph glyph-name="uni060C" unicode="&#x60c;" vert-adv-y="1433" 
 />
    <glyph glyph-name="uni061B" unicode="&#x61b;" vert-adv-y="1433" 
 />
    <glyph glyph-name="uni061F" unicode="&#x61f;" vert-adv-y="1433" 
 />
    <glyph glyph-name="uni0621" unicode="&#x621;" vert-adv-y="1433" 
 />
    <glyph glyph-name="uni0622" unicode="&#x622;" vert-adv-y="1433" 
 />
    <glyph glyph-name="uni0623" unicode="&#x623;" vert-adv-y="1433" 
 />
    <glyph glyph-name="uni0624" unicode="&#x624;" vert-adv-y="1433" 
 />
    <glyph glyph-name="uni0625" unicode="&#x625;" vert-adv-y="1433" 
 />
    <glyph glyph-name="uni0626" unicode="&#x626;" vert-adv-y="1433" 
 />
    <glyph glyph-name="uni0627" unicode="&#x627;" vert-adv-y="1433" 
 />
    <glyph glyph-name="uni0628" unicode="&#x628;" vert-adv-y="1433" 
 />
    <glyph glyph-name="uni0629" unicode="&#x629;" vert-adv-y="1433" 
 />
    <glyph glyph-name="uni062A" unicode="&#x62a;" vert-adv-y="1433" 
 />
    <glyph glyph-name="uni062B" unicode="&#x62b;" vert-adv-y="1433" 
 />
    <glyph glyph-name="uni062C" unicode="&#x62c;" vert-adv-y="1433" 
 />
    <glyph glyph-name="uni062D" unicode="&#x62d;" vert-adv-y="1433" 
 />
    <glyph glyph-name="uni062E" unicode="&#x62e;" vert-adv-y="1433" 
 />
    <glyph glyph-name="uni062F" unicode="&#x62f;" vert-adv-y="1433" 
 />
    <glyph glyph-name="uni0630" unicode="&#x630;" vert-adv-y="1433" 
 />
    <glyph glyph-name="uni0631" unicode="&#x631;" vert-adv-y="1433" 
 />
    <glyph glyph-name="uni0632" unicode="&#x632;" vert-adv-y="1433" 
 />
    <glyph glyph-name="uni0633" unicode="&#x633;" vert-adv-y="1433" 
 />
    <glyph glyph-name="uni0634" unicode="&#x634;" vert-adv-y="1433" 
 />
    <glyph glyph-name="uni0635" unicode="&#x635;" vert-adv-y="1433" 
 />
    <glyph glyph-name="uni0636" unicode="&#x636;" vert-adv-y="1433" 
 />
    <glyph glyph-name="uni0637" unicode="&#x637;" vert-adv-y="1433" 
 />
    <glyph glyph-name="uni0638" unicode="&#x638;" vert-adv-y="1433" 
 />
    <glyph glyph-name="uni0639" unicode="&#x639;" vert-adv-y="1433" 
 />
    <glyph glyph-name="uni063A" unicode="&#x63a;" vert-adv-y="1433" 
 />
    <glyph glyph-name="uni0640" unicode="&#x640;" vert-adv-y="1433" 
 />
    <glyph glyph-name="uni0641" unicode="&#x641;" vert-adv-y="1433" 
 />
    <glyph glyph-name="uni0642" unicode="&#x642;" vert-adv-y="1433" 
 />
    <glyph glyph-name="uni0643" unicode="&#x643;" vert-adv-y="1433" 
 />
    <glyph glyph-name="uni0644" unicode="&#x644;" vert-adv-y="1433" 
 />
    <glyph glyph-name="uni0645" unicode="&#x645;" vert-adv-y="1433" 
 />
    <glyph glyph-name="uni0646" unicode="&#x646;" vert-adv-y="1433" 
 />
    <glyph glyph-name="uni0647" unicode="&#x647;" vert-adv-y="1433" 
 />
    <glyph glyph-name="uni0648" unicode="&#x648;" vert-adv-y="1433" 
 />
    <glyph glyph-name="uni0649" unicode="&#x649;" vert-adv-y="1433" 
 />
    <glyph glyph-name="uni064A" unicode="&#x64a;" vert-adv-y="1433" 
 />
    <glyph glyph-name="uni064B" unicode="&#x64b;" vert-adv-y="1433" 
 />
    <glyph glyph-name="uni064C" unicode="&#x64c;" vert-adv-y="1433" 
 />
    <glyph glyph-name="uni064D" unicode="&#x64d;" vert-adv-y="1433" 
 />
    <glyph glyph-name="uni064E" unicode="&#x64e;" vert-adv-y="1433" 
 />
    <glyph glyph-name="uni064F" unicode="&#x64f;" vert-adv-y="1433" 
 />
    <glyph glyph-name="uni0650" unicode="&#x650;" vert-adv-y="1433" 
 />
    <glyph glyph-name="uni0651" unicode="&#x651;" vert-adv-y="1433" 
 />
    <glyph glyph-name="uni0652" unicode="&#x652;" vert-adv-y="1433" 
 />
    <glyph glyph-name="uni0653" unicode="&#x653;" vert-adv-y="1433" 
 />
    <glyph glyph-name="uni0654" unicode="&#x654;" vert-adv-y="1433" 
 />
    <glyph glyph-name="uni0655" unicode="&#x655;" vert-adv-y="1433" 
 />
    <glyph glyph-name="uni0660" unicode="&#x660;" vert-adv-y="1433" 
 />
    <glyph glyph-name="uni0661" unicode="&#x661;" vert-adv-y="1433" 
 />
    <glyph glyph-name="uni0662" unicode="&#x662;" vert-adv-y="1433" 
 />
    <glyph glyph-name="uni0663" unicode="&#x663;" vert-adv-y="1433" 
 />
    <glyph glyph-name="uni0664" unicode="&#x664;" vert-adv-y="1433" 
 />
    <glyph glyph-name="uni0665" unicode="&#x665;" vert-adv-y="1433" 
 />
    <glyph glyph-name="uni0666" unicode="&#x666;" vert-adv-y="1433" 
 />
    <glyph glyph-name="uni0667" unicode="&#x667;" vert-adv-y="1433" 
 />
    <glyph glyph-name="uni0668" unicode="&#x668;" vert-adv-y="1433" 
 />
    <glyph glyph-name="uni0669" unicode="&#x669;" vert-adv-y="1433" 
 />
    <glyph glyph-name="uni066A" unicode="&#x66a;" vert-adv-y="1433" 
 />
    <glyph glyph-name="uni066B" unicode="&#x66b;" vert-adv-y="1433" 
 />
    <glyph glyph-name="uni066C" unicode="&#x66c;" vert-adv-y="1433" 
 />
    <glyph glyph-name="uni066D" unicode="&#x66d;" vert-adv-y="1433" 
 />
    <glyph glyph-name="uni0670" unicode="&#x670;" vert-adv-y="1433" 
 />
    <glyph glyph-name="uni0671" unicode="&#x671;" vert-adv-y="1433" 
 />
    <glyph glyph-name="uni0672" unicode="&#x672;" vert-adv-y="1433" 
 />
    <glyph glyph-name="uni0673" unicode="&#x673;" vert-adv-y="1433" 
 />
    <glyph glyph-name="uni0674" unicode="&#x674;" vert-adv-y="1433" 
 />
    <glyph glyph-name="uni0675" unicode="&#x675;" vert-adv-y="1433" 
 />
    <glyph glyph-name="uni0676" unicode="&#x676;" vert-adv-y="1433" 
 />
    <glyph glyph-name="uni0677" unicode="&#x677;" vert-adv-y="1433" 
 />
    <glyph glyph-name="uni0678" unicode="&#x678;" vert-adv-y="1433" 
 />
    <glyph glyph-name="uni0679" unicode="&#x679;" vert-adv-y="1433" 
 />
    <glyph glyph-name="uni067A" unicode="&#x67a;" vert-adv-y="1433" 
 />
    <glyph glyph-name="uni067B" unicode="&#x67b;" vert-adv-y="1433" 
 />
    <glyph glyph-name="uni067C" unicode="&#x67c;" vert-adv-y="1433" 
 />
    <glyph glyph-name="uni067D" unicode="&#x67d;" vert-adv-y="1433" 
 />
    <glyph glyph-name="uni067E" unicode="&#x67e;" vert-adv-y="1433" 
 />
    <glyph glyph-name="uni067F" unicode="&#x67f;" vert-adv-y="1433" 
 />
    <glyph glyph-name="uni0680" unicode="&#x680;" vert-adv-y="1433" 
 />
    <glyph glyph-name="uni0681" unicode="&#x681;" vert-adv-y="1433" 
 />
    <glyph glyph-name="uni0682" unicode="&#x682;" vert-adv-y="1433" 
 />
    <glyph glyph-name="uni0683" unicode="&#x683;" vert-adv-y="1433" 
 />
    <glyph glyph-name="uni0684" unicode="&#x684;" vert-adv-y="1433" 
 />
    <glyph glyph-name="uni0685" unicode="&#x685;" vert-adv-y="1433" 
 />
    <glyph glyph-name="uni0686" unicode="&#x686;" vert-adv-y="1433" 
 />
    <glyph glyph-name="uni0687" unicode="&#x687;" vert-adv-y="1433" 
 />
    <glyph glyph-name="uni0688" unicode="&#x688;" vert-adv-y="1433" 
 />
    <glyph glyph-name="uni0689" unicode="&#x689;" vert-adv-y="1433" 
 />
    <glyph glyph-name="uni068A" unicode="&#x68a;" vert-adv-y="1433" 
 />
    <glyph glyph-name="uni068B" unicode="&#x68b;" vert-adv-y="1433" 
 />
    <glyph glyph-name="uni068C" unicode="&#x68c;" vert-adv-y="1433" 
 />
    <glyph glyph-name="uni068D" unicode="&#x68d;" vert-adv-y="1433" 
 />
    <glyph glyph-name="uni068E" unicode="&#x68e;" vert-adv-y="1433" 
 />
    <glyph glyph-name="uni068F" unicode="&#x68f;" vert-adv-y="1433" 
 />
    <glyph glyph-name="uni0690" unicode="&#x690;" vert-adv-y="1433" 
 />
    <glyph glyph-name="uni0691" unicode="&#x691;" vert-adv-y="1433" 
 />
    <glyph glyph-name="uni0692" unicode="&#x692;" vert-adv-y="1433" 
 />
    <glyph glyph-name="uni0693" unicode="&#x693;" vert-adv-y="1433" 
 />
    <glyph glyph-name="uni0694" unicode="&#x694;" vert-adv-y="1433" 
 />
    <glyph glyph-name="uni0695" unicode="&#x695;" vert-adv-y="1433" 
 />
    <glyph glyph-name="uni0696" unicode="&#x696;" vert-adv-y="1433" 
 />
    <glyph glyph-name="uni0697" unicode="&#x697;" vert-adv-y="1433" 
 />
    <glyph glyph-name="uni0698" unicode="&#x698;" vert-adv-y="1433" 
 />
    <glyph glyph-name="uni0699" unicode="&#x699;" vert-adv-y="1433" 
 />
    <glyph glyph-name="uni069A" unicode="&#x69a;" vert-adv-y="1433" 
 />
    <glyph glyph-name="uni069B" unicode="&#x69b;" vert-adv-y="1433" 
 />
    <glyph glyph-name="uni069C" unicode="&#x69c;" vert-adv-y="1433" 
 />
    <glyph glyph-name="uni069D" unicode="&#x69d;" vert-adv-y="1433" 
 />
    <glyph glyph-name="uni069E" unicode="&#x69e;" vert-adv-y="1433" 
 />
    <glyph glyph-name="uni069F" unicode="&#x69f;" vert-adv-y="1433" 
 />
    <glyph glyph-name="uni06A0" unicode="&#x6a0;" vert-adv-y="1433" 
 />
    <glyph glyph-name="uni06A1" unicode="&#x6a1;" vert-adv-y="1433" 
 />
    <glyph glyph-name="uni06A2" unicode="&#x6a2;" vert-adv-y="1433" 
 />
    <glyph glyph-name="uni06A3" unicode="&#x6a3;" vert-adv-y="1433" 
 />
    <glyph glyph-name="uni06A4" unicode="&#x6a4;" vert-adv-y="1433" 
 />
    <glyph glyph-name="uni06A5" unicode="&#x6a5;" vert-adv-y="1433" 
 />
    <glyph glyph-name="uni06A6" unicode="&#x6a6;" vert-adv-y="1433" 
 />
    <glyph glyph-name="uni06A7" unicode="&#x6a7;" vert-adv-y="1433" 
 />
    <glyph glyph-name="uni06A8" unicode="&#x6a8;" vert-adv-y="1433" 
 />
    <glyph glyph-name="uni06A9" unicode="&#x6a9;" vert-adv-y="1433" 
 />
    <glyph glyph-name="uni06AA" unicode="&#x6aa;" vert-adv-y="1433" 
 />
    <glyph glyph-name="uni06AB" unicode="&#x6ab;" vert-adv-y="1433" 
 />
    <glyph glyph-name="uni06AC" unicode="&#x6ac;" vert-adv-y="1433" 
 />
    <glyph glyph-name="uni06AD" unicode="&#x6ad;" vert-adv-y="1433" 
 />
    <glyph glyph-name="uni06AE" unicode="&#x6ae;" vert-adv-y="1433" 
 />
    <glyph glyph-name="uni06AF" unicode="&#x6af;" vert-adv-y="1433" 
 />
    <glyph glyph-name="uni06B0" unicode="&#x6b0;" vert-adv-y="1433" 
 />
    <glyph glyph-name="uni06B1" unicode="&#x6b1;" vert-adv-y="1433" 
 />
    <glyph glyph-name="uni06B2" unicode="&#x6b2;" vert-adv-y="1433" 
 />
    <glyph glyph-name="uni06B3" unicode="&#x6b3;" vert-adv-y="1433" 
 />
    <glyph glyph-name="uni06B4" unicode="&#x6b4;" vert-adv-y="1433" 
 />
    <glyph glyph-name="uni06B5" unicode="&#x6b5;" vert-adv-y="1433" 
 />
    <glyph glyph-name="uni06B6" unicode="&#x6b6;" vert-adv-y="1433" 
 />
    <glyph glyph-name="uni06B7" unicode="&#x6b7;" vert-adv-y="1433" 
 />
    <glyph glyph-name="uni06B8" unicode="&#x6b8;" vert-adv-y="1433" 
 />
    <glyph glyph-name="uni06B9" unicode="&#x6b9;" vert-adv-y="1433" 
 />
    <glyph glyph-name="uni06BA" unicode="&#x6ba;" vert-adv-y="1433" 
 />
    <glyph glyph-name="uni06BB" unicode="&#x6bb;" vert-adv-y="1433" 
 />
    <glyph glyph-name="uni06BC" unicode="&#x6bc;" vert-adv-y="1433" 
 />
    <glyph glyph-name="uni06BD" unicode="&#x6bd;" vert-adv-y="1433" 
 />
    <glyph glyph-name="uni06BE" unicode="&#x6be;" vert-adv-y="1433" 
 />
    <glyph glyph-name="uni06BF" unicode="&#x6bf;" vert-adv-y="1433" 
 />
    <glyph glyph-name="uni06C0" unicode="&#x6c0;" vert-adv-y="1433" 
 />
    <glyph glyph-name="uni06C1" unicode="&#x6c1;" vert-adv-y="1433" 
 />
    <glyph glyph-name="uni06C2" unicode="&#x6c2;" vert-adv-y="1433" 
 />
    <glyph glyph-name="uni06C3" unicode="&#x6c3;" vert-adv-y="1433" 
 />
    <glyph glyph-name="uni06C4" unicode="&#x6c4;" vert-adv-y="1433" 
 />
    <glyph glyph-name="uni06C5" unicode="&#x6c5;" vert-adv-y="1433" 
 />
    <glyph glyph-name="uni06C6" unicode="&#x6c6;" vert-adv-y="1433" 
 />
    <glyph glyph-name="uni06C7" unicode="&#x6c7;" vert-adv-y="1433" 
 />
    <glyph glyph-name="uni06C8" unicode="&#x6c8;" vert-adv-y="1433" 
 />
    <glyph glyph-name="uni06C9" unicode="&#x6c9;" vert-adv-y="1433" 
 />
    <glyph glyph-name="uni06CA" unicode="&#x6ca;" vert-adv-y="1433" 
 />
    <glyph glyph-name="uni06CB" unicode="&#x6cb;" vert-adv-y="1433" 
 />
    <glyph glyph-name="uni06CC" unicode="&#x6cc;" vert-adv-y="1433" 
 />
    <glyph glyph-name="uni06CD" unicode="&#x6cd;" vert-adv-y="1433" 
 />
    <glyph glyph-name="uni06CE" unicode="&#x6ce;" vert-adv-y="1433" 
 />
    <glyph glyph-name="uni06CF" unicode="&#x6cf;" vert-adv-y="1433" 
 />
    <glyph glyph-name="uni06D0" unicode="&#x6d0;" vert-adv-y="1433" 
 />
    <glyph glyph-name="uni06D1" unicode="&#x6d1;" vert-adv-y="1433" 
 />
    <glyph glyph-name="uni06D2" unicode="&#x6d2;" vert-adv-y="1433" 
 />
    <glyph glyph-name="uni06D3" unicode="&#x6d3;" vert-adv-y="1433" 
 />
    <glyph glyph-name="uni06D4" unicode="&#x6d4;" vert-adv-y="1433" 
 />
    <glyph glyph-name="uni06D5" unicode="&#x6d5;" vert-adv-y="1433" 
 />
    <glyph glyph-name="uni06D6" unicode="&#x6d6;" vert-adv-y="1433" 
 />
    <glyph glyph-name="uni06D7" unicode="&#x6d7;" vert-adv-y="1433" 
 />
    <glyph glyph-name="uni06D8" unicode="&#x6d8;" vert-adv-y="1433" 
 />
    <glyph glyph-name="uni06D9" unicode="&#x6d9;" vert-adv-y="1433" 
 />
    <glyph glyph-name="uni06DA" unicode="&#x6da;" vert-adv-y="1433" 
 />
    <glyph glyph-name="uni06DB" unicode="&#x6db;" vert-adv-y="1433" 
 />
    <glyph glyph-name="uni06DC" unicode="&#x6dc;" vert-adv-y="1433" 
 />
    <glyph glyph-name="uni06DD" unicode="&#x6dd;" vert-adv-y="1433" 
 />
    <glyph glyph-name="uni06DE" unicode="&#x6de;" vert-adv-y="1433" 
 />
    <glyph glyph-name="uni06DF" unicode="&#x6df;" vert-adv-y="1433" 
 />
    <glyph glyph-name="uni06E0" unicode="&#x6e0;" vert-adv-y="1433" 
 />
    <glyph glyph-name="uni06E1" unicode="&#x6e1;" vert-adv-y="1433" 
 />
    <glyph glyph-name="uni06E2" unicode="&#x6e2;" vert-adv-y="1433" 
 />
    <glyph glyph-name="uni06E3" unicode="&#x6e3;" vert-adv-y="1433" 
 />
    <glyph glyph-name="uni06E4" unicode="&#x6e4;" vert-adv-y="1433" 
 />
    <glyph glyph-name="uni06E5" unicode="&#x6e5;" vert-adv-y="1433" 
 />
    <glyph glyph-name="uni06E6" unicode="&#x6e6;" vert-adv-y="1433" 
 />
    <glyph glyph-name="uni06E7" unicode="&#x6e7;" vert-adv-y="1433" 
 />
    <glyph glyph-name="uni06E8" unicode="&#x6e8;" vert-adv-y="1433" 
 />
    <glyph glyph-name="uni06E9" unicode="&#x6e9;" vert-adv-y="1433" 
 />
    <glyph glyph-name="uni06EA" unicode="&#x6ea;" vert-adv-y="1433" 
 />
    <glyph glyph-name="uni06EB" unicode="&#x6eb;" vert-adv-y="1433" 
 />
    <glyph glyph-name="uni06EC" unicode="&#x6ec;" vert-adv-y="1433" 
 />
    <glyph glyph-name="uni06ED" unicode="&#x6ed;" vert-adv-y="1433" 
 />
    <glyph glyph-name="uni06EE" unicode="&#x6ee;" vert-adv-y="1433" 
 />
    <glyph glyph-name="uni06EF" unicode="&#x6ef;" vert-adv-y="1433" 
 />
    <glyph glyph-name="uni06F0" unicode="&#x6f0;" vert-adv-y="1433" 
 />
    <glyph glyph-name="uni06F1" unicode="&#x6f1;" vert-adv-y="1433" 
 />
    <glyph glyph-name="uni06F2" unicode="&#x6f2;" vert-adv-y="1433" 
 />
    <glyph glyph-name="uni06F3" unicode="&#x6f3;" vert-adv-y="1433" 
 />
    <glyph glyph-name="uni06F4" unicode="&#x6f4;" vert-adv-y="1433" 
 />
    <glyph glyph-name="uni06F5" unicode="&#x6f5;" vert-adv-y="1433" 
 />
    <glyph glyph-name="uni06F6" unicode="&#x6f6;" vert-adv-y="1433" 
 />
    <glyph glyph-name="uni06F7" unicode="&#x6f7;" vert-adv-y="1433" 
 />
    <glyph glyph-name="uni06F8" unicode="&#x6f8;" vert-adv-y="1433" 
 />
    <glyph glyph-name="uni06F9" unicode="&#x6f9;" vert-adv-y="1433" 
 />
    <glyph glyph-name="uni06FA" unicode="&#x6fa;" vert-adv-y="1433" 
 />
    <glyph glyph-name="uni06FB" unicode="&#x6fb;" vert-adv-y="1433" 
 />
    <glyph glyph-name="uni06FC" unicode="&#x6fc;" vert-adv-y="1433" 
 />
    <glyph glyph-name="uni06FD" unicode="&#x6fd;" vert-adv-y="1433" 
 />
    <glyph glyph-name="uni06FE" unicode="&#x6fe;" vert-adv-y="1433" 
 />
    <glyph glyph-name="uni2010" unicode="&#x2010;" horiz-adv-x="782" vert-adv-y="1433" 
d="M123 469v143h536v-143h-536z" />
    <glyph glyph-name="uni2011" unicode="&#x2011;" horiz-adv-x="782" vert-adv-y="1433" 
d="M123 469v143h536v-143h-536z" />
    <glyph glyph-name="figuredash" unicode="&#x2012;" horiz-adv-x="1024" vert-adv-y="1433" 
d="M0 518v129h1024v-129h-1024z" />
    <glyph glyph-name="afii00208" unicode="&#x2015;" horiz-adv-x="2048" vert-adv-y="1433" 
d="M0 518v129h2048v-129h-2048z" />
    <glyph glyph-name="uni203E" unicode="&#x203e;" horiz-adv-x="811" vert-adv-y="1433" 
d="M104 1352v112h603v-112h-603z" />
    <glyph glyph-name="afii61352" unicode="&#x2116;" horiz-adv-x="2491" vert-adv-y="1433" 
d="M1975 1283q108 0 200 -60q85 -55 125 -142q36 -77 36 -160q0 -147 -105 -252q-104 -104 -254 -104q-137 0 -237 85q-126 107 -126 274q0 150 105 254q107 105 256 105zM1973 1156q-90 0 -154 -66q-66 -68 -66 -166q0 -99 66 -167q64 -66 154 -66q88 0 157 64
q68 64 68 172q0 110 -83 179q-60 50 -142 50zM154 0v1544h190l832 -1360v1360h143v-1544h-189l-833 1362v-1362h-143zM1614 220v112h722v-112h-722z" />
    <glyph glyph-name="minus" unicode="&#x2212;" horiz-adv-x="1194" vert-adv-y="1433" 
d="M51 674v114h1090v-114h-1090z" />
    <glyph glyph-name="uni2215" unicode="&#x2215;" horiz-adv-x="256" vert-adv-y="1433" 
d="M-285 -37l703 1534h123l-703 -1534h-123z" />
    <glyph glyph-name="uni2219" unicode="&#x2219;" horiz-adv-x="465" vert-adv-y="1433" 
d="M143 606v250h179v-250h-179z" />
    <glyph glyph-name="dotmath" unicode="&#x22c5;" horiz-adv-x="465" vert-adv-y="1433" 
d="M143 606v250h179v-250h-179z" />
    <glyph glyph-name="uniEA3E" unicode="&#xea3e;" horiz-adv-x="1047" vert-adv-y="1433" 
d="M221 522q4 -178 60 -284q86 -160 277 -160q172 0 250 124q37 56 58 148l127 -37q-103 -350 -431 -350q-214 0 -339 136q-141 153 -141 442q0 259 116 411q125 166 362 166q341 0 421 -325l-131 -39q-31 120 -85 176q-73 76 -210 76q-168 0 -256 -137q-60 -92 -73 -235
h439v-112h-444z" />
    <glyph glyph-name="uniEA3F" unicode="&#xea3f;" horiz-adv-x="418" vert-adv-y="1433" 
d="M395 1231v313h131l-31 -313h-100z" />
    <glyph glyph-name="uniEA4F" unicode="&#xea4f;" horiz-adv-x="1159" vert-adv-y="1433" 
d="M543 1272l194 272h123l-164 -272h-153z" />
    <glyph glyph-name="uniEA66" unicode="&#xea66;" horiz-adv-x="639" vert-adv-y="1433" 
d="M218 -393l194 272h123l-164 -272h-153z" />
    <glyph glyph-name="uniEA67" unicode="&#xea67;" horiz-adv-x="1190" vert-adv-y="1433" 
d="M571 1231v313h131l-30 -313h-101z" />
    <glyph glyph-name="uniEA68" unicode="&#xea68;" horiz-adv-x="451" vert-adv-y="1433" 
d="M-6 1696v209h137v-209h-137zM326 1696v209h137v-209h-137z" />
    <glyph glyph-name="uniEA69" unicode="&#xea69;" horiz-adv-x="639" vert-adv-y="1433" 
d="M218 -393l194 272h123l-164 -272h-153z" />
    <glyph glyph-name="uniEA6A" unicode="&#xea6a;" horiz-adv-x="418" vert-adv-y="1433" 
d="M-23 1303v209h137v-209h-137zM309 1303v209h137v-209h-137z" />
    <glyph glyph-name="Dotaccent" unicode="&#xefed;" horiz-adv-x="1305" vert-adv-y="1433" 
d="M651 1686v215h137v-215h-137z" />
    <glyph glyph-name="Breve" unicode="&#xefee;" horiz-adv-x="1358" vert-adv-y="1433" 
d="M368 1897h119q48 -108 197 -108q147 0 190 108h117q-51 -210 -311 -210q-262 0 -312 210z" />
    <glyph glyph-name="Ogonek" unicode="&#xeff1;" horiz-adv-x="1358" vert-adv-y="1433" 
d="M1232 0h79q-94 -74 -94 -155q0 -75 77 -75q43 0 103 38v-99q-58 -37 -124 -37q-96 0 -142 63q-25 35 -25 80q0 104 126 185z" />
    <glyph glyph-name="Cedilla" unicode="&#xeff2;" horiz-adv-x="1464" vert-adv-y="1433" 
d="M498 -393l194 272h123l-164 -272h-153z" />
    <glyph glyph-name="Ring" unicode="&#xeff3;" horiz-adv-x="1440" vert-adv-y="1433" 
d="M722 1934q129 0 190 -79q42 -54 42 -141q0 -108 -71 -165q-60 -49 -163 -49q-107 0 -169 52q-68 58 -68 165q0 110 70 168q59 49 169 49zM717 1856q-81 0 -122 -53q-26 -34 -26 -87q0 -69 49 -108q37 -30 99 -30q69 0 113 40q38 36 38 101q0 64 -43 101q-42 36 -108 36z
" />
    <glyph glyph-name="Tilde" unicode="&#xeff5;" horiz-adv-x="1358" vert-adv-y="1433" 
d="M403 1702l-100 24q48 181 193 181q71 0 163 -47l68 -35q64 -33 109 -33q66 0 96 100l100 -24q-24 -87 -76 -137q-47 -46 -115 -46q-67 0 -167 50l-64 32q-66 33 -103 33q-67 0 -104 -98z" />
    <glyph glyph-name="Circumflex" unicode="&#xeff7;" horiz-adv-x="1358" vert-adv-y="1433" 
d="M366 1659l238 272h143l238 -272h-133l-176 180l-177 -180h-133z" />
    <glyph glyph-name="uniF080" unicode="&#xf080;" horiz-adv-x="1661" vert-adv-y="1433" 
d="M1620 879v-176h-1577v176h1577z" />
    <glyph glyph-name="uniF081" unicode="&#xf081;" horiz-adv-x="1024" vert-adv-y="1433" 
d="M291 0l299 1542h150l-295 -1542h-154z" />
    <glyph glyph-name="uniF082" unicode="&#xf082;" horiz-adv-x="3488" vert-adv-y="1433" 
d="M6 6l442 1544h213l445 -1544h-193l-106 383h-529l-108 -383h-164zM313 545h453l-221 823zM2158 1120l-188 -30q-28 138 -77 216q-74 117 -211 117q-176 0 -263 -193q-67 -148 -67 -470q0 -308 73 -457q83 -170 251 -170q184 0 261 191q32 79 49 208l187 -20
q-39 -257 -145 -387q-126 -152 -352 -152q-517 0 -517 789q0 418 137 619q137 200 393 200q393 0 469 -461zM3348 1120l-186 -30q-30 138 -77 216q-73 117 -211 117q-332 0 -332 -665q0 -625 327 -625q181 0 259 191q33 82 50 208l187 -20q-82 -539 -499 -539
q-216 0 -345 147q-172 197 -172 641q0 412 139 620q134 200 392 200q254 0 370 -178q69 -105 98 -283z" />
    <glyph glyph-name="uniF083" unicode="&#xf083;" horiz-adv-x="3578" vert-adv-y="1433" 
d="M84 0v1546h200l562 -1214v1214h180v-1546h-203l-559 1210v-1210h-180zM2243 1116l-189 -35q-28 140 -77 219q-74 119 -213 119q-182 0 -266 -193q-70 -159 -70 -472q0 -625 331 -625q186 0 262 190q32 79 50 211l190 -18q-44 -265 -148 -391q-125 -152 -355 -152
q-525 0 -525 788q0 407 141 618q135 202 396 202q404 0 473 -461zM2947 1577q268 0 409 -199q146 -207 146 -606q0 -397 -146 -604q-141 -199 -411 -199q-237 0 -375 160q-176 206 -176 643q0 399 147 606q140 199 406 199zM2947 1419q-180 0 -273 -175q-90 -169 -90 -473
q0 -303 90 -470q93 -172 272 -172q162 0 253 138q108 165 108 504q0 308 -88 473q-94 175 -272 175z" />
    <glyph glyph-name="uniF084" unicode="&#xf084;" horiz-adv-x="2132" vert-adv-y="1433" 
d="M615 -965l-240 222l512 585l-432 154l1366 768l-416 -1518l-264 389z" />
    <glyph glyph-name="uniF085" unicode="&#xf085;" horiz-adv-x="45" vert-adv-y="1433" 
d="M139 35v1339h4078v-1339h-4078z" />
    <glyph glyph-name="uniF086" unicode="&#xf086;" horiz-adv-x="4352" vert-adv-y="1433" 
d="M4139 1335h-4004v-1261h4004v1261zM4212 1409v-1409h-4151v1409h4151z" />
    <glyph glyph-name="uniF087" unicode="&#xf087;" horiz-adv-x="1096" vert-adv-y="1433" 
d="M59 414l180 37q18 -133 64 -206q76 -120 241 -120q158 0 229 90q50 65 50 178q0 219 -227 289l-160 49q-182 56 -263 157q-83 103 -83 268q0 141 65 245q110 178 379 178q216 0 329 -119q92 -98 128 -268l-170 -49q-63 282 -293 282q-258 0 -258 -267q0 -196 231 -265
l179 -53q132 -40 206 -105q125 -110 125 -328q0 -207 -111 -317q-121 -121 -353 -121q-228 0 -347 120q-98 99 -141 325z" />
    </font>
</defs>
</svg>
